<?xml version="1.0" encoding="UTF-8"?>
<svg id="a" data-name=" 图层 1" xmlns="http://www.w3.org/2000/svg" viewBox="0 0 512 512">
  <g>
    <path d="M118.76,85.14c42.25,0,76.49,34.26,76.49,76.5s-34.26,76.49-76.5,76.49-76.48-34.25-76.49-76.49c0-42.25,34.24-76.5,76.49-76.5h.01ZM118.76,93.76c37.48,0,67.86,30.38,67.86,67.86s-30.38,67.86-67.86,67.86-67.86-30.38-67.86-67.86,30.38-67.86,67.86-67.86h0Z" style="fill: #fff; fill-rule: evenodd;"/>
    <path d="M119.33,108.42c28.67-.04,51.94,23.18,51.98,51.85.04,28.67-23.18,51.94-51.85,51.98-28.67.04-51.94-23.18-51.98-51.85v-.06c-.02-28.65,23.2-51.9,51.85-51.92h0ZM119.33,116.55c24.18-.03,43.81,19.54,43.84,43.72s-19.54,43.81-43.72,43.84c-24.18.03-43.81-19.54-43.84-43.72v-.06c-.01-24.16,19.56-43.76,43.72-43.77h0Z" style="fill: #fff; fill-rule: evenodd;"/>
    <path d="M119.75,134.44c14.81,0,26.82,12.01,26.82,26.82s-12.01,26.82-26.82,26.82-26.82-12.01-26.82-26.82h0c0-14.81,12.01-26.82,26.82-26.82Z" style="fill: #fff; fill-rule: evenodd;"/>
  </g>
  <path d="M403.44,194.97h-10.87l-73.94-17.4h-15.22v4.35l-10.87,13.05h-36.98l10.87-23.92h-8.69l-13.05,23.92h-17.4l10.87-30.44v-4.35l-10.87-30.44h17.4l13.05,23.92h8.7l-10.87-23.92h36.98l10.87,13.05v4.35h15.22l73.96-17.4h10.87l80.46,17.4v30.44l-80.49,17.4h0Z" style="fill: #fff; fill-rule: evenodd;"/>
  <path d="M463.24,345.4h-12.19l-4.06,4.06-8.13,4.06h-40.63c-3.28-3.07-7.73-4.55-12.19-4.06h-12.19c-2.77.11-5.48.85-7.92,2.19.02,7.86-5.32,6.1-9.47,6.41-2.86-.47-5.39-2.11-6.99-4.53l-20.17,1.13-5.09,1.7h-10.19l3.39,3.39v1.7h3.4v-1.7h11.88s-.14-3.38,5.1-3.38c3.11.08,5.84,2.12,6.8,5.08,0,0,3.91,12.39,6.78,25.47,2.86,13.07-3.4,11.88-3.4,11.88-6.1,0-6.79-3.39-6.79-3.39l-3.39-27.16h-5.09v-1.71h-11.89v-1.68l-8.49,1.7-3.4,1.7v8.48l-3.4,5.09h-25.46l-13.58,25.47h-3.4l-10.19-5.09,15.29-23.77v-6.79l1.7-3.39h-5.1l-3.4-1.71-5.09,10.2h-15.28l-1.68-3.39h-8.51v-1.7h-11.88v1.7h-10.19v-1.7l-1.7-1.7h-1.69l-1.7,1.7h-1.71v40.74h-6.77l-10.19-49.23,45.84-1.7v-1.7h-28.88v-1.69h1.7v-1.69h-3.38v3.39h-56.02s-4.66-8.49-10.19-8.49c-3.9.41-7.52,2.22-10.19,5.1h-13.58c-14.27-.41-28.48-2.12-42.44-5.1-3.92-.8-7.96-.8-11.88,0-1.91,3.22-4.93,5.63-8.49,6.79h-11.89s-6.79-3.99-6.79-22.07,6.79-18.69,6.79-18.69h10.19c4.54-.3,8.72,2.48,10.19,6.79h8.49c21.62-6.65,61.11-5.09,61.11-5.09.41,1.68,1.72,2.99,3.4,3.4h8.49c3.42,0,6.79-6.79,6.79-6.79h8.49v1.7h11.88v-1.69h6.79v1.7h13.58v-1.7h8.49v1.7h11.88v-1.7h1.7v-1.69h45.84v1.69h3.39v1.7h20.37v-1.7h30.56l1.7-1.7h6.79l1.7,3.4,13.58,1.7,10.19,1.7,8.28.31c2.62-8.91,8.13-8.13,8.13-8.13,0,0,6.4-.18,9.32,10.48,2.16,1.05,4.53,1.64,6.94,1.71h12.19c4.46.49,8.92-.99,12.19-4.06h40.63l8.13,4.06,4.06,4.06h12.19l20.32,8.13-20.32,8.13v-.03Z" style="fill: #49adc9; fill-rule: evenodd;"/>
</svg>