<?xml version="1.0" encoding="UTF-8"?>
<svg id="_图层_1" data-name="图层_1" xmlns="http://www.w3.org/2000/svg" version="1.1" viewBox="0 0 512 512">
  <!-- Generator: Adobe Illustrator 29.5.1, SVG Export Plug-In . SVG Version: 2.1.0 Build 141)  -->
  <defs>
    <style>
      .st0, .st1 {
        fill: #fff;
      }

      .st1, .st2 {
        fill-rule: evenodd;
      }

      .st2 {
        fill: #49adc9;
      }
    </style>
  </defs>
  <path class="st2" d="M430.73,381.97v-4.06h-121.9v12.19h-12.19v-4.06h-8.13v44.7h8.13v8.13h-24.38v-8.13h8.13v-40.63l-8.13-8.13h-8.13l-4.06,4.06h-40.63l-4.06,4.06h-12.19v20.32h-8.13v16.25h-36.36l-.22-4.06h-4.06v-20.32l-8.13-4.06c-2.14,2.28-5.02,3.72-8.13,4.06-4.24-.76-8.34-2.13-12.19-4.06l-12.19,12.19v16.25h-16.25l-4.06-12.19,16.25-16.25v-8.13l-4.06-8.13h-32.51l-4.06,8.13v4.06l-4.06,8.13h-20.32l-16.25,12.19h-12.19v-48.76l12.19-8.13h81.27l4.06-4.06h24.38v-8.13h-20.32v-16.25h81.27v12.19l-8.13,4.06h-12.19v8.13h24.38l4.06,4.06h4.06v-8.13h36.57l8.13,8.13h44.7l8.13,8.13h121.9v-4.06h60.95v20.32h-60.95ZM60.95,377.9H28.44v20.32h12.19l20.32-16.25v-4.06ZM138.16,386.03c-4.47,0-8.13,1.82-8.13,4.06.49,1.9,2.11,3.3,4.06,3.5v.56h8.13v-.56c1.95-.2,3.58-1.6,4.06-3.5,0-2.24-3.66-4.06-8.13-4.06Z"/>
  <path class="st0" d="M243.81,69.08h16.25v203.17h-16.25V69.08Z"/>
  <path class="st0" d="M150.35,162.54h207.24v16.25h-207.24v-16.25Z"/>
  <path class="st1" d="M251.94,89.4c44.88,0,81.27,36.39,81.27,81.27s-36.39,81.27-81.27,81.27-81.27-36.39-81.27-81.27,36.39-81.27,81.27-81.27ZM251.94,109.71c33.66,0,60.95,27.29,60.95,60.95s-27.29,60.95-60.95,60.95-60.95-27.29-60.95-60.95,27.29-60.95,60.95-60.95Z"/>
</svg>