<?xml version="1.0" encoding="UTF-8"?>
<svg id="a" data-name=" 图层 1" xmlns="http://www.w3.org/2000/svg" viewBox="0 0 512 512">
  <g>
    <path d="M117.84,394.16v-44.7h276.32v44.7l-52.83,24.38-85.33-40.63-85.33,40.63-52.83-24.38Z" style="fill: #fff; fill-rule: evenodd;"/>
    <path d="M154.41,296.63h203.17v36.57h-203.17v-36.57h0ZM235.68,260.06h40.63v20.32h-40.63v-20.32Z" style="fill: #fff;"/>
  </g>
  <g>
    <path d="M20.32,426.48l69.08-28.26,81.27,40.63,85.33-40.63,85.33,40.63,81.27-40.63,69.08,29.22v64.24H20.32v-65.2h0Z" style="fill: #679552; fill-rule: evenodd;"/>
    <path d="M139.22,115.96l30.22-30.24h86.96l117.19,49.14v45.36h-234.37v-64.26ZM256.41,70.59h-86.96v-34.02h86.96l3.78,7.56h79.38v18.9h-79.38l-3.78,7.56ZM158.13,214.24c-19.28,0-18.9-18.9-18.9-18.9h37.79s.38,18.9-18.89,18.9h0ZM207.27,214.24c-19.28,0-18.9-18.9-18.9-18.9h37.79s.39,18.9-18.89,18.9ZM256.41,214.24c-19.28,0-18.9-18.9-18.9-18.9h37.79s.39,18.9-18.89,18.9h0ZM305.55,214.24c-19.28,0-18.9-18.9-18.9-18.9h37.79s.39,18.9-18.89,18.9h0ZM354.69,214.24c-19.28,0-18.9-18.9-18.9-18.9h37.79s.39,18.9-18.89,18.9Z" style="fill: #679552; fill-rule: evenodd;"/>
  </g>
</svg>