<?xml version="1.0" encoding="UTF-8"?>
<svg id="_图层_1" data-name="图层_1" xmlns="http://www.w3.org/2000/svg" version="1.1" viewBox="0 0 512 512">
  <!-- Generator: Adobe Illustrator 29.5.1, SVG Export Plug-In . SVG Version: 2.1.0 Build 141)  -->
  <defs>
    <style>
      .st0, .st1 {
        fill: #fff;
      }

      .st1, .st2 {
        fill-rule: evenodd;
      }

      .st2 {
        fill: #679552;
      }
    </style>
  </defs>
  <g>
    <path class="st1" d="M117.84,394.16v-44.7h276.32v44.7l-52.83,24.38-85.33-40.63-85.33,40.63-52.83-24.38Z"/>
    <path class="st0" d="M154.41,296.63h203.17v36.57h-203.17v-36.57ZM235.68,260.06h40.63v20.32h-40.63v-20.32Z"/>
  </g>
  <g>
    <path class="st2" d="M20.32,426.48l69.08-28.26,81.27,40.63,85.33-40.63,85.33,40.63,81.27-40.63,69.08,29.22v64.24H20.32v-65.2Z"/>
    <path class="st2" d="M139.22,115.96l30.22-30.24h86.96l117.19,49.14v45.36h-234.37v-64.26ZM256.41,70.59h-86.96v-34.02h86.96l3.78,7.56h79.38v18.9h-79.38l-3.78,7.56ZM158.13,214.24c-19.28,0-18.9-18.9-18.9-18.9h37.79s.38,18.9-18.89,18.9ZM207.27,214.24c-19.28,0-18.9-18.9-18.9-18.9h37.79s.39,18.9-18.89,18.9ZM256.41,214.24c-19.28,0-18.9-18.9-18.9-18.9h37.79s.39,18.9-18.89,18.9ZM305.55,214.24c-19.28,0-18.9-18.9-18.9-18.9h37.79s.39,18.9-18.89,18.9h0ZM354.69,214.24c-19.28,0-18.9-18.9-18.9-18.9h37.79s.39,18.9-18.89,18.9Z"/>
  </g>
</svg>