<?xml version="1.0" encoding="UTF-8"?>
<svg id="a" data-name=" 图层 1" xmlns="http://www.w3.org/2000/svg" viewBox="0 0 512 512">
  <path d="M405.8,125.97c-16.36-24.22-37.38-44.94-61.83-60.95h147.71v60.95h-85.88ZM412.68,223.49v56.89h-209.54v-20.32h56.93l20.32-20.32h60.95l52.83-40.63-52.83-40.63h-60.95l-20.32-20.32h-56.92v-73.14h75.58s133.95-.13,133.95,158.48h0ZM388.63,300.7v65.02h-151.16v-65.02h151.16ZM416.1,381.97l44.66,65.02H158.48l44.66-65.02h212.97,0Z" style="fill: #679552; fill-rule: evenodd;"/>
  <circle cx="73.14" cy="97.52" r="36.57" style="fill: #fff;"/>
  <path d="M20.32,138.16v162.54h20.32v150.35h65.02v-150.35h20.32v-162.54H20.32Z" style="fill: #fff; fill-rule: evenodd;"/>
  <path d="M333.21,223.49h-65.02l-16.25,20.32h-93.46v-89.4h93.46l16.25,20.32h65.02l32.51,24.38-32.51,24.38h0Z" style="fill: #fff; fill-rule: evenodd;"/>
</svg>