<?xml version="1.0" encoding="UTF-8"?>
<svg id="a" data-name=" 图层 1" xmlns="http://www.w3.org/2000/svg" viewBox="0 0 512 512">
  <path d="M48.76,158.48l8.13,12.19,146.29-28.44,12.19,65.02,73.14-65.02,8.13,48.76,166.6-20.32v-12.19l-154.41,16.25-12.19-65.02-69.08,65.02-8.13-48.76-170.67,32.51h0Z" style="fill: #fff;"/>
  <path d="M487.62,325.08h-16.25l-12.19,12.19v16.25l-4.06,4.06h-8.13l-8.13-8.13h-28.44l-4.06,4.06h-4.06v-4.06h-8.13l-4.06,8.13h-4.06v-8.13h-8.13l-4.06,8.13h-4.06v-8.13h-8.13l-4.06,8.13h-4.06v-8.13h-24.38v44.7h-20.32v-44.7h-32.51v8.13h-16.25l-52.83,81.27h-16.25l-36.57-20.32v-16.25l16.25-20.32v-16.25l-4.06-8.13h-24.38v-8.13h-56.89l-40.63,44.7h-20.32l-4.06-4.06v-85.33h24.38v-4.06h77.21v4.06h12.19v-4.06h20.32l24.38-28.44h16.25l4.06-4.06h28.44l4.06,4.06h24.38l12.19,12.19v12.19h24.38l4.06,4.06h150.35l4.06-4.06h4.06l8.13,12.19h28.44v12.19l-4.06,4.06h-.01ZM178.79,422.6l4.06,4.06h16.25l24.38-32.51v-8.13h-28.44l-16.25,24.38v12.19h0ZM203.17,280.38h-16.25l-16.25,12.19v4.06h24.38l8.13-12.19v-4.06h-.01ZM211.3,365.71v12.19h20.32v-12.19h-20.32,0ZM268.19,300.7l-16.25-20.32h-24.38v8.13h16.25l16.25,16.25h8.13v-4.06Z" style="fill: #49adc9;"/>
</svg>