<?xml version="1.0" encoding="UTF-8"?>
<svg id="a" data-name=" 图层 1" xmlns="http://www.w3.org/2000/svg" viewBox="0 0 512 512">
  <path d="M365.71,134.1s-24.38-33.73-73.14-60.95h174.73v60.95h-101.59ZM373.84,231.62v56.89h-164.57c-3.43-11.84-12.59-21.16-24.38-24.79,12.6-4.88,26.41-15.03,26.41-35.76,1.05-17.11-9.93-32.65-26.41-37.38,12.6-4.88,26.41-15.03,26.41-35.76,0-43.07-48.76-41.04-48.76-41.04h-36.57v-40.63h89.4s158.48,0,158.48,158.48h0ZM210.49,308.83h134.91v65.02h-178.79v-32.51c10.57-1.22,39.01-6.5,43.89-32.51h-.01ZM377.9,390.1l52.83,65.02H73.14l52.83-65.02h251.94-.01Z" style="fill: #679552;"/>
  <path d="M36.57,272.25h85.33l-56.89,56.89h-28.44v-56.89ZM142.22,272.25l-52.83,56.89h81.27s28.44-5.28,28.44-28.44-24.38-28.44-24.38-28.44h-32.51,0Z" style="fill: #fff;"/>
  <path d="M36.57,199.11h85.33l-56.89,56.89h-28.44v-56.89ZM142.22,199.11l-52.83,56.89h81.27s28.44-5.28,28.44-28.44-24.38-28.44-24.38-28.44h-32.51,0Z" style="fill: #fff;"/>
  <path d="M36.57,125.97h85.33l-56.89,56.89h-28.44v-56.89ZM142.22,125.97l-52.83,56.89h81.27s28.44-5.28,28.44-28.44-24.38-28.44-24.38-28.44h-32.51,0Z" style="fill: #fff;"/>
</svg>