<?xml version="1.0" encoding="UTF-8"?>
<svg id="a" data-name=" 图层 1" xmlns="http://www.w3.org/2000/svg" viewBox="0 0 512 512">
  <path d="M109.71,333.21v-28.44h77.21v28.44h199.11v8.13h28.44v-8.13h8.13s12.19,5.28,12.19,12.19h40.63v-4.06h16.25v24.38h-16.25v-4.06h-40.63s-4.06,12.19-12.19,12.19h-8.13v-8.13h-28.44v8.13h-24.38l-8.13,8.13h-36.57s.81,6.5-8.13,16.25h-8.13v-16.25h-56.89v12.19h-8.13s-12.19,18.29-12.19,36.57c-8.17-1.06-15.53-5.48-20.32-12.19,0,0,2.44-17.07,12.19-24.38v-12.19h-28.44c-10.55,18.36-28.18,31.58-48.76,36.57,0,0,4.88-42.26-40.63-44.7-21.94-1.22-32.51,20.32-32.51,20.32h-8.13v-4.06H24.38v-24.38s-8.13,1.22-8.13-12.19c.43-8.38,5-16,12.19-20.32h81.27Z" style="fill: #49adc9;"/>
  <path d="M138.16,134.1h146.29l-89.4,89.4h-56.89v-89.4h0ZM308.83,134.1l-89.4,89.4h134.1s44.7-2.44,44.7-44.7-44.7-44.7-44.7-44.7h-44.7Z" style="fill: #fff;"/>
</svg>