<?xml version="1.0" encoding="UTF-8"?>
<svg id="a" data-name=" 图层 1" xmlns="http://www.w3.org/2000/svg" viewBox="0 0 512 512">
  <path d="M453.17,366.87h8.84v-23.79l-41.46-15.64h-143.42v-16.31h35.34v-4.08h114.2v2.72h31.26v-20.4h-29.9l-2.72,4.08h-112.84s.68-5.45-2.72-5.45h-74.77l-25.82-13.59H70.5l-9.52,8.83v42.82c-.09,0-8.16,0-8.16,1.36v27.18l10.87,6.8c1.36,2.72,7.48,2.49,8.16,1.36l50.29,59.81h278.68l52.33-55.73h0l.02.03ZM124.87,413.09l-31.26-38.06h19.03l23.11,27.18h252.85l25.83-27.18h19.03l-35.34,38.06H124.87Z" style="fill: #49adc9;"/>
  <path d="M48.76,150.35h95.34l7.33-7.31h25.67l22-10.97-22-10.97h-25.67l-7.33-7.31H48.76v36.57h0ZM48.76,101.59h95.34l7.33-7.31h25.67l22-10.97-22-10.97h-25.67l-7.33-7.31H48.76v36.57h0ZM322.59,90.9h-10.87v35.34h10.87v-35.34ZM453.1,93.62c-2.17-2.17-4.53-2.72-5.44-2.72h-116.91v35.35h116.91c.91,0,3.26-.54,5.44-2.72l14.95-14.95-14.95-14.95h0Z" style="fill: #fff;"/>
</svg>