<?xml version="1.0" encoding="UTF-8"?><svg id="a" xmlns="http://www.w3.org/2000/svg" viewBox="0 0 512 512"><path d="M329.14,418.54v16.25l24.38,24.38,4.06,4.06h-93.46l4.06-4.06,24.38-24.38v-32.51l24.38-28.44v-56.89h36.57v73.14l-24.38,28.44ZM300.7,353.52l-24.38,28.44h-40.63l-24.38-28.44v-52.83h-52.83v-65.02l16.25-16.25h32.51l20.32-16.25h56.89l20.32,16.25h32.51l16.25,16.25v65.02h-52.83v52.83ZM284.44,235.68h-56.89v48.76h56.89v-48.76ZM195.05,373.84l24.38,28.44v32.51l24.38,24.38,4.06,4.06h-93.46l4.06-4.06,24.38-24.38v-16.25l-24.38-28.44v-73.14h36.57v56.89Z" style="fill:#49adc9;"/><path d="M337.27,42.67l62.98-12.19,60.95,12.19v101.59l-60.95,36.36-62.98-36.36V42.67ZM32.51,77.21h73.14v56.89H32.51v-56.89ZM129.67,132.89c-4.7,1.4-9.68,1.59-14.47.53v-13.94h14.47v13.41ZM146.54,119.48c-2.17,3.78-5.15,7.04-8.74,9.52v-9.52h8.74ZM129.67,111.35h-14.47v-12.4h14.47v12.4ZM149.67,98.95c.44,2,.68,4.07.68,6.2,0,2.09-.23,4.17-.68,6.2h-11.87v-12.4h11.87ZM121.4,76.21c2.87,0,5.65.42,8.27,1.2v13.41h-14.47v-13.94c2.04-.45,4.12-.67,6.2-.67M137.8,81.31c3.59,2.48,6.57,5.74,8.74,9.52h-8.74v-9.52Z" style="fill:#fff;"/></svg>