<?xml version="1.0" encoding="UTF-8"?><svg id="a" xmlns="http://www.w3.org/2000/svg" viewBox="0 0 512 512"><path d="M337.49,123.7h-29.12l-7.26,7.28h-123.77v-40.04h123.77l7.28,7.28h29.12l23.66,12.74-23.67,12.74ZM146.39,90.94h16.38v40.04h-16.38v-40.04ZM337.49,176.48h-29.12l-7.26,7.28h-123.77v-40.04h123.77l7.28,7.28h29.12l23.66,12.74-23.67,12.74ZM146.39,143.72h16.38v40.04h-16.38v-40.04ZM337.49,229.25h-29.12l-7.26,7.28h-123.77v-40.04h123.77l7.28,7.28h29.12l23.66,12.74-23.67,12.74ZM146.39,196.49h16.38v40.04h-16.38v-40.04Z" style="fill:#fff; fill-rule:evenodd;"/><path d="M194.6,431.16c9.71,4.57,9.71-9.13,6.29-10.28-2.74-.91-1.15-4.95,0-6.86l18.28-26.84h27.98c7.31,0,10.66-7.61,11.43-11.42h52.54v9.71c10.51,0,13.9-6.48,14.28-9.71h106.24l4-6.28h5.71c2.74-2.74,3.43-9.14,3.43-12h-6.28v-14.28h12.56v-5.14h-3.43v-51.4h3.43v-3.43h-17.7l-4-2.86h-14.85v2.86h-21.7v-2.85h-129.09c-2.74,3.2-8.37,3.24-10.85,2.86l-2.86,15.99-15.42,1.14-33.7,18.28h-101.1c-6.85,0-11.23,4.57-12.56,6.86h-6.86v-2.86h-14.85v6.28h-1.71v4l1.71,1.14v15.42l2.29,1.71v2.86c-.76.19-2.29,1.14-2.29,3.43s1.52,2.86,2.29,2.86v2.28c-1.34.38-4,1.71-4,4s2.28,3.23,3.43,3.43v2.86c-1.14.19-3.43,1.02-3.43,2.85s1.14,2.67,1.71,2.86v1.71c-2.85,0-3.43,1.71-3.43,3.99,0,1.83,1.15,2.29,1.71,2.29v1.71c-.95,0-2.86.46-2.86,2.28s1.91,2.29,2.86,2.29h15.42v-2.86h5.14v2.86h26.27l14.28-19.98h60.55c8.22,0,6.47,6.47,4.57,9.7l-19.42,31.41v6.86c4.76,1.91,16.22,6.62,23.99,10.28M98.08,383.76v-27.99h23.99v9.14h-6.28l-13.13,18.85h-4.57ZM132.92,364.91v-9.14h12.57v9.14h-12.57ZM153.48,364.91v-9.14h10.85v9.14h-10.85ZM234.59,383.5c-1.52.09-4.57-.65-4.57-4.31s3.05-4.57,4.57-4.57h12.56v8.88h-12.56Z" style="fill:#49adc9;"/></svg>