<?xml version="1.0" encoding="UTF-8"?>
<svg id="a" data-name="图层 1" xmlns="http://www.w3.org/2000/svg" viewBox="0 0 512 512">
  <path d="M321.02,166.6h36.57v40.63h-36.57v-40.63Z" style="fill: #49adc9;"/>
  <path d="M304.76,166.6h-48.76l-36.57-36.57v93.46h65.02v174.73h138.16l36.57-36.57v-231.62l-36.57,36.57h-48.76v56.89h-69.08v-56.89Z" style="fill: #49adc9; fill-rule: evenodd;"/>
  <path d="M219.43,109.71l44.7,40.63h150.35l44.7-40.63v-44.7h-239.75v44.7Z" style="fill: #49adc9; fill-rule: evenodd;"/>
  <path d="M195.05,239.75h73.14v24.38h-73.14v-24.38Z" style="fill: #fff;"/>
  <path d="M195.05,434.79h73.14v24.38h-73.14v-24.38Z" style="fill: #fff;"/>
  <path d="M195.05,296.63h73.14v105.65h-73.14v-105.65Z" style="fill: #fff;"/>
  <path d="M105.65,239.75h73.14v24.38h-73.14v-24.38Z" style="fill: #fff;"/>
  <path d="M105.65,434.79h73.14v24.38h-73.14v-24.38Z" style="fill: #fff;"/>
  <path d="M105.65,296.63h73.14v105.65h-73.14v-105.65Z" style="fill: #fff;"/>
  <path d="M65.02,223.49H20.32l40.63-20.32-20.32-36.57,40.63,8.13,4.06-44.7,28.44,36.57,32.51-36.57v44.7l48.76-12.19-24.38,40.63,40.63,20.32h-44.7l-20.32-12.19,8.13-20.32-20.32,4.06v-24.38l-20.32,20.32-12.19-16.25-4.06,20.32-20.32-4.06,8.13,20.32-20.32,12.19Z" style="fill: #fff; fill-rule: evenodd;"/>
</svg>