<?xml version="1.0" encoding="UTF-8"?>
<svg id="a" data-name="图层 1" xmlns="http://www.w3.org/2000/svg" viewBox="0 0 512 512">
  <path d="M317.93,133.95l-4.64,34.68,110.96-34.67,4.64-32.37-110.96,32.37Z" style="fill: #fff;"/>
  <path d="M354.92,307.33l18.49,25.43,113.27-32.37-23.45-24.08-108.32,31.01Z" style="fill: #fff;"/>
  <path d="M458.94,161.69l-30.05,9.25-4.62-18.49-191.87,55.48-9.24,62.42,41.61,43.92,189.56-53.17-2.31-18.51,27.74-9.25-20.81-71.65Z" style="fill: #fff;"/>
  <path d="M208.42,235.5l-181.77,52.26,11.38,11.38h6.81l38.62-13.63,4.54,13.63-27.27,6.81,4.54,18.18,29.54-9.09,2.27,13.63-45.44,11.38-4.54,18.18,181.77-52.26-27.27-27.27,6.81-43.2Z" style="fill: #fff;"/>
  <path d="M16.25,495.75v-81.27l81.27,81.27H16.25ZM495.75,495.75v-81.27l-81.27,81.27h81.27ZM495.75,16.25v81.27l-81.27-81.27h81.27ZM16.25,16.25v81.27L97.52,16.25H16.25Z" style="fill: #c9b269;"/>
</svg>