<?xml version="1.0" encoding="UTF-8"?>
<svg id="_图层_1" data-name="图层_1" xmlns="http://www.w3.org/2000/svg" version="1.1" viewBox="0 0 512 512">
  <!-- Generator: Adobe Illustrator 29.5.1, SVG Export Plug-In . SVG Version: 2.1.0 Build 141)  -->
  <defs>
    <style>
      .st0 {
        fill: #fff;
      }

      .st0, .st1 {
        fill-rule: evenodd;
      }

      .st1 {
        fill: #49adc9;
      }
    </style>
  </defs>
  <path class="st0" d="M97.52,105.65h60.95l-60.95-52.83v52.83ZM97.52,215.37h60.95l-60.95,52.83v-52.83ZM394.16,199.11H97.52v-28.44h162.54v-20.32H97.52v-28.44h296.63s36.57,4.19,36.57,40.63-36.57,36.57-36.57,36.57Z"/>
  <path class="st1" d="M459.17,353.52v28.44l-24.38,16.25h-16.25l-8.13,4.06h-16.25v28.44s-11.35,9.02-20.32,0v-28.44h-8.13s1.47,12.16-8.13,12.19h-12.19s-27.46,24.79-20.32,40.63c.91,1.2.91,2.86,0,4.06-1.32.42-2.74.42-4.06,0-2.94-1.59-15.37-8.94-16.25-16.25h-36.57l-8.13,4.06h-16.25v16.25s1.76,12.19-20.32,12.19c-7.45-.22-13.95-5.1-16.25-12.19,1.21-9.44,1.21-19,0-28.44-1.96-12.57-11.81-22.42-24.38-24.38h-32.51s-8.13-1.22-8.13-8.13,4.06-8.13,4.06-8.13v-4.06H56.89v-77.21h138.16l24.38-8.13h150.35l4.06,8.13h73.14l8.13,8.13h4.06v24.38h-4.06v8.13h4.06ZM316.95,406.35h-40.63v28.44h24.38l16.25-20.32v-8.13ZM349.46,402.29c-.61,1.87,0,8.06,4.06,8.13,2.03.03,6.6,1.76,8.13-4.06.58-1.29.58-2.77,0-4.06-1.82-2.95-9.71-7.66-12.19,0Z"/>
</svg>