<?xml version="1.0" encoding="UTF-8"?>
<svg id="a" data-name=" 图层 1" xmlns="http://www.w3.org/2000/svg" viewBox="0 0 512 512">
  <path d="M36.57,189.9l28.18,29.53h159l28.18-29.53h-28.18v-27.55l-28.18,23.62-2.01-47.24-34.22,31.49-15.1-76.76-15.1,76.76-36.23-31.49v47.24l-28.18-23.62v27.55h-28.18.02Z" style="fill: #fff;"/>
  <path d="M330.37,156.46l108.49-111.77c-1.47,27.66-13.21,53.77-32.91,73.23-19.24,18.76-38.62,37.39-58.12,55.89l-17.46-17.35h0ZM301.32,183.45l-13.56-13.49v-3.86l15.5-15.41h3.87l44.56,46.24v3.86l-15.49,15.41h-3.88l-13.56-13.47-29.06,28.89-17.43-19.27,29.06-28.91h-.01ZM449.76,183.24l13.88-13.54v-3.87l-15.86-15.48h-3.96l-45.59,46.43v3.87l15.86,15.48h3.97l13.88-13.52,29.73,29.02,17.84-19.34-29.73-29.04h-.02Z" style="fill: #fff; fill-rule: evenodd;"/>
  <path d="M401.55,174.73s-6.58-6.44-17.35-17.09l17.65-18.15,16.68,17.77-16.99,17.46h.01ZM357.36,130.91l18.54-19.07,16.38,17.45-18.52,17.99c-5.48-5.44-10.95-10.89-16.4-16.36h0ZM347.02,120.53l-2.07-2.09c-19.22-19.64-30.64-45.93-32.06-73.74l53.52,57.01-19.39,18.82h0Z" style="fill: #fff; fill-rule: evenodd;"/>
  <path d="M75.15,316.13c-1.61,0-2.01,1.34-2.01,2v24.03c0,1.6,1.34,2,2.01,2h90.38c1.61,0,2.01-1.34,2.01-2h176.74c7.23,4.8,15.06,7.34,18.07,8.01h14.06v34.04h8.03c0-4.01,3.34-10.37,13.78-10.37,13.6,0,16.35,6.36,16.35,10.36h8.03v-122.13c0-1.6-1.34-2-2.01-2h-42.18c-1.61,0-2.01,1.34-2.01,2v46.05h-14.06c-6.42,1.6-14.73,7.34-18.07,10.01h-176.74c0-1.6-1.34-2-2.01-2h-90.38.01Z" style="fill: #49adc9;"/>
  <path d="M390.47,384.2c0-4.8,5.08-6,7.75-6h2.29c6.43,0,8.03,4,8.03,6.01h-18.07ZM376.41,394.22v-4.12h46.19v4.12c0,3.21-2.68,4.01-4.02,4.01h-38.16c-3.21,0-4.02-2.67-4.02-4.01h0Z" style="fill: #49adc9;"/>
</svg>