<?xml version="1.0" encoding="UTF-8"?>
<svg xmlns="http://www.w3.org/2000/svg" viewBox="0 0 512 512">
  <path d="M264,390.08v1.92h-8v8h-10.14c-2.86,4.95-8.14,8-13.86,8h-56c-8.83,0-16-7.16-16-16v-8c0-2.91.78-5.64,2.14-8h-26.14l-4-8h-12l-8,16h-56l-14-8h-8.44c-.92,0-1.72-.62-1.94-1.51l-7.14-28.55c-.27-1.07.37-2.15,1.44-2.42,0,0,.01,0,.02,0l4.96-1.24c.68-.17,1.4.03,1.9.53l1.2,1.2,13.2-6.6c1.85-.93,3.86-1.49,5.92-1.65l22.88-1.76,12-8v-6h24v-8l16-8h32v16h8v-24h8v24h8v-8h24.26l9.24-16,13.86,8-9.24,16h9.88v8h8v-16l32-16h8v24h-8v-16l-22,14v10h182v-8h48v48h8v-8h8v16l-16,16h-8v-8l-8-8h-32v-.72c-5.43,2.38-17.96,6.8-36,6.8-32,0-36-8-68-8v1.91h-32v-1.91c-8.96,0-11.65,3.58-14.34,7.16-3.31,4.42-6.62,8.83-17.66,8.83M432,370.69v-2.69h-104v1.91c32,0,36,8,68,8,19.72,0,32.51-5.51,36-7.23M296,369.92v-1.91h-62v.12c4.97.63,9.36,3.54,11.86,7.88h10.14v8h8v1.92c8.96,0,11.65-3.58,14.33-7.17,3.31-4.42,6.62-8.83,17.67-8.83M400,352h32v-8h-32v8ZM240,344h-8v8h8v-8ZM250,352h22v-8h-22v8ZM280,352h112v-8h-112v8ZM88,351.14v-5.14l-50,12v10l18,8h48l6-16h-6l-8-8-35.33,6.73c-3.87.74-6.67,4.12-6.67,8.06v1.21h-2v-1.73c0-4.8,3.41-8.92,8.13-9.82l27.87-5.31Z" style="fill: #49adc9;"/>
  <path d="M238,262l-44-44v-44l36-36v-56l50,50v54l16-40,20,66-50,50v-30l14-14-22-22v-28l-42,42,22,22v30Z" style="fill: #fff;"/>
</svg>