<?xml version="1.0" encoding="UTF-8"?>
<svg id="_图层_1" data-name="图层_1" xmlns="http://www.w3.org/2000/svg" version="1.1" viewBox="0 0 512 512">
  <!-- Generator: Adobe Illustrator 29.5.1, SVG Export Plug-In . SVG Version: 2.1.0 Build 141)  -->
  <defs>
    <style>
      .st0 {
        fill: #fff;
      }

      .st0, .st1 {
        fill-rule: evenodd;
      }

      .st1 {
        fill: #c9b269;
      }
    </style>
  </defs>
  <path class="st1" d="M16.25,495.75v-81.27l81.27,81.27H16.25ZM495.75,495.75v-81.27l-81.27,81.27h81.27ZM495.75,16.25v81.27l-81.27-81.27h81.27ZM16.25,16.25v81.27L97.52,16.25H16.25Z"/>
  <path class="st0" d="M379.35,306.69v80.74l-34.6,32.29h-175.3l-34.62-32.29v-80.74l20.76-27.68v-69.21l-20.76-27.68v-57.67h39.22v20.76h-18.46v32.3l18.45,25.38v83.04l-18.45,27.68v64.61l23.07,23.07h156.85l23.07-23.07v-64.61l-18.46-27.68v-83.05l18.45-25.38v-32.29h-18.45v-20.76h39.22v57.67l-20.76,27.68v69.21l20.78,27.68ZM303.22,382.81h-92.27v-27.66l-18.45-18.45h129.18l-18.46,18.45v27.68-.02ZM298.61,219.02l23.07-18.45v117.65h-23.07v-99.2ZM192.5,318.22v-117.65l23.07,18.45v99.2s-23.07,0-23.07,0ZM289.38,318.22h-64.59v-103.81l-32.3-25.38v-64.61h129.18v64.61l-32.3,25.38v103.81h0ZM210.96,106l16.15-18.45h59.98l16.15,18.45h-92.28,0Z"/>
</svg>