<?xml version="1.0" encoding="UTF-8"?>
<svg id="a" data-name=" 图层 1" xmlns="http://www.w3.org/2000/svg" viewBox="0 0 512 512">
  <path d="M482.74,339.81v1.89l-3.78,3.78v7.56h-5.67c-2.65,1.55-4.13,4.51-3.78,7.56-1.9-.4-3.38-1.88-3.78-3.78-2.08-.21-4.15.48-5.69,1.89h-3.78c-2.47.01-4.7,1.5-5.67,3.78-1.77-1.49-3.08-3.46-3.78-5.67-1.87.45-3.33,1.91-3.78,3.78-1.04,0-1.89-.84-1.89-1.88h0c-2.65-.95-5.6-.22-7.51,1.84.16-.16.58-.81-1.93-1.85-1.69.74-3.04,2.09-3.78,3.78-2.29-.95-3.78-3.19-3.78-5.67h-1.89s-3.59,3.08-1.89,5.67c-2.93-.43-5.24-2.74-5.67-5.67l-1.89,1.89-1.89,1.89-3.78-3.78c-1.69-.39-3.39.66-3.78,2.36-.11.47-.11.95,0,1.42,0,0-4.49-1.57-3.78-3.78h-1.87c-.69,1.83-.69,3.84,0,5.67-1.88-.42-3.36-1.89-3.78-3.78v-.32l-.03-.34v-.16l-.03-.27v-.19.19l.03.27v.83h-3.78l-1.89,1.89h-3.78v-1.91h-3.75v3.78c-2.34-.4-4.4-1.77-5.67-3.78h-5.67l-3.78-1.89-1.89,3.78-3.78-1.89h-3.78v3.78l-3.78-3.78h-1.89l-3.78,1.89h-1.89v-1.89h-1.89l-3.78,1.89-1.89-1.89h-3.78v1.89h-5.67l-1.91-1.89-13.23,3.78-1.89-3.78h-9.43l-1.89,3.78h-3.78v-3.78h-3.78v3.78h-3.8l-3.78-3.78h-5.69l-3.78,3.78h-3.74v-3.78h-3.78v3.78l-5.69-3.78h-7.56l-1.89,3.78h-3.76l-1.89-3.78h-1.89v3.78s-6.64-1.27-7.56-3.78l-3.78,3.78-1.89-3.78h-3.78l-1.89,3.78h-3.78v-5.67h-1.89v3.78h-3.78l-1.89-1.89-3.78,3.78h-3.78v-5.67h-3.78v3.78h-1.89l-3.78-1.89h-7.56v3.78h-7.56l-3.78-3.78h-7.56s-3.61,1.52,0,3.78,7.57,5.76,1.89,5.69c-11.12-.18-9.45-5.69-9.45-5.69h-5.69v1.89h-3.76v1.89c-1,3.08-2.99,5.74-5.65,7.58-3.39,1.27-35.9,11.34-35.9,11.34h-3.78l-3.78-3.78s-.33-1.8-3.78,0-35.9,9.45-35.9,9.45c0,0-28.01,3.95-30.23-11.34s-3.78-24.56-3.78-24.56l-1.91-1.91v-7.56s22.57-11.28,35.9-13.23l3.78-3.78,11.34-3.78v-3.78l3.78-1.89v-3.78l9.45-1.89-7.56-7.56v-3.78l15.12-13.23h3.78l5.69,3.78h11.34v-5.69h13.23l1.87,5.69s14.25.81,17.01,3.78,11.34,13.23,11.34,13.23h11.34v-7.56h17.01v1.89h3.78l18.9-13.23,1.89-1.89h37.79v1.89h32.1s10.57,5.01,11.34,13.23c4.53,1.97,7.48,6.4,7.56,11.34h-3.78v3.78l.13,1.89h1.78v1.89h1.89v-1.89h1.89l1.89,3.78h1.89s2.28-6.6,5.67-7.56c0,0,.13,6.6,1.89,7.56h1.89l1.89-3.78h3.78v3.78h1.89c.85-3.16,2.89-5.87,5.69-7.56.03,2.63.68,5.22,1.89,7.56h1.87s1.17-6.38,3.78-7.56l1.89,5.67h1.89v-1.89h1.89v-1.89l3.78,1.89v3.78h1.89s1.22-6.66,3.78-7.56c0,0,2.37,7.14,3.78,7.56l.37.11.22.07-.22-.07-.37-.11c.86-2.46,1.49-4.99,1.89-7.56.18-2.56,3.78,5.67,3.78,5.67h3.78v-1.89h3.78v1.89h1.89c1.09-2.55,3.12-4.58,5.67-5.67,0,0-1.22,5.05,0,5.67h5.69v-1.89h3.78v1.89h3.78v-5.67c2.95,2.05,5.51,4.61,7.56,7.56,0,0,1.24-7.15,3.78-7.56.19,2.01.84,3.95,1.89,5.67h1.89v-1.89h3.78l5.67-3.78,5.69,7.56h1.89c1.56-1.68,2.84-3.6,3.78-5.69l1.89,3.78h1.89v-1.87l3.78,1.89v1.89s5.9-1.16,5.67-5.69c0,0,2.67.5,3.78,5.69,1.9-2.14,3.21-4.75,3.78-7.56,2.34,1.81,3.73,4.6,3.78,7.56h1.89v-1.89l1.89-1.89,3.78-1.89v3.78h3.78l1.89-1.89h3.78v5.69h1.89v1.89c1.8.86,3.89.86,5.69,0v3.78l-1.89,1.89v3.78l3.72,1.87h-.01ZM433.66,360.53l-.04.04.04-.04ZM343.39,316.93l.3-.14-.3.14ZM342.92,317.14l.47-.21-.47.21ZM114.29,362.48l-60.46,17.01s-8.13,3.21-7.56-18.9c.14-4.4,3.13-8.21,7.37-9.39l.18-.06c7.72-2.44,7.56-1.89,7.56-1.89,0,0-7.52,9.42,0,9.45s26.45-7.56,26.45-7.56c2.41-.65,4.9.78,5.55,3.19.05.19.09.39.12.59.58,2.56,7.56,1.89,7.56,1.89,0,0,8.59-1.3,7.56-7.56,0,0,16.04,2.44,5.67,13.23M108.62,294.46h-1.89l-3.78,3.78v1.89h1.89l3.78-3.78v-1.89ZM271.12,315.25h-24.56v-1.89h-7.56v1.89h-17.01l-3.78-7.56v-5.67l3.78-3.78h18.9v1.89h7.56v-1.87h18.9l5.67,5.67v9.45l-1.89,1.87h-.01ZM99.17,303.91h-1.89l-3.78,3.78v1.89h1.89l3.78-3.78v-1.89Z" style="fill: #49adc9; fill-rule: evenodd;"/>
  <path d="M212.54,177.31l105.81-109.59c-1.42,27.09-12.87,52.68-32.1,71.8-32.16,31.5-56.69,54.8-56.69,54.8l-17.03-17.01h.01ZM184.2,203.77l-13.23-13.23v-3.78l15.12-15.12h3.78l43.46,45.34v3.78l-15.12,15.12h-3.78l-13.23-13.21-28.34,28.33-17.01-18.9,28.34-28.34h0Z" style="fill: #fff; fill-rule: evenodd;"/>
  <path d="M327.8,203.77l13.23-13.23v-3.78l-15.12-15.12h-3.78l-43.46,45.34v3.78l15.12,15.12h3.78l13.23-13.21,28.34,28.34,17.01-18.9-28.34-28.36v.02Z" style="fill: #fff; fill-rule: evenodd;"/>
  <path d="M282.45,194.32s-6.6-6.27-17.38-16.64l17.67-17.67,16.71,17.3-17.01,17.01h.01ZM238.2,151.65l18.57-18.57,16.4,16.99-18.55,17.51c-5.49-5.3-10.96-10.61-16.42-15.93h0ZM227.84,141.55l-2.08-2.03c-19.24-19.12-30.68-44.71-32.1-71.8l53.59,55.51-19.42,18.33h0Z" style="fill: #fff; fill-rule: evenodd;"/>
</svg>