<?xml version="1.0" encoding="UTF-8"?>
<svg id="_图层_1" data-name="图层_1" xmlns="http://www.w3.org/2000/svg" version="1.1" viewBox="0 0 512 512">
  <!-- Generator: Adobe Illustrator 29.5.1, SVG Export Plug-In . SVG Version: 2.1.0 Build 141)  -->
  <defs>
    <style>
      .st0 {
        fill: #fff;
      }

      .st0, .st1 {
        fill-rule: evenodd;
      }

      .st1 {
        fill: #49adc9;
      }
    </style>
  </defs>
  <path class="st1" d="M422.6,398.22h-150.35v-190.98l-52.83-12.19v-65.02l36.57,36.57h48.76v56.89h69.08v-56.89h48.76l36.57-36.57v231.62l-36.57,36.57ZM321.02,207.24v-40.63h36.57v40.63h-36.57ZM264.13,150.35l-44.7-40.63v-44.7h239.75v44.7l-44.7,40.63h-150.35Z"/>
  <path class="st0" d="M150.35,455.11l-105.65-65.02v-170.67l105.65-24.38,105.65,24.38v170.67l-105.65,65.02ZM134.1,402.29l48.76-69.08h-32.51l12.19-48.76-48.76,65.02h36.57l-16.25,52.83ZM219.43,247.87l-12.19,12.19s-14.11-20.32-56.89-20.32-56.89,20.32-56.89,20.32l-12.19-12.19v36.57h32.51l-8.13-12.19c16.22-17.18,44.7-16.25,44.7-16.25,0,0,28.48-.93,44.7,16.25l-8.13,12.19h32.51v-36.57Z"/>
</svg>