<?xml version="1.0" encoding="UTF-8"?>
<svg id="a" data-name=" 图层 1" xmlns="http://www.w3.org/2000/svg" viewBox="0 0 512 512">
  <g>
    <path d="M36.57,190.98l117.84-32.51,36.57-117.84,28.44,28.44v154.41H65.02l-28.44-32.51h0Z" style="fill: #de7b6c;"/>
    <path d="M333.21,101.59v16.25l-34.13-30.07,17.88-47.14,69.08,40.63v69.89l-52.83-49.57h0ZM304.76,251.94l32.51,4.06,48.76,48.76v32.51l69.08,69.08,4.06,56.89-60.95-8.13-65.02-69.08h-25.6l-51.61-48.76v-32.51l-52.83-47.14,36.57-13.82,15.85-41.04,49.17,49.17h0ZM77.21,386.03l-40.63-65.02,52.42-19.91,32.91,36.17h-16.25l45.92,48.76h-74.37Z" style="fill: #de7b6c;"/>
  </g>
  <path d="M203.17,280.38v69.08h-69.08l32.51,32.51h32.51l44.7,48.76h44.7v-40.63l-48.76-44.7v-32.51l-36.57-32.51h0Z" style="fill: #fff;"/>
  <path d="M174.73,325.08l-24.38-24.38h-36.57l20.32,24.38h40.63ZM154.41,256v36.57l24.38,24.38v-40.63l-24.38-20.32ZM256,154.41l24.38,28.44h36.57l-24.38-28.44h-36.57ZM300.7,150.35l24.38,24.38v-40.63l-24.38-20.32v36.57Z" style="fill: #fff;"/>
  <path d="M280.38,203.17h69.08v-65.02l32.51,32.51v28.44l48.76,48.76v40.63h-40.63l-44.7-48.76h-32.51l-32.51-36.57h0Z" style="fill: #fff;"/>
</svg>