<?xml version="1.0" encoding="UTF-8"?>
<svg id="a" data-name=" 图层 1" xmlns="http://www.w3.org/2000/svg" viewBox="0 0 512 512">
  <g>
    <path d="M36.57,190.98l117.84-32.51,36.57-117.84,28.44,28.44v154.41H65.02l-28.44-32.51h0Z" style="fill: #de7b6c;"/>
    <path d="M459.17,463.24l-60.95-8.13-65.02-69.08H77.21l-40.63-65.02,203.17-77.21,77.21-203.17,69.08,40.63v256l69.08,69.08,4.06,56.89h0ZM138.16,337.27l-8.13,24.38,16.25,20.32,12.19,4.06h125.97l-36.57-40.63h-28.44v-24.38l-16.25-20.32h-32.51v36.57h-32.51ZM386.03,146.29l-16.25-16.25h-32.51v36.57h-28.44l-8.13,24.38,24.38,24.38h24.38v20.32l36.57,44.7v-134.1h0Z" style="fill: #de7b6c;"/>
  </g>
  <path d="M146.29,349.46h36.57v-36.57h12.19l12.19,12.19v32.51h32.51l28.44,32.51v44.7h-48.76l-28.44-32.51v-28.44h-32.51l-12.19-12.19v-12.19h0ZM349.46,178.79v-36.57h16.25l12.19,16.25v28.44h28.44l32.51,32.51v48.76h-48.76l-28.44-36.57v-28.44h-32.51l-12.19-12.19v-12.19h32.51Z" style="fill: #fff;"/>
</svg>