<?xml version="1.0" encoding="UTF-8"?>
<svg id="a" data-name=" 图层 1" xmlns="http://www.w3.org/2000/svg" viewBox="0 0 512 512">
  <g>
    <path d="M178.79,81.27l12.19-40.63,28.44,28.44v52.83l-40.63-40.63h0ZM125.97,223.49h-60.95l-28.44-32.51,46.73-13,42.67,45.51h0Z" style="fill: #de7b6c;"/>
    <path d="M398.22,455.11l-65.02-69.08H77.21l-40.63-65.02,135.31-51.61,84.11,84.11h97.52v-97.52l-85.74-85.74,49.17-129.63,69.08,40.63v256l69.08,69.08,4.06,56.89-60.95-8.13v.02Z" style="fill: #de7b6c;"/>
  </g>
  <path d="M186.92,223.49v40.63l77.21,73.14h73.14v-77.21l-73.14-73.14h-44.7v-44.7l-48.76-44.7-12.19,56.89-56.89,20.32,44.7,48.76h40.63,0Z" style="fill: #fff;"/>
</svg>