<?xml version="1.0" encoding="UTF-8"?>
<svg id="a" data-name=" 图层 1" xmlns="http://www.w3.org/2000/svg" viewBox="0 0 512 512">
  <g>
    <path d="M36.57,190.98l117.84-32.51,36.57-117.84,28.44,28.44v154.41H65.02l-28.44-32.51h0Z" style="fill: #de7b6c;"/>
    <path d="M308.01,63.8l8.94-23.16,69.08,40.63v58.92l-78.02-76.39h0ZM269,167.42l117.03,117.03v52.83l69.08,69.08,4.06,56.89-60.95-8.13-65.02-69.08h-44.7l-116.62-116.62,67.86-25.6,29.26-76.39h0ZM36.57,321.02l29.26-11.38,76.39,76.39h-65.02l-40.63-65.02h0Z" style="fill: #de7b6c;"/>
  </g>
  <path d="M56.89,280.38l20.32-20.32,60.95,60.95-20.32,20.32s-60.95-60.95-60.95-60.95Z" style="fill: #fff;"/>
  <path d="M121.9,345.4l20.32-20.32,60.95,60.95-20.32,20.32s-60.95-60.95-60.95-60.95Z" style="fill: #fff;"/>
  <path d="M134.1,296.63l20.32-20.32,60.95,60.95-20.32,20.32-60.95-60.95h0Z" style="fill: #fff;"/>
  <path d="M199.11,361.65l20.32-20.32,60.95,60.95-20.32,20.32-60.95-60.95Z" style="fill: #fff;"/>
  <path d="M260.06,77.21l20.32-20.32,60.95,60.95-20.32,20.32s-60.95-60.95-60.95-60.95Z" style="fill: #fff;"/>
  <path d="M325.08,142.22l20.32-20.32,60.95,60.95-20.32,20.32-60.95-60.95h0Z" style="fill: #fff;"/>
  <path d="M276.32,154.41l20.32-20.32,60.95,60.95-20.32,20.32-60.95-60.95h0Z" style="fill: #fff;"/>
  <path d="M341.33,219.43l20.32-20.32,60.95,60.95-20.32,20.32-60.95-60.95h0Z" style="fill: #fff;"/>
</svg>