<?xml version="1.0" encoding="UTF-8"?>
<svg id="_图层_1" data-name="图层_1" xmlns="http://www.w3.org/2000/svg" version="1.1" viewBox="0 0 512 512">
  <!-- Generator: Adobe Illustrator 29.5.1, SVG Export Plug-In . SVG Version: 2.1.0 Build 141)  -->
  <defs>
    <style>
      .st0, .st1 {
        fill: #fff;
      }

      .st1, .st2 {
        fill-rule: evenodd;
      }

      .st2 {
        fill: #de7b6c;
      }
    </style>
  </defs>
  <path class="st2" d="M36.57,190.98l117.84-32.51,36.57-117.84,28.44,28.44v154.41H65.02l-28.44-32.51ZM398.22,455.11l-65.02-69.08h-36.68c-1.08-22.74-19.83-40.62-42.59-40.63l-1.17.06c-.28,0-.55-.04-.81-.04-12.8-.03-24.85,6-32.51,16.25-8.01-10.91-21.99-16.25-36.57-16.25-5.41-.56-10.88.07-16.02,1.82-8.76,2.73-16.34,8.35-21.51,15.94-8.43-11.2-21.64-17.78-35.65-17.77l-2.53.13-1.51-.13c-16.67.01-31.65,10.21-37.77,25.71l-31.31-50.09,203.17-77.21,77.21-203.17,45.92,27c-23.24,8.25-35.4,33.77-27.15,57.02,3.44,9.71,10.14,17.92,18.94,23.26-20.45,11.64-27.58,37.66-15.94,58.1,3.16,5.55,7.52,10.31,12.77,13.94-19.95,14.5-24.37,42.43-9.86,62.38,10.15,13.96,27.44,20.82,44.4,17.63v37.31l69.08,69.08,4.06,56.89-60.95-8.13Z"/>
  <g>
    <path class="st1" d="M107.65,357.64c16.82,0,30.45,13.63,30.45,30.45s-13.63,30.45-30.45,30.45-30.45-13.63-30.45-30.45c0-16.82,13.63-30.45,30.45-30.45ZM180.84,357.64c16.82,0,30.45,13.63,30.45,30.45s-13.63,30.45-30.45,30.45-30.45-13.63-30.45-30.45c0-16.81,13.62-30.44,30.44-30.45h.01ZM253.98,357.64c16.82.03,30.42,13.69,30.39,30.51-.03,16.82-13.69,30.42-30.51,30.39-16.79-.03-30.39-13.66-30.39-30.45.02-16.83,13.67-30.46,30.5-30.45h.01Z"/>
    <circle class="st0" cx="375.87" cy="258.03" r="30.48"/>
    <circle class="st0" cx="375.87" cy="184.89" r="30.48"/>
    <circle class="st0" cx="375.87" cy="111.75" r="30.48"/>
  </g>
</svg>