<?xml version="1.0" encoding="UTF-8"?>
<svg id="a" data-name=" 图层 1" xmlns="http://www.w3.org/2000/svg" viewBox="0 0 512 512">
  <path d="M36.57,190.98l117.84-32.51,36.57-117.84,28.44,28.44v154.41H65.02l-28.44-32.51h0Z" style="fill: #c9b269;"/>
  <path d="M362.87,199.52c-36.01-14-76.45-10.71-109.71,8.94l63.8-167.82,69.08,40.63v83.3l-23.16,34.95h0ZM77.21,386.03l-40.63-65.02,169.85-64.61c-22.33,40.86-20.3,90.72,5.28,129.63H77.21ZM426.67,377.9l28.44,28.44,4.06,56.89-60.95-8.13-24.38-26.01c22.24-11.34,40.62-29.02,52.83-50.79v-.41h0Z" style="fill: #c9b269;"/>
  <path d="M402.29,312.89h24.38s-2.03,113.78-109.71,113.78-109.71-109.71-109.71-109.71c0,0-4.06-108.9,109.71-109.71,0,0,30.88-2.44,52.83,12.19l20.32-28.44,36.57,81.27h-85.33l16.25-28.44s-61.77-36.57-105.65,20.32-4.06,112.15,24.38,125.97,107.68,34.54,125.97-77.21v-.02Z" style="fill: #fff;"/>
  <path d="M308.83,284.44l70.3,2.84c16.59,34.36,2.18,75.66-32.18,92.24-34.36,16.59-75.66,2.18-92.24-32.18s-2.18-75.66,32.18-92.24c15.06-7.27,32.24-8.83,48.36-4.4l-26.41,33.73h-.01Z" style="fill: #c9b269;"/>
</svg>