<?xml version="1.0" encoding="UTF-8"?>
<svg id="_图层_1" data-name="图层_1" xmlns="http://www.w3.org/2000/svg" version="1.1" viewBox="0 0 512 512">
  <!-- Generator: Adobe Illustrator 29.5.1, SVG Export Plug-In . SVG Version: 2.1.0 Build 141)  -->
  <defs>
    <style>
      .st0 {
        fill: #fff;
      }

      .st1 {
        fill: #de7b6c;
      }
    </style>
  </defs>
  <g>
    <path class="st1" d="M36.57,190.98l117.84-32.51,36.57-117.84,28.44,28.44v154.41H65.02l-28.44-32.51Z"/>
    <path class="st1" d="M398.22,455.11l-65.02-69.08h-75.99l2.84-77.21-52.83-32.51h-52.83l85.33-32.51,30.07-79.64,10.57,10.57v44.7l36.57,36.57h69.08v81.27l69.08,69.08,4.06,56.89-60.95-8.13ZM369.78,113.78h-80.46l27.63-73.14,69.08,40.63v41.85l-16.25-9.35ZM36.57,321.02l49.57-18.69,31.7,34.95v48.76h-40.63l-40.63-65.02Z"/>
  </g>
  <path class="st0" d="M97.52,292.57h73.14l12.19,16.25v-16.25l20.32,4.06,36.57,16.25v73.14l-20.32-16.25v-24.38h-24.38l-8.13-8.13h-12.19v44.7h32.51l16.25,24.38h-60.95l-28.44-28.44v-48.76l-36.57-36.57ZM264.13,125.97l69.08,4.06,12.19,16.25,4.06-16.25h16.25l36.57,20.32v73.14l-20.32-20.32v-20.32h-24.38l-4.06-8.13h-16.25v44.7h32.51l20.32,20.32h-65.02l-24.38-24.38-4.06-48.76-32.51-40.63Z"/>
</svg>