<?xml version="1.0" encoding="UTF-8"?>
<svg id="a" data-name=" 图层 1" xmlns="http://www.w3.org/2000/svg" viewBox="0 0 512 512">
  <g>
    <path d="M207.24,130.03s-29.66-6.1-47.54,12.19l31.29-101.59,28.44,28.44v26.41c-7.72,6.5-13,17.07-12.19,34.54h0ZM146.29,182.86s-36.98-.81-51.2,40.63h-30.07l-28.44-32.51,112.56-30.88c-2.14,7.39-3.1,15.07-2.84,22.76h0Z" style="fill: #de7b6c;"/>
    <path d="M349.46,130.03s5.69-47.14-48.76-44.7h-.81l17.07-44.7,69.08,40.63v52.83c-11.68-4.28-24.23-5.68-36.57-4.06h0ZM146.29,292.57s-8.94,58.11,60.95,52.83c-1.85,16.07,5.54,31.81,19.1,40.63H77.21l-40.63-65.02,89.4-34.13c6.66,2.27,13.45,4.17,20.32,5.69h0ZM349.46,345.4c14.25.93,28.57.25,42.67-2.03l62.98,62.98,4.06,56.89-60.95-8.13-65.02-69.08h-6.1c13.88-8.86,22.3-24.17,22.35-40.63h0Z" style="fill: #de7b6c;"/>
  </g>
  <path d="M409.6,276.32h-41.45c13.91-.03,25.22,11.23,25.25,25.14,0,.56-.02,1.12-.05,1.68.68,13.45-9.67,24.9-23.12,25.58-.69.04-1.39.04-2.08.02h-57.7c11.66.41,20.78,10.2,20.37,21.87-.01.3-.03.59-.05.89.9,11.19-7.44,20.98-18.63,21.88-.56.05-1.13.07-1.69.07h-33.32v.41h-33.32c-11.22.04-20.35-9.03-20.38-20.25,0-.56.02-1.13.07-1.69-1.12-11.39,7.2-21.53,18.59-22.66.57-.06,1.15-.09,1.73-.1h-56.89s-24.38.81-24.38-26.01,24.38-26.82,24.38-26.82h-40.63s-36.57-.41-36.57-38.2,36.57-39.01,36.57-39.01h40.63c-13.47.03-24.41-10.86-24.44-24.33,0-.56.02-1.12.05-1.68-.47-14.06,10.34-25.95,24.38-26.82h53.64c1.08.1,2.17.1,3.25,0h-3.25c-6.1-.41-17.07-4.06-17.07-21.94,0-24.38,20.32-22.76,20.32-22.76h66.64s20.32-2.03,20.32,22.76c0,18.29-10.97,21.54-17.07,21.94h-3.25c1.08.09,2.17.09,3.25,0h54.45s25.19,1.22,25.19,26.82-25.19,26.01-25.19,26.01h41.45s37.38,1.22,37.38,39.01-37.38,38.2-37.38,38.2h0Z" style="fill: #fff;"/>
</svg>