<?xml version="1.0" encoding="UTF-8"?>
<svg id="_图层_1" data-name="图层_1" xmlns="http://www.w3.org/2000/svg" version="1.1" viewBox="0 0 512 512">
  <!-- Generator: Adobe Illustrator 29.5.1, SVG Export Plug-In . SVG Version: 2.1.0 Build 141)  -->
  <defs>
    <style>
      .st0 {
        fill: #fff;
      }

      .st1 {
        fill: #de7b6c;
      }
    </style>
  </defs>
  <g>
    <path class="st1" d="M36.57,190.98l117.84-32.51,36.57-117.84,28.44,28.44v154.41H65.02l-28.44-32.51Z"/>
    <path class="st1" d="M308.01,63.8l8.94-23.16,69.08,40.63v58.92l-78.02-76.39ZM269,167.42l117.03,117.03v52.83l69.08,69.08,4.06,56.89-60.95-8.13-65.02-69.08h-44.7l-116.62-116.62,67.86-25.6,29.26-76.39ZM36.57,321.02l29.26-11.38,76.39,76.39h-65.02l-40.63-65.02Z"/>
  </g>
  <path class="st0" d="M56.89,280.38l20.32-20.32,60.95,60.95-20.32,20.32-60.95-60.95Z"/>
  <path class="st0" d="M121.9,345.4l20.32-20.32,60.95,60.95-20.32,20.32-60.95-60.95Z"/>
  <path class="st0" d="M134.1,296.63l20.32-20.32,60.95,60.95-20.32,20.32-60.95-60.95Z"/>
  <path class="st0" d="M199.11,361.65l20.32-20.32,60.95,60.95-20.32,20.32-60.95-60.95Z"/>
  <path class="st0" d="M260.06,77.21l20.32-20.32,60.95,60.95-20.32,20.32-60.95-60.95Z"/>
  <path class="st0" d="M325.08,142.22l20.32-20.32,60.95,60.95-20.32,20.32-60.95-60.95Z"/>
  <path class="st0" d="M276.32,154.41l20.32-20.32,60.95,60.95-20.32,20.32-60.95-60.95Z"/>
  <path class="st0" d="M341.33,219.43l20.32-20.32,60.95,60.95-20.32,20.32-60.95-60.95Z"/>
</svg>