<?xml version="1.0" encoding="UTF-8"?>
<svg id="a" data-name=" 图层 1" xmlns="http://www.w3.org/2000/svg" viewBox="0 0 512 512">
  <path d="M262.23,312.74H43.88v-3.91h-17.55c-1.56,0-1.95,1.3-1.95,1.95v43.04h19.5l1.95-3.91h7.79v1.96c12.48,2.34,17.55.98,18.52,0h39.97c10.91,2.34,20.14.98,23.39,0v-1.96h126.72v5.87l-27.29,46.95,1.95,3.91c6.24,3.13,10.4,6.52,11.69,7.83h5.85v-1.95l23.39-45h5.85v-1.95h9.74c-4.88-7.83-.98-11.41,3.9-11.74v-1.95h5.85v-1.96h15.6v29.35c0,2.35,2.6,3.59,3.9,3.91h7.8c2.34,0,3.58-2.61,3.9-3.91v-29.35h7.79c3.12,0,7.8,2.61,7.8,3.91h11.69v-45h-11.7v1.95h-85.78c-1.56,0-1.95,1.31-1.95,1.96h.03Z" style="fill: #49adc9;"/>
  <path d="M488.44,331.22c-3.1-13.15-23.22-24.83-32.89-29.02-27.09-3.1-48.69-1.29-56.11,0-6.19,0-14.83-4.51-18.38-7.74-4.64,3.87-5.16,8.06-4.84,9.67-3.1,4.64-11.61,8.39-15.48,9.68v34.82c3.87,1.29,12.38,5.03,15.48,9.67-.33,1.61.2,5.81,4.84,9.68,3.55-3.23,12.19-7.74,18.38-7.74,7.42,1.29,29.02,3.1,56.11,0,9.68-4.19,29.8-15.86,32.89-29.02h0Z" style="fill: #49adc9;"/>
  <path d="M52.83,150.67l21.27,20h120l21.27-20h-21.27v-18.67l-21.26,16-1.52-32-25.82,21.33-11.39-52-11.39,52-27.34-21.33v32l-21.26-16v18.67h-21.29ZM383.79,172.74c-19.55,0-65.96-16.51-65.96-16.51h-16.49l-9.42,16.51h-35.34l9.42-21.23h-11.78l-7.07,21.23h-18.85l11.78-28.3v-2.36l-11.78-28.3h18.85l7.07,21.23h11.78l-9.42-21.23h35.34l9.43,16.51h16.49s46.41-16.51,65.96-16.51,75.39,16.51,75.39,16.51v25.94s-55.83,16.51-75.39,16.51h0Z" style="fill: #fff;"/>
</svg>