<?xml version="1.0" encoding="UTF-8"?>
<svg id="_图层_1" data-name="图层_1" xmlns="http://www.w3.org/2000/svg" version="1.1" viewBox="0 0 512 512">
  <!-- Generator: Adobe Illustrator 29.5.1, SVG Export Plug-In . SVG Version: 2.1.0 Build 141)  -->
  <defs>
    <style>
      .st0 {
        fill: #fff;
      }

      .st0, .st1 {
        fill-rule: evenodd;
      }

      .st1 {
        fill: #49adc9;
      }
    </style>
  </defs>
  <path class="st1" d="M329.14,418.54v16.25l24.38,24.38,4.06,4.06h-93.46l4.06-4.06,24.38-24.38v-32.51l24.38-28.44v-56.89h36.57v73.14l-24.38,28.44ZM300.7,353.52l-24.38,28.44h-40.63l-24.38-28.44v-52.83h-52.83v-65.02l16.25-16.25h32.51l20.32-16.25h56.89l20.32,16.25h32.51l16.25,16.25v65.02h-52.83v52.83ZM284.44,235.68h-56.89v48.76h56.89v-48.76ZM195.05,373.84l24.38,28.44v32.51l24.38,24.38,4.06,4.06h-93.46l4.06-4.06,24.38-24.38v-16.25l-24.38-28.44v-73.14h36.57v56.89ZM239.75,308.83c4.49,0,8.13,3.64,8.13,8.13s-3.64,8.13-8.13,8.13-8.13-3.64-8.13-8.13,3.64-8.13,8.13-8.13ZM272.25,308.83c4.49,0,8.13,3.64,8.13,8.13s-3.64,8.13-8.13,8.13-8.13-3.64-8.13-8.13,3.64-8.13,8.13-8.13ZM239.75,337.27c4.49,0,8.13,3.64,8.13,8.13s-3.64,8.13-8.13,8.13-8.13-3.64-8.13-8.13,3.64-8.13,8.13-8.13ZM272.25,337.27c4.49,0,8.13,3.64,8.13,8.13s-3.64,8.13-8.13,8.13-8.13-3.64-8.13-8.13,3.64-8.13,8.13-8.13Z"/>
  <path class="st0" d="M125.97,150.35h-52.83l36.57-36.57h16.25s20.32.47,20.32,18.29-20.32,18.29-20.32,18.29ZM60.95,150.35h-28.44v-36.57h65.02l-36.57,36.57ZM125.97,97.52h-56.89l36.57-36.57h20.32s20.32.47,20.32,18.29-20.32,18.29-20.32,18.29ZM56.89,97.52h-24.38v-36.57h60.95l-36.57,36.57ZM459.17,150.35h-52.83l36.57-36.57h16.25s20.32.47,20.32,18.29-20.32,18.29-20.32,18.29ZM394.16,150.35h-28.44v-36.57h65.02l-36.57,36.57ZM459.17,97.52h-56.89l36.57-36.57h20.32s20.32.47,20.32,18.29-20.32,18.29-20.32,18.29ZM390.1,97.52h-24.38v-36.57h60.95l-36.57,36.57Z"/>
</svg>