<?xml version="1.0" encoding="UTF-8"?>
<svg id="a" data-name=" 图层 1" xmlns="http://www.w3.org/2000/svg" viewBox="0 0 512 512">
  <path d="M329.14,418.54v16.25l24.38,24.38,4.06,4.06h-93.46l4.06-4.06,24.38-24.38v-32.51l24.38-28.44v-56.89h36.57v73.14l-24.38,28.44h0ZM300.7,353.52l-24.38,28.44h-40.63l-24.38-28.44v-52.83h-52.83v-65.02l16.25-16.25h32.51l20.32-16.25h56.89l20.32,16.25h32.51l16.25,16.25v65.02h-52.83v52.83h0ZM284.44,235.68h-56.89v48.76h56.89v-48.76h0ZM195.05,373.84l24.38,28.44v32.51l24.38,24.38,4.06,4.06h-93.46l4.06-4.06,24.38-24.38v-16.25l-24.38-28.44v-73.14h36.57v56.89h0ZM239.75,308.83c4.49,0,8.13,3.64,8.13,8.13s-3.64,8.13-8.13,8.13-8.13-3.64-8.13-8.13,3.64-8.13,8.13-8.13ZM272.25,308.83c4.49,0,8.13,3.64,8.13,8.13s-3.64,8.13-8.13,8.13-8.13-3.64-8.13-8.13,3.64-8.13,8.13-8.13ZM239.75,337.27c4.49,0,8.13,3.64,8.13,8.13s-3.64,8.13-8.13,8.13-8.13-3.64-8.13-8.13,3.64-8.13,8.13-8.13ZM272.25,337.27c4.49,0,8.13,3.64,8.13,8.13s-3.64,8.13-8.13,8.13-8.13-3.64-8.13-8.13,3.64-8.13,8.13-8.13Z" style="fill: #49adc9; fill-rule: evenodd;"/>
  <path d="M125.97,150.35h-52.83l36.57-36.57h16.25s20.32.47,20.32,18.29-20.32,18.29-20.32,18.29h.01ZM60.95,150.35h-28.44v-36.57h65.02l-36.57,36.57h0ZM125.97,97.52h-56.89l36.57-36.57h20.32s20.32.47,20.32,18.29-20.32,18.29-20.32,18.29h0ZM56.89,97.52h-24.38v-36.57h60.95s-36.57,36.57-36.57,36.57ZM459.17,150.35h-52.83l36.57-36.57h16.25s20.32.47,20.32,18.29-20.32,18.29-20.32,18.29h0ZM394.16,150.35h-28.44v-36.57h65.02l-36.57,36.57h0ZM459.17,97.52h-56.89l36.57-36.57h20.32s20.32.47,20.32,18.29-20.32,18.29-20.32,18.29h0ZM390.1,97.52h-24.38v-36.57h60.95l-36.57,36.57Z" style="fill: #fff; fill-rule: evenodd;"/>
</svg>