<?xml version="1.0" encoding="UTF-8"?>
<svg id="_图层_1" data-name="图层_1" xmlns="http://www.w3.org/2000/svg" version="1.1" viewBox="0 0 512 512">
  <!-- Generator: Adobe Illustrator 29.5.1, SVG Export Plug-In . SVG Version: 2.1.0 Build 141)  -->
  <defs>
    <style>
      .st0 {
        fill: #679552;
      }

      .st1 {
        fill: #fff;
      }
    </style>
  </defs>
  <path class="st0" d="M365.71,134.1s-24.38-33.73-73.14-60.95h174.73v60.95h-101.59ZM373.84,231.62v56.89h-195.05s36.57-91.02,36.57-113.78-36.57-101.59-36.57-101.59h36.57s158.48,0,158.48,158.48ZM345.4,373.84h-142.22v-32.51l-24.38-24.38v-8.13h166.6v65.02ZM154.41,410.41h48.76v-20.32h174.73l52.83,65.02H73.14l36.57-44.7h44.7Z"/>
  <path class="st1" d="M69.08,203.17l20.32-81.27L8.13,227.56l56.89-4.06-16.25,81.27,81.27-105.65-60.95,4.06Z"/>
  <path class="st1" d="M162.54,280.38v44.7l24.38,24.38v44.7h-77.21v-44.7l24.38-24.38v-44.7s-8.13-17.47-16.25-38.6l36.57-54.86h-54.86l-1.22-4.47,7.31-40.63c10.97-30.48,28.44-68.67,28.44-68.67h28.44s36.57,78.83,36.57,101.59-36.57,105.65-36.57,105.65Z"/>
</svg>