<?xml version="1.0" encoding="UTF-8"?>
<svg id="a" data-name=" 图层 1" xmlns="http://www.w3.org/2000/svg" viewBox="0 0 512 512">
  <g>
    <path d="M305.08,73.75s58.29-3.29,58.29,60.31-62.32,58.29-62.32,58.29c-29.93-.34-59.43-7.2-86.44-20.1l18.09-10.05s-34.47-9.82-62.31-16.08c3.79-4.03,8.69-6.83,14.08-8.04-20.61-3.85-41.42-6.54-62.33-8.05,0,0,49.03-14.6,82.42-14.07-3.84-4.91-8.63-9.01-14.07-12.06,0,0,20.8-7.24,44.22-14.07,23.42-6.83,42.81-16.08,70.36-16.08h0ZM304.56,88.79c24.71,0,44.75,20.03,44.75,44.75s-20.03,44.75-44.75,44.75-44.75-20.03-44.75-44.75,20.03-44.75,44.75-44.75Z" style="fill: #fff; fill-rule: evenodd;"/>
    <circle cx="288.89" cy="137.97" r="6.73" style="fill: #fff;"/>
    <circle cx="319.11" cy="115.94" r="10.03" style="fill: #fff;"/>
    <path d="M314.11,144.11c3.88,0,7.04,3.13,7.05,7.02,0,3.88-3.13,7.04-7.02,7.05-3.88,0-7.04-3.13-7.05-7.01-.01-3.88,3.13-7.04,7.01-7.05h0Z" style="fill: #fff; fill-rule: evenodd;"/>
  </g>
  <path d="M59.84,339.09v-20.11c.77-1.23.77-2.79,0-4.02v-10.04c-.1-5.45,4.24-9.95,9.7-10.05h.36c10.02,0,12.06,6.03,12.06,6.03h18.09s0-6.03,2.01-6.03h26.13s4.02-.06,4.02,6.03h14.08s-.18-6.03,2.01-6.03h24.12c2.75.59,4.53,3.26,4.02,6.03h14.07s-.18-6.03,2.01-6.03h26.13s2.01.48,2.01,6.03h16.08s-.61-6.03,2.01-6.03h24.11s2.01.57,2.01,6.03h8.04l-8.04-10.05s-6.63-14.3,2.01-18.09c5.99-2.63,14.07,12.06,14.07,12.06l12.06,16.08h8.04l-12.06-12.06s-.49-6.02,2.01-6.02c0,0-.95-10.05,6.03-10.05s22.11,28.14,22.11,28.14h6.03l-10.05-12.06s-1.39-8.06,6.03-8.06c0,0-1.38-11.22,6.03-8.04,4.68,2.01,20.1,28.14,20.1,28.14,0,0,5.01-.62,2.01-4.02s-9.88-10.39-8.04-14.05c1.84-3.66,8.04-2.01,8.04-2.01,0,0-1.92-10.68,6.03-8.04,4.85,2.06,8.01,6.8,8.04,12.06,1.6.09,3.13-.68,4.02-2.01.73-2.03,5.58-3.63,10.05,2.01,0,0,3.84.38,0-4.02s7.23-13.69,12.06-4.02l12.06,24.12h18.09c3.55,3.05,5.72,7.39,6.03,12.06,0,0,17.78,2.71,22.11,6.03v8.04c-7.4,4.31-15.62,7.05-24.12,8.04.53,6.1-.16,12.25-2.01,18.09-2.14,4.58-12.06,4.02-12.06,4.02-.17,3.26-2.77,5.86-6.03,6.03-2.84.34-5.7-.38-8.04-2.01v-2h-2v2.01h-10.05v-2.01h-2.01v2.01h-2.01v-2.01h-2.01v2.01c.27,3.05-1.98,5.74-5.03,6.02-.34.03-.67.03-1.01,0-2.37,1.58-5.21,2.3-8.04,2.01,0,0,2.53,24.58-4.02,36.17-.7,2.23.11,4.66,2.01,6.03-1.37,4.85-6.42,7.67-11.27,6.29-.27-.08-.53-.16-.79-.26-9.87-2.54-11.28-7.85-6.03-10.05,0,0-4.03-20.45,4.02-34.17,1.82-3.1,1.82-6.95,0-10.05,0,0-9.32-2.25-10.05-4.02s-2.25-3.25-6.03,0-10.42,9.47-32.16,62.31c-1.39.84-2.18,2.41-2.01,4.02-.04,3.16,2.34,11.08-10.05,8.04s-40.2-12.06-40.2-12.06c0,0-7.93-3.64-2.01-14.07s14.08-22.09,14.08-22.09c1.02-3.27-.8-6.74-4.07-7.76-.63-.2-1.3-.29-1.96-.28-7.83-.28-38.2,0-38.2,0l-12.06-12.06s-4.6-6.5-14.07,0c-6.65,4.57-3.52,6.14-18.09,6.03,0,0-7.68,2.21-8.04,8.04s0,32.16,0,32.16c-2.11,1.37-3.56,3.55-4.02,6.03-.1,3.42.03,5.94-4.02,6.03s-7.52-.05-8.04-10.05-3.99-27.27-26.13-42.21c0,0-.24-2.11-14.07-2.01,0,0-3.98-.13-4.02-6.03,0,0-16.78,2.18-24.12-2.01s-19.01-15.64-18.09-22.11v-.02ZM305.08,385.33l-16.08,36.17c-1.91,1.55-4.46,2.09-6.83,1.43-5.26-.85-10.34-2.61-14.99-5.21-1.34-1.13-3.91-9.01,11.78-26.36,0,0,7.81.5,10.05-2.01,1.54-3.12,2.23-6.58,2.01-10.05,0,0,.12-7.64,16.08-2.01.3,2.84-.42,5.69-2.02,8.06v-.02Z" style="fill: #49adc9; fill-rule: evenodd;"/>
</svg>