<?xml version="1.0" encoding="UTF-8"?>
<svg id="_图层_1" data-name="图层_1" xmlns="http://www.w3.org/2000/svg" version="1.1" viewBox="0 0 512 512">
  <!-- Generator: Adobe Illustrator 29.5.1, SVG Export Plug-In . SVG Version: 2.1.0 Build 141)  -->
  <defs>
    <style>
      .st0 {
        fill: #fff;
      }

      .st0, .st1 {
        fill-rule: evenodd;
      }

      .st1 {
        fill: #49adc9;
      }
    </style>
  </defs>
  <path class="st0" d="M395.32,186.84h-10.87l-73.94-17.4h-15.22v4.35l-10.87,13.05h-36.98l10.87-23.92h-8.69l-13.05,23.92h-17.4l10.87-30.44v-4.35l-10.87-30.44h17.4l13.05,23.92h8.7l-10.87-23.92h36.98l10.87,13.05v4.35h15.22l73.96-17.4h10.87l80.46,17.4v30.44l-80.49,17.4Z"/>
  <path class="st0" d="M109.15,219.43v-29.26l-9.75-13,19.5-32.51,3.25,6.5,3.25,9.75,16.25,16.25-13,16.25v26.01l48.76-45.51s-.11-19.84-16.25-58.51c-6.03,7.13-11.47,14.74-16.25,22.76v-39.01l-42.26-42.26-6.5,52.01-29.26,29.26v45.51l42.26,35.76Z"/>
  <path class="st1" d="M477.18,335.18s2.97,32.94-12.35,32.94h-8.23v-2.06h-2.06v-2.06h-41.17v-2.06h-2.06v2.06h-8.23v12.35h2.06c1.84,17.78,2.53,35.65,2.06,53.52l-2.06,6.18h-12.35s-3.77-7.57-4.12-37.05v-22.65l-4.12-2.06v-8.23l-2.06-2.06h-10.29v4.12h-4.12l-2.06,2.06h-8.23v4.12l-4.12-2.07h-12.35c-1.9,3.9-1.9,8.45,0,12.35,0,0-7.56-.56-4.12-14.41l-4.12,4.13v12.35l4.12,6.18h-4.12l-2.06-2.06h-6.18l-22.65,37.05h-4.11l-12.35-8.24v-4.12l22.65-37.05v-6.19l-6.18-2.06h-8.23l-2.06-2.06-10.31-2.04-2.03-2.06h-32.95l-2.06,4.12h-10.29l-8.23-2.06h-18.53l-6.18,2.06h-45.29l-6.18-2.06h-18.52l-8.22,2.06h-8.25l-4.12-4.12h-4.12l-2.06,2.06h-10.3l-2.03-2.06h-12.35l-2.06,2.06h-8.24l-2.06-2.06h-4.13l-2.06,2.06s-20.59,7.31-20.59-10.29v-37.05s.35-12.35,10.29-12.35l6.18,2.06h10.29l2.06-2.06h8.25l2.06,2.06h51.46l2.06-2.06h14.41l4.12,2.06h57.64l2.06-2.06h12.35v2.06h92.65l4.12-2.06h10.29l2.06-4.12h2.06l2.06,6.18h45.27l4.12-2.06h4.12v2.06h4.12v-2.06h4.12l2.06,2.06h53.52s-1.22-4.12,8.24-4.12,14.41,1.43,14.41,30.87h0Z"/>
</svg>