<?xml version="1.0" encoding="UTF-8"?>
<svg id="a" data-name=" 图层 1" xmlns="http://www.w3.org/2000/svg" viewBox="0 0 512 512">
  <path d="M16.25,386.03v-36.57l24.38-20.32v-20.32h56.89l12.19-12.19h8.13v20.32h24.38l12.19,4.06,4.06,8.13h93.46l16.25-12.19h117.84v8.13l16.25,4.06,4.06,12.19h77.21l8.13,8.13v69.08l-8.13,8.13h-89.4v4.06h-20.32v-4.06h-97.52v4.06h-8.13v-4.06h-52.83v4.06h-105.65v-4.06H24.38l-8.13-8.13v-32.51h0Z" style="fill: #49adc9;"/>
  <path d="M325.08,211.3c-33.73,0-113.78-28.44-113.78-28.44h-28.44l-16.25,28.44h-60.95l16.25-36.57h-20.32l-12.19,36.57h-32.51l20.32-48.76v-4.06l-20.32-48.76h32.51l12.19,36.57h20.32l-16.25-36.57h60.95l16.25,28.44h28.44s80.05-28.44,113.78-28.44,130.03,28.44,130.03,28.44v44.7s-96.3,28.44-130.03,28.44h0Z" style="fill: #fff;"/>
</svg>