<?xml version="1.0" encoding="UTF-8"?>
<svg id="a" data-name=" 图层 1" xmlns="http://www.w3.org/2000/svg" viewBox="0 0 512 512">
  <g>
    <path d="M362.79,460.56c-29.9,0-26.41-29.73-26.41-29.73h52.84s3.48,29.73-26.43,29.73ZM124.94,361.45h23.13l36.34-36.34h102.4l33.04,36.34h69.38v52.85H124.94v-52.85ZM214.15,308.59h-62.79v-36.34h62.79l9.91,9.91h59.45v16.5h-59.47l-9.89,9.93h0ZM177.81,430.82s3.47,29.73-26.41,29.73-26.41-29.73-26.41-29.73h52.83,0Z" style="fill: #49adc9; fill-rule: evenodd;"/>
    <path d="M344.86,197.32h-29.03l-12.91,9.91h-132.25v-52.87h132.25l12.9,9.91h29.03l29.03,16.52-29.03,16.52h.01Z" style="fill: #fff; fill-rule: evenodd;"/>
  </g>
  <path d="M134.1,154.41h20.32v52.83h-20.32v-52.83Z" style="fill: #fff;"/>
  <path d="M344.86,128.24h-29.03l-12.91,9.91h-132.25v-52.87h132.25l12.9,9.91h29.03l29.03,16.52-29.03,16.52h.01Z" style="fill: #fff; fill-rule: evenodd;"/>
  <path d="M134.1,85.33h20.32v52.83h-20.32v-52.83Z" style="fill: #fff;"/>
</svg>