<?xml version="1.0" encoding="UTF-8"?>
<svg id="_图层_1" data-name="图层_1" xmlns="http://www.w3.org/2000/svg" version="1.1" viewBox="0 0 512 512">
  <!-- Generator: Adobe Illustrator 29.5.1, SVG Export Plug-In . SVG Version: 2.1.0 Build 141)  -->
  <defs>
    <style>
      .st0 {
        fill: #fff;
      }

      .st1 {
        fill: #49adc9;
      }
    </style>
  </defs>
  <path class="st0" d="M251.94,264.13v-36.57l-12.19-16.25,24.38-40.63,4.06,8.13,4.06,12.19,20.32,20.32-16.25,20.32v32.51l60.95-56.89s0-24.79-20.32-73.14c-7.54,8.91-14.34,18.42-20.32,28.44v-48.76l-52.83-52.83-8.13,65.02-36.57,36.57v56.89l52.83,44.7Z"/>
  <path class="st1" d="M329.14,373.84v4.06h12.19v16.25l-16.25,16.25h-16.25v12.19l-48.76,36.57h-28.44l-20.32-28.44v-24.38l-28.44-40.63h-65.02l-16.25,20.32H36.57l-20.32-16.25v-32.51h73.14l8.13-8.13h73.14v-8.13h32.51v8.13h16.25v-8.13h81.27v8.13h36.57v8.13h121.9l8.13,4.06h12.19v8.13h-4.06l-8.13,4.06v12.19h12.19v-12.19l8.13,4.06h4.06v16.25h-162.54ZM93.46,353.52h-28.44l-4.06,8.13h-4.06l-4.06-8.13h-12.19v24.38h44.7l8.13-8.13v-16.25ZM268.19,373.84l-16.25-16.25h-48.76v12.19l28.44,32.51h8.13l28.44-16.25v-12.19ZM455.11,357.59h-125.97v8.13h125.97v-8.13Z"/>
</svg>