<?xml version="1.0" encoding="UTF-8"?>
<svg id="a" data-name=" 图层 1" xmlns="http://www.w3.org/2000/svg" viewBox="0 0 512 512">
  <path d="M365.71,134.1s-24.41-33.73-73.14-60.95h174.73v60.95h-101.59ZM373.84,231.62v56.89h-116.57l39.36-40.63L145.2,73.14h70.16s158.48-.13,158.48,158.48ZM345.4,373.84h-170.79l62.98-65.02h107.81v65.02ZM377.9,390.1l52.83,65.02H73.14l52.83-65.02h251.94-.01Z" style="fill: #679552; fill-rule: evenodd;"/>
  <path d="M126.98,351.85l-67.73-67.73v-67.72l50.79-45.15,22.57-84.65,56.44,79.01v39.51l22.57-22.57,56.44,67.72-101.59,101.59v-45.15l22.57-22.57-33.86-16.93v-45.15l-39.5,56.43,16.93,22.57v50.79h-5.64,0Z" style="fill: #fff; fill-rule: evenodd;"/>
</svg>