<?xml version="1.0" encoding="UTF-8"?><svg id="a" xmlns="http://www.w3.org/2000/svg" viewBox="0 0 512 512"><path d="M365.71,134.1s-24.38-33.73-73.14-60.95h174.73v60.95h-101.59ZM373.84,231.62v56.89h-195.05s36.57-91.02,36.57-113.78-36.57-101.59-36.57-101.59h36.57s158.48,0,158.48,158.48M345.4,373.84h-142.22v-32.51l-24.38-24.38v-8.13h166.6v65.02ZM154.41,410.41h48.76v-20.32h174.73l52.83,65.02H73.14l36.57-44.7h44.7Z" style="fill:#679552;"/><path d="M162.54,73.14s36.57,78.83,36.57,101.59-36.57,105.65-36.57,105.65v44.7l24.38,24.38v44.7h-77.21v-44.7l24.38-24.38v-44.7s-.76-1.72-2.06-4.74l34.57-35.89-14.22-12.19,16.25-14.22v-62.98h-14.22c0-12.79-7.55-35.64-34.53-44.8,7.6-18.14,14.21-32.4,14.21-32.4h28.44Z" style="fill:#fff;"/><path d="M117.84,240.66l5.99,5.94,14.39-13.86,10,9.91-34.38,33.67-9.99-9.9,13.99-13.87-5.99-5.94-10.2,7.92h-17.19l-9.99-7.92-6,5.94,13.99,13.87-9.99,9.9-33.97-33.68,9.99-9.9,13.99,13.87,5.99-5.94-35.97-33.68v-41.6h13.99c-1-45.56,43.97-47.54,43.97-47.54h4.99s45.96,1.98,44.96,47.54h13.99v41.6l-36.57,33.68ZM109.45,236.7c.99,0,1.95-.29,2.78-.83,1.67-1.11,2.51-3.12,2.13-5.08-.19-.96-.67-1.85-1.37-2.54-1.43-1.43-3.58-1.85-5.45-1.08-.91.38-1.69,1.01-2.24,1.83-1.32,1.96-1.06,4.59.62,6.25.93.93,2.21,1.45,3.54,1.45M109.45,218.87c.99,0,1.95-.29,2.78-.83,1.67-1.11,2.51-3.12,2.13-5.08-.19-.96-.67-1.85-1.37-2.54-1.43-1.42-3.58-1.85-5.45-1.07-.91.37-1.69,1.01-2.24,1.82-1.32,1.96-1.06,4.59.62,6.25.93.93,2.21,1.45,3.54,1.45M93.46,246.61c.99,0,1.95-.29,2.78-.83,1.67-1.11,2.51-3.12,2.13-5.08-.19-.96-.67-1.85-1.37-2.54-1.43-1.42-3.58-1.85-5.45-1.07-.91.37-1.69,1.01-2.24,1.82-1.53,2.25-.94,5.3,1.31,6.83.29.2.61.37.93.5.61.25,1.26.38,1.91.38M93.46,228.78c.99,0,1.95-.29,2.78-.83,1.67-1.11,2.51-3.12,2.13-5.08-.19-.97-.67-1.85-1.37-2.54-1.43-1.42-3.58-1.85-5.45-1.07-.91.38-1.69,1.01-2.24,1.83-1.32,1.96-1.06,4.59.62,6.25.93.93,2.21,1.45,3.53,1.45M93.46,208.97c.99,0,1.95-.29,2.78-.83,1.67-1.11,2.51-3.12,2.13-5.08-.19-.97-.67-1.85-1.37-2.54-1.43-1.42-3.58-1.85-5.45-1.07-2.52,1.01-3.75,3.88-2.73,6.41.25.63.63,1.2,1.11,1.67.94.93,2.21,1.45,3.54,1.45M77.47,236.71c2.02.01,3.84-1.19,4.62-3.06.78-1.85.35-3.99-1.08-5.4-1.43-1.42-3.58-1.85-5.45-1.07-.91.38-1.69,1.01-2.24,1.83-1.32,1.96-1.06,4.59.62,6.25.93.93,2.21,1.45,3.54,1.45M77.47,218.88c2.02.01,3.84-1.19,4.62-3.06.77-1.85.34-3.99-1.08-5.4-1.43-1.42-3.58-1.85-5.45-1.07-.91.37-1.69,1.01-2.24,1.82-1.32,1.96-1.06,4.59.62,6.25.93.93,2.21,1.45,3.54,1.45M130.43,165.38H56.49v27.73l15.99,11.89,17.99-13.87h5.2l18.39,13.87,16.38-11.89v-27.73Z" style="fill:#fff;"/></svg>