<?xml version="1.0" encoding="UTF-8"?>
<svg id="a" data-name=" 图层 1" xmlns="http://www.w3.org/2000/svg" viewBox="0 0 512 512">
  <path d="M117.84,422.6v-44.7h276.32v44.7l-52.83,24.38-85.33-40.63-85.33,40.63-52.83-24.38Z" style="fill: #fff; fill-rule: evenodd;"/>
  <path d="M154.41,325.08h203.17v36.57h-203.17v-36.57h0ZM235.68,288.51h40.63v20.32h-40.63v-20.32Z" style="fill: #fff;"/>
  <path d="M20.32,454.93l69.08-28.26,81.27,40.63,85.33-40.63,85.33,40.63,81.27-40.63,69.08,29.22v35.79H20.32v-36.75Z" style="fill: #679552; fill-rule: evenodd;"/>
  <path d="M288.66,205.34l7.78,7.66,18.16-17.88,12.97,12.77-44.09,43.41-12.97-12.78,18.16-17.88-7.78-7.66-12.97,10.21h-21.97l-12.77-10.22-7.65,7.66,17.88,17.88-12.77,12.77-43.43-43.42,12.77-12.77,17.88,17.88,7.68-7.66-45.99-43.42v-53.64s10.63.08,17.88,0c-1.17-58.92,56.19-61.3,56.19-61.3l3.91-.07v.11l2.61.04s58.25,2.36,57.06,61.28c7.36.08,18.16,0,18.16,0v53.62l-46.69,43.4h-.01ZM277.87,200.22c3.53,0,6.38-2.86,6.38-6.38s-2.86-6.38-6.38-6.38-6.38,2.86-6.38,6.38,2.85,6.39,6.38,6.39h0ZM277.87,177.23c3.53,0,6.38-2.86,6.38-6.38s-2.86-6.38-6.38-6.38-6.38,2.86-6.38,6.38h0c0,3.53,2.86,6.38,6.38,6.38ZM257.44,212.99c3.53,0,6.38-2.86,6.38-6.39s-2.86-6.38-6.39-6.38-6.38,2.86-6.38,6.38,2.85,6.39,6.38,6.39h.01ZM257.44,190c3.53,0,6.38-2.86,6.38-6.39s-2.86-6.38-6.39-6.38-6.38,2.86-6.38,6.38,2.86,6.38,6.38,6.38h.01ZM257.44,164.46c3.53,0,6.38-2.86,6.38-6.39s-2.86-6.38-6.39-6.38-6.38,2.86-6.38,6.38,2.85,6.39,6.38,6.39h.01ZM237,200.22c3.53,0,6.38-2.86,6.38-6.38s-2.86-6.38-6.38-6.38-6.38,2.86-6.38,6.38,2.85,6.39,6.38,6.39h0ZM237,177.23c3.53,0,6.38-2.86,6.38-6.38s-2.86-6.38-6.38-6.38-6.38,2.86-6.38,6.38h0c0,3.53,2.86,6.38,6.38,6.38ZM304.69,108.27h-94.5v35.76l20.44,15.32,22.99-17.88h6.56l23.57,17.88,20.95-15.32v-35.76h-.01Z" style="fill: #fff; fill-rule: evenodd;"/>
</svg>