<?xml version="1.0" encoding="UTF-8"?><svg xmlns="http://www.w3.org/2000/svg" viewBox="0 0 512 512"><path d="M219.42,373.84h154.41l48.76,56.89H97.52l27.86-32.51h94.04v-24.38ZM195.93,89.39h23.5c85.22,0,154.41,69.19,154.41,154.41v40.63h-177.91l32.51-97.52-32.51-97.52ZM195.04,300.69h146.29v56.89h-121.9v-22.99l-24.38-24.38v-9.52ZM292.16,89.39h162.95v56.89h-95.65c-17.1-24.5-40.3-44.11-67.3-56.89" style="fill:#679552;"/><path d="M143.76,121.35l10.65-31.95h24.38l32.51,97.52-32.51,97.52v32.51l24.38,24.38v40.63h-73.14v-40.63l24.38-24.38v-32.51l-2.6-7.81,33.8-33.8-15.73-15.73,15.4-15.4v-55h-10.99c-3.97-15.4-15.3-28.38-30.53-35.36M93.66,237.32l-30.67-30.67v-37.75h9.44c0-22.57,20.44-40.9,45.62-40.9s45.62,18.33,45.61,40.89h9.44v37.75l-31.46,31.46,6.29,6.29,11.01-11.01,9.44,9.44-31.46,31.46-9.44-9.44,12.58-12.58-6.29-6.29-2.38,2.38c-7.37,7.37-19.32,7.37-26.69,0l-3.17-3.17-7.08,7.08,12.58,12.58-9.44,9.44-31.46-31.46,9.44-9.44,11.01,11.01,7.08-7.08ZM152.64,168.9h-69.21v29.89l12.58,9.44,22.02-14.16,22.02,14.16,12.58-9.44v-29.89ZM118.04,219.23c-2.6-.08-4.78,1.97-4.85,4.58-.08,2.6,1.97,4.78,4.58,4.85.09,0,.18,0,.28,0,2.6-.08,4.65-2.25,4.58-4.85-.07-2.5-2.08-4.5-4.58-4.58M118.04,236.54c-2.61.08-4.66,2.25-4.58,4.86.07,2.5,2.08,4.51,4.58,4.58,2.61,0,4.72-2.11,4.72-4.72s-2.11-4.72-4.72-4.72M132.19,228.67c-2.61.08-4.66,2.25-4.58,4.86.07,2.5,2.08,4.51,4.58,4.58,2.61-.08,4.66-2.25,4.58-4.86-.07-2.5-2.08-4.51-4.58-4.58M132.19,211.37c-2.61,0-4.72,2.11-4.72,4.72s2.11,4.72,4.72,4.72,4.72-2.11,4.72-4.71c0-2.61-2.11-4.72-4.72-4.72M103.88,211.37c-2.61,0-4.72,2.11-4.72,4.71s2.11,4.72,4.71,4.72h.01c2.61,0,4.72-2.12,4.71-4.72,0-2.6-2.11-4.71-4.71-4.71M103.88,228.67c-2.61.08-4.66,2.25-4.58,4.86.07,2.5,2.08,4.51,4.58,4.58,2.61-.08,4.66-2.25,4.58-4.86-.07-2.5-2.08-4.51-4.58-4.58M118.04,201.93c-2.6-.08-4.78,1.97-4.85,4.58-.08,2.6,1.97,4.78,4.58,4.85.09,0,.18,0,.28,0,2.6-.08,4.65-2.25,4.58-4.85-.07-2.5-2.08-4.5-4.58-4.58" style="fill:#fff;"/></svg>