<?xml version="1.0" encoding="UTF-8"?>
<svg id="a" data-name=" 图层 1" xmlns="http://www.w3.org/2000/svg" viewBox="0 0 512 512">
  <path d="M365.71,134.1s-24.38-33.73-73.14-60.95h174.73v60.95h-101.59ZM373.84,231.62v56.89h-164.57l-2.03-4.06-4.06-4.06h-16.25l-4.06-4.06h-36.57v-8.13h36.57l4.06-4.06h16.25l4.06-4.06,4.06-8.13,4.06-4.06v-4.06l-4.06-4.06-4.06-8.13-4.06-4.06h-16.25l-4.06-4.06h-36.57v-12.19h36.57l4.06-4.06h16.25l4.06-4.06,4.06-8.13,4.06-4.06v-4.06l-4.06-4.06-4.06-8.13-4.06-4.06h-16.25l-4.06-4.06h-36.57v-8.13h36.57l4.06-4.06h16.25l4.06-4.06,4.06-8.13,4.06-4.06v-4.06l-4.06-4.06-4.06-8.13-4.06-4.06h-16.25l-4.06-4.06h-36.57v-4.06h-20.32v-36.57h89.4s158.48,0,158.48,158.48l-.02-.07ZM211.3,345.4l-4.06-8.13-4.06-4.06h-16.25l-4.06-4.06h-16.25v-8.13h16.25l4.06-4.06h16.25l4.06-4.06,2.03-4.06h136.13v65.02h-162.54l4.06-4.06h16.25l4.06-4.06,4.06-8.13,4.06-4.06v-4.06l-4.06-4.06v-.03ZM377.9,390.1l52.83,65.02H73.14l52.83-65.02h251.94-.01Z" style="fill: #679552;"/>
  <path d="M36.57,365.71h105.65l4.06-4.06h32.51l4.06-4.06h12.19l4.06-4.06v-4.06l-4.06-4.06h-12.19l-4.06-4.06h-32.51l-4.06-4.06H36.57v28.44-.02Z" style="fill: #fff;"/>
  <path d="M36.57,312.89h105.65l4.06-4.06h32.51l4.06-4.06h12.19l4.06-4.06v-4.06l-4.06-4.06h-12.19l-4.06-4.06h-32.51l-4.06-4.06H36.57v28.44-.02Z" style="fill: #fff;"/>
  <path d="M36.57,260.06h105.65l4.06-4.06h32.51l4.06-4.06h12.19l4.06-4.06v-4.06l-4.06-4.06h-12.19l-4.06-4.06h-32.51l-4.06-4.06H36.57v28.44-.02Z" style="fill: #fff;"/>
  <path d="M36.57,203.17h105.65l4.06-4.06h32.51l4.06-4.06h12.19l4.06-4.06v-4.06l-4.06-4.06h-12.19l-4.06-4.06h-32.51l-4.06-4.06H36.57v28.44-.02Z" style="fill: #fff;"/>
  <path d="M36.57,150.35h105.65l4.06-4.06h32.51l4.06-4.06h12.19l4.06-4.06v-4.06l-4.06-4.06h-12.19l-4.06-4.06h-32.51l-4.06-4.06H36.57v28.44-.02Z" style="fill: #fff;"/>
</svg>