<?xml version="1.0" encoding="UTF-8"?>
<svg id="a" data-name=" 图层 1" xmlns="http://www.w3.org/2000/svg" viewBox="0 0 512 512">
  <path d="M252.69,375.94h39.34c16.52,2.36,30.48.98,35.4,0,1.31-.98,5.51-3.15,11.81-3.93,6.29-.79,10.49-2.95,11.8-3.93h88.52l5.9,3.93h43.28v-29.51h-43.28l-5.9,3.94h-96.39v-5.9h11.8l1.97-1.97v-13.77h3.93v-11.8h-11.8l-5.9-7.87h-5.9v1.97h-3.93l10.82-9.83c5.57,0,16.72-2.56,16.72-12.78s-7.87-12.79-11.8-12.79c-13.77,3.94-11.8,12.79-11.8,16.73,0,3.15-3.93,5.9-5.9,6.88-5.51.79-10.16,6.88-11.8,9.83h-78.68v1.97h-7.87c-2.36,0-4.92-3.93-5.9-5.9h-1.97v-1.97h-1.97v-1.97h-1.97v1.97h-82.61v-1.97h-9.84v1.97c-2.36,2.36-7.54,3.61-9.83,3.94h-1.97v-1.97h-5.91v1.97h-1.97c-3.15,0-6.55,1.96-7.86,2.95-20.65,10.82-51.14,19.67-64.91,22.62-11.01,2.36-12.46,6.23-11.8,7.87v27.54c0,6.3,2.62,7.87,3.93,7.87h88.52l7.87,5.9h127.86v-1.99ZM42.22,360.2c-1.57,0-1.97-1.32-1.97-1.97v-3.93c11.8-7.87,27.21-11.15,33.44-11.8v-1.96h7.87c3.15,0,2.95,2.95,4.92,3.93,1.97.98,1.97,1.84.98-1.05s4.08-6.82,7.87-6.82h9.83v23.61h-62.94Z" style="fill: #49adc9;"/>
  <path d="M154.41,56.89h27.27v8.12h57.27v62.23h-57.27v8.11h-27.27V56.89ZM255.31,65.01v62.23h68.18s30,.13,30-29.77v-2.71s2.23-29.76-30-29.76h-68.18ZM154.41,150.35h27.27v8.12h57.27v62.23h-57.27v8.11h-27.27v-78.47h0ZM255.31,158.47v62.23h68.18s30,.13,30-29.77v-2.71s2.23-29.76-30-29.76h-68.18Z" style="fill: #fff; fill-rule: evenodd;"/>
</svg>