<?xml version="1.0" encoding="UTF-8"?>
<svg id="_图层_1" data-name="图层_1" xmlns="http://www.w3.org/2000/svg" version="1.1" viewBox="0 0 512 512">
  <!-- Generator: Adobe Illustrator 29.5.1, SVG Export Plug-In . SVG Version: 2.1.0 Build 141)  -->
  <defs>
    <style>
      .st0 {
        fill: #fff;
      }

      .st0, .st1 {
        fill-rule: evenodd;
      }

      .st1 {
        fill: #49adc9;
      }
    </style>
  </defs>
  <path class="st1" d="M465.13,326.9h-4.16l-2.08-2.08h-12.46l-10.39,10.39h-81c.76,7.25,2.88,14.29,6.23,20.77,0,0,7.9,12.74-4.15,20.77h-12.46c-3.85-1.88-5.64-6.37-4.15-10.38l-4.15-22.84h-8.31v29.08c2.03,2.25,2.8,5.36,2.08,8.31-2.58,6.44-12.46,4.15-12.46,4.15v-2.08h-22.84l-2.08,6.23h-41.54v2.08h-6.23l-6.23-6.23v-6.23l-2.08-2.08-2.08,2.08h-33.23l-20.77,35.31v10.39h-8.3l-24.92-14.54v-4.15l4.15-2.08,27-45.69-8.31-8.31v-6.23h-2.09v-10.38h2.08l2.08-2.08v-8.31l-4.15-2.08-4.15,2.08v18.69l-2.08,6.23-6.23,6.23h-4.16l-2.08-4.15h-2.08l-47.77,35.31h-31.15s-1.19,6.23-12.46,6.23c-3.29.11-6.42-1.45-8.31-4.15l-2.08-2.08-2.08-6.23h2.08v-2.08l-2.08-6.23h2.08v-4.15l-2.08-2.08v-4.16h2.08v-2.08l-2.08-2.08v-4.15h2.08l-2.08-4.15v-4.16h2.08l-2.08-4.15v-4.15l2.08-2.08-2.08-4.15,2.08-4.15-2.08-4.15v-4.16h2.08l-2.08-4.15v-4.16s1.49-6.23,12.46-6.23,12.46,4.15,12.46,4.15h93.46l2.08,4.15h6.23l8.31-6.23h10.39l16.62-4.17h22.85v-6.21l-8.31-4.15v-2.08l6.23-2.08-2.08-2.08,2.08-2.08v-2.08h49.84l4.15-4.15v-6.23h4.16l2.08,4.15h4.15v-4.15h2.08v4.15h4.15v-4.15h2.08v4.15h4.16v-4.15h2.07v4.15h4.15v-4.15h2.08v4.15h4.15v-4.15h2.08v4.15h4.16v-4.15h2.07v4.15h4.15v-4.15h2.08v4.15h4.15v-4.15h2.08v4.15h4.16v-4.15h2.07v4.15h4.15v-4.15h2.08v4.15h4.15v-4.15h2.08v4.15h4.16v-4.15h2.07v4.15h4.15v-4.15h2.08v4.15h2.08v-4.15h6.23v8.31h18.69l4.15-6.23,14.54,12.46v12.46h24.92l4.15,4.15h18.69v-2.08h4.16v2.06l4.15,4.15v16.62l-4.15,6.25ZM68.44,364.29v14.54h16.62l-12.46-14.54h-4.15ZM132.82,345.6h-58.16v6.23l24.93,20.77h2.08l31.15-22.84v-4.15h0ZM207.59,355.98l-4.15,4.15v12.46l2.08,2.08h14.54c-4.88-4.92-7.18-11.83-6.23-18.69,0,0-6.23,0-6.23,0ZM222.13,355.98l.5-.34.15-.1-.15.1-.5.34c-6.34,4.25,0,18.69,0,18.69,0,0,12.46,1.32,12.46-8.31.81-5.16-2.71-9.99-7.87-10.8-1.54-.24-3.12-.1-4.59.42ZM251.21,370.52s-4.15,1.03-4.15-4.15h-2.08v6.23c3.37,1.11,6.85,1.8,10.39,2.08h54l-6.23-4.15h-51.93,0ZM340.52,283.29h-49.85v4.15h49.85v-4.15ZM388.29,283.29h-29.08v2.08l2.08,2.08h27v-4.15Z"/>
  <path class="st0" d="M206.76,109.8h-47.88v-7.98h-35.9v103.72h35.9v-7.98h47.88v-87.77h0Z"/>
  <path class="st0" d="M356.1,197.56h-49.61v-87.77h47.87s35.91,1.41,35.91,43.89-34.17,43.89-34.17,43.89Z"/>
  <path class="st0" d="M270.58,97.83l-51.86,67.82h31.91l-7.98,35.9,51.86-63.83h-31.91l7.98-39.9Z"/>
</svg>