<?xml version="1.0" encoding="UTF-8"?>
<svg id="_图层_1" data-name="图层_1" xmlns="http://www.w3.org/2000/svg" version="1.1" viewBox="0 0 512 512">
  <!-- Generator: Adobe Illustrator 29.5.1, SVG Export Plug-In . SVG Version: 2.1.0 Build 141)  -->
  <defs>
    <style>
      .st0 {
        fill: #fff;
      }

      .st0, .st1 {
        fill-rule: evenodd;
      }

      .st1 {
        fill: #679552;
      }
    </style>
  </defs>
  <path class="st0" d="M377.9,386.03v-44.7h44.7v24.38l-44.7,20.32ZM325.08,276.32h97.52v48.76h-97.52v-48.76ZM377.9,211.3h44.7v48.76h-44.7v-48.76ZM325.08,195.05v-52.83h97.52v52.83h-97.52ZM203.17,195.05v-52.83h105.65v52.83h-105.65ZM89.4,195.05v-52.83h97.52v52.83h-97.52ZM361.65,392.13l-20.32,10.16-77.21-36.57v-24.38h97.52v50.79ZM247.87,260.06h-97.52v-48.76h97.52v48.76ZM186.92,325.08h-97.52v-48.76h97.52v48.76ZM134.1,260.06h-44.7v-48.76h44.7v48.76ZM134.1,341.33v42.67l-44.7-22.35v-20.32h44.7ZM247.87,341.33v24.19l-77.21,36.77-20.32-12.19v-48.76h97.52ZM264.13,211.3h97.52v48.76h-97.52v-48.76ZM203.17,276.32h105.65v48.76h-105.65v-48.76Z"/>
  <path class="st1" d="M20.32,491.68v-81.45l69.08-28.26,81.27,40.63,85.33-40.63,85.33,40.63,81.27-40.63,69.08,29.22v80.49H20.32Z"/>
</svg>