<?xml version="1.0" encoding="UTF-8"?>
<svg id="a" data-name=" 图层 1" xmlns="http://www.w3.org/2000/svg" viewBox="0 0 512 512">
  <path d="M109.71,113.78h40.63v12.19h85.33v93.46h-85.33v12.19h-40.63s0-117.84,0-117.84ZM260.06,125.97v93.46h101.59s44.7.2,44.7-44.7v-4.06s3.33-44.7-44.7-44.7h-101.59Z" style="fill: #fff; fill-rule: evenodd;"/>
  <path d="M101.59,312.89v-8.13h36.57l4.06-12.19h24.38v4.06h16.25v-4.06h8.13v8.13h12.19v-8.13h16.25v8.13h142.22v-8.13h28.44v4.06h12.19v-4.06h28.44l8.13,8.13h12.19l4.06,4.06h20.32v16.25h-8.13v20.32l8.13,8.13h16.25v20.32h-12.19l-8.13,8.13h-32.51l-4.06,4.06h-24.38s8.39,1.02,8.13,12.19c-.13,5.36-8.13,12.19-8.13,12.19h-24.38v8.13h24.38s8.13,7.01,8.13,12.19c.08,1.35.08,2.71,0,4.06-.47,5.18-3.53,9.77-8.13,12.19h-20.32s1.06,4.14-4.06,4.06c-1.71-.95-3.11-2.36-4.06-4.06h-24.38v-60.95h-12.19l-4.06-4.06h-48.76v28.44l-8.13,8.13h-12.19l-4.06,4.06h-44.7l-24.38,44.7h-24.38l-8.13-8.13v-12.19l32.51-40.63v-12.19l-8.13-8.13h-40.63l-20.32-12.19v-12.19h-28.44v-8.13h-40.63v69.08l-12.19,8.13h-20.32l-8.13-8.13v-117.84l8.13-8.13h20.32l12.19,8.13v12.19h40.64ZM249.9,394.16c7.85,0,14.22,3.66,14.22,8.13s-6.37,8.13-14.22,8.13-14.22-3.64-14.22-8.13,6.37-8.13,14.22-8.13Z" style="fill: #49adc9; fill-rule: evenodd;"/>
</svg>