<?xml version="1.0" encoding="UTF-8"?>
<svg id="_图层_1" data-name="图层_1" xmlns="http://www.w3.org/2000/svg" version="1.1" viewBox="0 0 512 512">
  <!-- Generator: Adobe Illustrator 29.5.1, SVG Export Plug-In . SVG Version: 2.1.0 Build 141)  -->
  <defs>
    <style>
      .st0 {
        fill: #fff;
      }

      .st0, .st1 {
        fill-rule: evenodd;
      }

      .st1 {
        fill: #49adc9;
      }
    </style>
  </defs>
  <path class="st1" d="M422.6,398.22h-150.35v-142.22l-52.83-77.21v-48.76l36.57,36.57h48.76v56.89h69.08v-56.89h48.76l36.57-36.57v231.62l-36.57,36.57ZM321.02,207.24v-40.63h36.57v40.63h-36.57ZM264.13,150.35l-44.7-40.63v-44.7h239.75v44.7l-44.7,40.63h-150.35Z"/>
  <path class="st0" d="M211.3,463.24v-32.51h-28.44l-16.25,56.89h-40.63l-16.25-56.89h-28.44v32.51l-44.7-65.02v-134.1l44.7-65.02v32.51h28.44l16.25-56.89h40.63l16.25,56.89h28.44v-32.51l44.7,65.02v134.1l-44.7,65.02ZM166.94,254.58l-76.63,100.21h47.16l-11.78,53.05,76.63-94.31h-47.16l11.79-58.95Z"/>
</svg>