<?xml version="1.0" encoding="UTF-8"?>
<svg id="_图层_1" data-name="图层_1" xmlns="http://www.w3.org/2000/svg" version="1.1" viewBox="0 0 512 512">
  <!-- Generator: Adobe Illustrator 29.5.1, SVG Export Plug-In . SVG Version: 2.1.0 Build 141)  -->
  <defs>
    <style>
      .st0 {
        fill: #fff;
      }

      .st0, .st1 {
        fill-rule: evenodd;
      }

      .st1 {
        fill: #49adc9;
      }
    </style>
  </defs>
  <path class="st1" d="M422.6,398.22h-150.35v-142.22l-52.83-77.21v-48.76l36.57,36.57h48.76v56.89h69.08v-56.89h48.76l36.57-36.57v231.62l-36.57,36.57ZM321.02,207.24v-40.63h36.57v40.63h-36.57ZM264.13,150.35l-44.7-40.63v-44.7h239.75v44.7l-44.7,40.63h-150.35Z"/>
  <path class="st0" d="M81.27,463.24l-44.7-65.02v-134.1l44.7-65.02v32.51h28.44l16.25-56.89h40.63l16.25,56.89h28.44v-32.51l44.7,65.02v134.1l-44.7,65.02v-32.51h-28.44l-16.25,56.89h-40.63l-16.25-56.89h-28.44v32.51ZM173.35,376.4l6.34,6.22,14.79-14.55,10.57,10.4-35.92,35.35-10.57-10.4,14.79-14.55-6.34-6.22-10.57,8.29h-17.88l-10.4-8.29-6.26,6.22,14.55,14.55-10.4,10.4-35.35-35.35,10.4-10.4,14.59,14.59,6.22-6.26-37.47-35.35v-43.72s8.66.04,14.59,0c-.98-48.03,45.75-49.94,45.75-49.94l3.21-.04v.08l2.11.04s47.46,1.91,46.49,49.9c5.97.08,14.79,0,14.79,0v43.68l-38.03,35.35ZM164.57,372.22c2.87,0,5.2-2.33,5.2-5.2,0-2.87-2.33-5.2-5.2-5.2s-5.2,2.33-5.2,5.2h0c0,2.87,2.33,5.2,5.2,5.2ZM164.57,353.52c2.87,0,5.2-2.33,5.2-5.2,0-2.87-2.33-5.2-5.2-5.2-2.86,0-5.18,2.3-5.2,5.16-.02,2.87,2.29,5.22,5.16,5.24.01,0,.03,0,.04,0ZM147.91,382.62c2.87,0,5.2-2.33,5.2-5.2,0-2.87-2.33-5.2-5.2-5.2s-5.2,2.33-5.2,5.2h0c0,2.87,2.33,5.2,5.2,5.2ZM147.91,363.93c2.87,0,5.2-2.33,5.2-5.2,0-2.87-2.33-5.2-5.2-5.2-2.86,0-5.18,2.3-5.2,5.16-.02,2.87,2.29,5.22,5.16,5.24.01,0,.03,0,.04,0ZM147.91,343.08c2.87,0,5.2-2.33,5.2-5.2,0-2.87-2.33-5.2-5.2-5.2s-5.2,2.33-5.2,5.2h0c0,2.87,2.33,5.2,5.2,5.2ZM131.25,372.22c2.87,0,5.2-2.33,5.2-5.2s-2.33-5.2-5.2-5.2-5.2,2.33-5.2,5.2h0c0,2.87,2.33,5.2,5.2,5.2.01,0,.03,0,.04,0h-.04ZM131.25,353.52c2.87,0,5.2-2.33,5.2-5.2s-2.33-5.2-5.2-5.2c-2.86,0-5.18,2.3-5.2,5.16-.02,2.87,2.29,5.22,5.16,5.24.03,0,.05,0,.08,0h-.04ZM186.39,297.33h-76.96v29.14l16.66,12.47,18.69-14.55h5.36l19.22,14.55,17.07-12.47v-29.14h-.04Z"/>
</svg>