<?xml version="1.0" encoding="UTF-8"?>
<svg id="_图层_1" data-name="图层_1" xmlns="http://www.w3.org/2000/svg" version="1.1" viewBox="0 0 512 512">
  <!-- Generator: Adobe Illustrator 29.5.1, SVG Export Plug-In . SVG Version: 2.1.0 Build 141)  -->
  <defs>
    <style>
      .st0 {
        fill: #fff;
        fill-rule: evenodd;
      }

      .st1 {
        fill: #49adc9;
      }
    </style>
  </defs>
  <g>
    <path class="st1" d="M321.02,166.6h36.57v40.63h-36.57v-40.63Z"/>
    <path class="st1" d="M304.76,166.6h-48.76l-36.57-36.57v48.76l52.83,77.21v142.22h150.35l36.57-36.57v-231.62l-36.57,36.57h-48.76v56.89h-69.08v-56.89Z"/>
    <path class="st1" d="M219.43,109.71l44.7,40.63h150.35l44.7-40.63v-44.7h-239.75v44.7Z"/>
  </g>
  <path class="st0" d="M81.27,463.24l-44.7-65.02v-134.1l44.7-65.02v32.51h28.44l16.25-56.89h40.63l16.25,56.89h28.44v-32.51l44.7,65.02v134.1l-44.7,65.02v-32.51h-28.44l-16.25,56.89h-40.63l-16.25-56.89h-28.44v32.51ZM146.29,300.7c17.95-.1,32.59,14.37,32.69,32.32.1,17.95-14.37,32.59-32.32,32.69-17.95.1-32.59-14.37-32.69-32.32-.02-2.8.33-5.6,1.03-8.31,3.69-14.29,16.53-24.3,31.29-24.38ZM36.57,325.08h77.21v16.25H36.57v-16.25ZM138.16,292.57v-32.51h16.25v32.51h-16.25ZM219.43,341.33h-32.51v-16.25h32.51v16.25ZM138.16,406.35v-32.51h16.25v32.51h-16.25ZM85.33,284.44l12.19-12.19,24.38,24.38-12.19,12.19-24.38-24.38ZM195.05,272.25l12.19,12.19-24.38,24.38-12.19-12.19,24.38-24.38ZM85.33,381.97l12.19,12.19,24.38-24.38-12.19-12.19-24.38,24.38ZM195.05,394.16l12.19-12.19-24.38-24.38-12.19,12.19,24.38,24.38Z"/>
</svg>