<?xml version="1.0" encoding="UTF-8"?>
<svg id="_图层_1" data-name="图层_1" xmlns="http://www.w3.org/2000/svg" version="1.1" viewBox="0 0 512 512">
  <!-- Generator: Adobe Illustrator 29.5.1, SVG Export Plug-In . SVG Version: 2.1.0 Build 141)  -->
  <defs>
    <style>
      .st0 {
        fill: #fff;
        fill-rule: evenodd;
      }

      .st1 {
        fill: #49adc9;
      }
    </style>
  </defs>
  <g>
    <path class="st1" d="M321.02,166.6h36.57v40.63h-36.57v-40.63Z"/>
    <path class="st1" d="M304.76,166.6h-48.76l-36.57-36.57v48.76l52.83,77.21v142.22h150.35l36.57-36.57v-231.62l-36.57,36.57h-48.76v56.89h-69.08v-56.89Z"/>
    <path class="st1" d="M219.43,109.71l44.7,40.63h150.35l44.7-40.63v-44.7h-239.75v44.7Z"/>
  </g>
  <path class="st0" d="M81.27,463.24l-44.7-65.02v-134.1l44.7-65.02v32.51h28.44l16.25-56.89h40.63l16.25,56.89h28.44v-32.51l44.7,65.02v134.1l-44.7,65.02v-32.51h-28.44l-16.25,56.89h-40.63l-16.25-56.89h-28.44v32.51ZM85.33,260.06h52.83c0,2.24,1.82,4.06,4.06,4.06h48.76s20.32,8.13,20.32,12.19-20.32,12.19-20.32,12.19h-48.76c-2.24,0-4.06,1.82-4.06,4.06h-52.83v-32.51ZM85.33,312.89h52.83c0,2.24,1.82,4.06,4.06,4.06h48.76s20.32,8.13,20.32,12.19-20.32,12.19-20.32,12.19h-48.76c-2.24,0-4.06,1.82-4.06,4.06h-52.83v-32.51ZM85.33,365.71h52.83c0,2.24,1.82,4.06,4.06,4.06h48.76s20.32,8.13,20.32,12.19-20.32,12.19-20.32,12.19h-48.76c-2.24,0-4.06,1.82-4.06,4.06h-52.83v-32.51Z"/>
</svg>