<?xml version="1.0" encoding="UTF-8"?>
<svg id="_图层_1" data-name="图层_1" xmlns="http://www.w3.org/2000/svg" version="1.1" viewBox="0 0 512 512">
  <!-- Generator: Adobe Illustrator 29.5.1, SVG Export Plug-In . SVG Version: 2.1.0 Build 141)  -->
  <defs>
    <style>
      .st0 {
        fill: #fff;
      }

      .st0, .st1 {
        fill-rule: evenodd;
      }

      .st1 {
        fill: #49adc9;
      }
    </style>
  </defs>
  <path class="st0" d="M373.84,117.84l-12.19,5.08-8.13,3.73h-32.51l-12.19,7.45h-138.16v-44.7h138.16l12.19,7.45h32.51l8.13,3.73,12.19,5.08,8.13,6.1-8.13,6.1ZM134.1,130.37v-40.97h20.32v44.7h-20.32v-3.73ZM373.84,178.79l-12.19,5.08-8.13,3.73h-32.51l-12.19,7.45h-138.16v-44.7h138.16l12.19,7.45h32.51l8.13,3.73,12.19,5.08,8.13,6.1-8.13,6.1ZM134.1,191.32v-40.97h20.32v44.7h-20.32v-3.73ZM373.84,239.75l-12.19,5.08-8.13,3.73h-32.51l-12.19,7.45h-138.16v-44.7h138.16l12.19,7.45h32.51l8.13,3.73,12.19,5.08,8.13,6.1-8.13,6.1ZM134.1,252.27v-40.97h20.32v44.7h-20.32v-3.73Z"/>
  <path class="st1" d="M56.89,329.14h77.21l8.13-8.13h56.89l4.06-4.06h65.02l4.06,8.13h69.08l8.13,16.25h16.25v-4.06h20.32l4.06,4.06,73.14,4.06,4.06-4.06h24.38l4.06,4.06v8.13l-4.06,4.06h-24.38l-4.06-4.06h-77.21v4.06h4.06v12.19h-24.38l12.19,73.14,8.13,8.13v8.13l-28.44-8.13v-8.13h8.13v-8.13l-12.19-4.06-8.13-4.06v-4.06h8.13l-4.06-52.83h-8.13l-8.13,4.06v12.19l-36.57,40.63h-16.25l-4.06,4.06h-8.13l-4.06,8.13h-48.76l-8.13-4.06-8.13-4.06v-60.95h8.13v-8.13h-8.13v4.06l-4.06,4.06v8.13c-.75,1.85-2.22,3.31-4.06,4.06-2.66.71-5.46.71-8.13,0l-4.06-4.06h-4.06v4.06l-16.25,28.44-28.44-4.06-16.25-4.06-20.32-16.25-4.06-4.06h-12.19v4.06h-8.13v-4.06h-24.38l-8.13-8.13-4.06-44.7h24.38ZM48.76,353.52c3.94-1.44,8.25-1.44,12.19,0,1.87,1.71,0,8.13,0,8.13-1.28-.63-2.78-.63-4.06,0-.67,1.25.87,4.27-4.06,4.06-2.2-.09-3.97-1.86-4.06-4.06,0,0-1.17-6.96,0-8.13ZM117.84,369.78c-.22-2.03,1.24-3.86,3.27-4.09.33-.04.65-.03.98.02,1.85-.31,3.6.95,3.91,2.8.07.42.06.85-.03,1.27h4.06c1.14,2.59,1.14,5.54,0,8.13-1.16,1.54-2.53,2.9-4.06,4.06v8.13c-1.35.12-2.71.12-4.06,0-2.86-1.02-5.59-2.38-8.13-4.06-.48-4.05-.48-8.14,0-12.19.77-1.83,2.23-3.29,4.06-4.06ZM142.22,402.29v-12.19l4.06-8.13s13.69,5.21,20.32,4.06c.24-.04-4.06,4.06-4.06,4.06l-8.13,12.19h-12.19ZM203.17,325.08h24.38v4.06c-2.68-.55-5.45-.55-8.13,0-1.88.7-3.36,2.19-4.06,4.06h-12.19v-8.13ZM272.25,333.21v-4.06h8.13l4.06,4.06v8.13c-1.35.11-2.71.11-4.06,0-.85-5.72-8.13-8.13-8.13-8.13ZM292.57,329.14v4.06h12.19l4.06,4.06h4.06v-4.06h-4.06v-4.06h-16.25ZM321.02,329.14v4.06h4.06v4.06h4.06v-4.06l-8.13-4.06ZM312.89,329.14v4.06h4.06v4.06h4.06v-4.06l-8.13-4.06ZM369.78,357.59h-8.13v-4.06c2.67.64,5.46.64,8.13,0v4.06ZM268.19,365.71h8.13s4.42.35,4.06,8.13c-.04,1.01-.6,2.79,4.06,4.06,2.7.26,5.42.26,8.13,0v4.06h-12.19c-2.21-.08-3.98-1.85-4.06-4.06v-8.13h-8.13v-4.06ZM296.63,365.71s-5.1,1.99-4.06,4.06c.08.17,8.13,0,8.13,0,0,0,1.24-1.74-4.06-4.06ZM329.14,329.14v4.06h4.06v4.06h4.06v-4.06l-8.13-4.06ZM243.81,325.08v4.06h-16.25v4.06h24.38v-8.13h-8.13ZM154.41,377.9s-2.36,3.57,12.19,4.06c0,0,2.03-8.28-4.06-8.13s-8.13-1.01-8.13,4.06ZM186.92,369.78c-1.12.58-1.56,1.96-.98,3.08.22.42.56.76.98.98,0,0,2.79,2.07,4.06,0,.76-1.25.76-2.82,0-4.06-.76-2.97-.91-1.95-4.06,0Z"/>
</svg>