<?xml version="1.0" encoding="UTF-8"?>
<svg id="_图层_1" data-name="图层_1" xmlns="http://www.w3.org/2000/svg" version="1.1" viewBox="0 0 512 512">
  <!-- Generator: Adobe Illustrator 29.5.1, SVG Export Plug-In . SVG Version: 2.1.0 Build 141)  -->
  <defs>
    <style>
      .st0, .st1 {
        fill: #fff;
      }

      .st1 {
        fill-rule: evenodd;
      }

      .st2 {
        fill: #c9b269;
      }
    </style>
  </defs>
  <path class="st0" d="M256,442.92h-117.84l-52.83-56.89,60.95,8.13-8.13-48.76,44.7,44.7v-81.27l56.89,52.83s10.16-87.37,12.19-121.9c1.63-26.82-16.25-56.89-16.25-56.89l-44.7,4.06c-9.35.81-36.98-4.06-36.57-36.57.41-32.51,32.51-24.38,32.51-24.38,0,0,4.88-28.44,44.7-20.32,0,0-3.66-20.32,24.38-20.32v357.59ZM256,442.92h117.84l52.83-56.89-60.95,8.13,8.13-48.76-44.7,44.7v-81.27l-56.89,52.83s-10.16-87.37-12.19-121.9c-1.63-26.82,16.25-56.89,16.25-56.89l48.76,4.06c9.35.81,32.91-4.06,32.51-36.57s-32.51-24.38-32.51-24.38c0,0-4.88-28.44-44.7-20.32,0,0,3.66-20.32-24.38-20.32v357.59Z"/>
  <path class="st1" d="M256,215.37c67.45,0,121.9,14.63,121.9,32.51s-54.45,32.51-121.9,32.51-121.9-14.63-121.9-32.51,54.45-32.51,121.9-32.51ZM256,231.62c49.57,0,89.4,7.31,89.4,16.25s-39.82,16.25-89.4,16.25-89.4-7.31-89.4-16.25,40.23-16.25,89.4-16.25Z"/>
  <path class="st2" d="M16.25,495.75v-81.27l81.27,81.27H16.25ZM495.75,495.75v-81.27l-81.27,81.27h81.27ZM495.75,16.25v81.27l-81.27-81.27h81.27ZM16.25,16.25v81.27L97.52,16.25H16.25Z"/>
</svg>