<?xml version="1.0" encoding="UTF-8"?>
<svg id="_图层_1" data-name="图层_1" xmlns="http://www.w3.org/2000/svg" version="1.1" viewBox="0 0 512 512">
  <!-- Generator: Adobe Illustrator 29.5.1, SVG Export Plug-In . SVG Version: 2.1.0 Build 141)  -->
  <defs>
    <style>
      .st0 {
        fill: #fff;
      }

      .st0, .st1 {
        fill-rule: evenodd;
      }

      .st1, .st2 {
        fill: #49adc9;
      }
    </style>
  </defs>
  <path class="st2" d="M321.02,166.6h36.57v40.63h-36.57v-40.63Z"/>
  <path class="st1" d="M422.6,398.22h-163.22l-3.38-40.63-28.44,24.38v-40.63s36.57-6.13,36.57-36.57-36.57-32.51-36.57-32.51c0,0,24.38-16.69,24.38-40.63s-28.44-40.63-28.44-40.63l-4.06-8.13v-52.83l36.57,36.57h48.76v56.89h69.08v-56.89h48.76l36.57-36.57v231.62l-36.57,36.57Z"/>
  <path class="st1" d="M219.43,109.71l44.7,40.63h150.35l44.7-40.63v-44.7h-239.75v44.7Z"/>
  <path class="st0" d="M162.54,329.14l4.06,69.08,44.7-44.7v65.02l32.51-32.51v32.51h36.57l-36.57,36.57H65.02l-36.57-36.57h36.57v-32.51l32.51,32.51v-65.02l44.7,44.7,4.06-69.08s-85.33.59-85.33-24.38c0-16.68,81.27-20.32,81.27-20.32-3.87-20.6-12.19-24.38-12.19-24.38h-32.51s-20.32-2.49-20.32-28.44,24.38-24.38,24.38-24.38c1.8-25.64,28.44-20.32,28.44-20.32.47-6.53,5.66-11.72,12.19-12.19,1.22-5.75,12.19-4.06,12.19-4.06,0,0,10.97-1.69,12.19,4.06,6.53.47,11.72,5.66,12.19,12.19,0,0,26.64-5.32,28.44,20.32,0,0,24.38-1.57,24.38,24.38s-20.32,28.44-20.32,28.44h-32.51s-8.32,3.78-12.19,24.38c0,0,81.27,3.63,81.27,20.32,0,24.97-85.33,24.38-85.33,24.38ZM146.29,300.7c-.29-2.06-52.83-1.95-52.83,8.13,0,6.05,52.34,7.09,52.83,4.06.69-4.03.69-8.16,0-12.19ZM162.54,300.7c-.69,4.03-.69,8.16,0,12.19.48,3.03,52.83,1.98,52.83-4.06,0-10.07-52.54-10.18-52.83-8.13Z"/>
</svg>