<?xml version="1.0" encoding="UTF-8"?>
<svg id="a" data-name=" 图层 1" xmlns="http://www.w3.org/2000/svg" viewBox="0 0 512 512">
  <path d="M16.25,495.75v-81.27l81.27,81.27H16.25ZM495.75,495.75v-81.27l-81.27,81.27h81.27ZM495.75,16.25v81.27l-81.27-81.27h81.27ZM16.25,16.25v81.27L97.52,16.25H16.25Z" style="fill: #c9b269;"/>
  <path d="M146.29,206.43c.41-2.03,2.44-7.31,12.19-7.31h81.27V56.89c-.23-4.26,3.04-7.9,7.29-8.13h17.9c4.26.22,7.53,3.85,7.32,8.11v142.24h81.27c12.19,0,12.19,8.13,12.19,8.13v12.19l-17.47,41.04-201.96-54.04ZM282.41,413.66l-59.73-16.25-19.5-44.7,94.68,24.79-15.44,36.17h-.01ZM256,475.43l-25.19-58.92,45.1,12.19-19.91,46.73h0ZM195.05,333.21l-19.5-44.7,144.25,38.6-15.44,35.76-109.31-29.66h0ZM148.32,223.49l193.02,52.42-15.44,36.17-158.48-42.67-19.1-45.92h0Z" style="fill: #fff;"/>
</svg>