<?xml version="1.0" encoding="UTF-8"?>
<svg id="a" data-name=" 图层 1" xmlns="http://www.w3.org/2000/svg" viewBox="0 0 512 512">
  <path d="M405.8,125.97c-16.36-24.22-37.38-44.94-61.83-60.95h147.71v60.95h-85.88ZM412.68,223.49v56.89h-209.54v-24.38h73.18l8.13-8.13,32.51-4.06,24.38-16.25,12.19-16.25-12.19-16.25-20.32-16.25v-8.13l20.32-16.25,12.19-16.25-12.19-16.25-24.38-16.25-32.51-4.06-8.13-8.13h-73.18v-28.44h75.58s133.96-.13,133.96,158.48v-.04ZM388.63,300.7v65.02h-151.16v-65.02h151.16ZM416.1,381.97l44.66,65.02H158.48l44.66-65.02h212.97,0Z" style="fill: #679552; fill-rule: evenodd;"/>
  <path d="M158.48,113.78v48.76h110.73l4.57-6.96h36.57l4.57-6.97h13.71l8.63-10.45-8.63-10.45h-13.71l-4.57-6.96h-36.57l-4.57-6.97h-110.73,0Z" style="fill: #fff; fill-rule: evenodd;"/>
  <path d="M158.48,186.92v48.76h110.73l4.57-6.96h36.57l4.57-6.97h13.71l8.63-10.45-8.63-10.45h-13.71l-4.57-6.96h-36.57l-4.57-6.97h-110.73,0Z" style="fill: #fff; fill-rule: evenodd;"/>
  <circle cx="73.14" cy="97.52" r="36.57" style="fill: #fff;"/>
  <path d="M20.32,138.16v162.54h20.32v150.35h65.02v-150.35h20.32v-162.54H20.32Z" style="fill: #fff; fill-rule: evenodd;"/>
</svg>