<?xml version="1.0" encoding="UTF-8"?>
<svg id="a" data-name=" 图层 1" xmlns="http://www.w3.org/2000/svg" viewBox="0 0 512 512">
  <path d="M219.43,365.71l8.13,97.52h20.32v-97.52h-28.45Z" style="fill: #fff; fill-rule: evenodd;"/>
  <path d="M295.36,365.71l-8.13,97.52h-20.32v-97.52h28.45Z" style="fill: #fff; fill-rule: evenodd;"/>
  <path d="M166.6,365.71l-8.13,48.76h-16.25l-1.27-48.76h25.65Z" style="fill: #fff; fill-rule: evenodd;"/>
  <path d="M107.22,365.71l8.13,48.76h16.25l1.28-48.76h-25.66Z" style="fill: #fff; fill-rule: evenodd;"/>
  <path d="M408.89,365.71l-8.13,48.76h-16.25l-1.27-48.76h25.65Z" style="fill: #fff; fill-rule: evenodd;"/>
  <path d="M349.51,365.71l8.13,48.76h16.25l1.27-48.76h-25.65Z" style="fill: #fff; fill-rule: evenodd;"/>
  <path d="M105.65,349.46v-109.71h121.9V65.02h60.95v174.73h121.9v109.71h-60.95v-48.76h-182.86v48.76h-60.95.01Z" style="fill: #fff; fill-rule: evenodd;"/>
  <rect x="182.86" y="316.95" width="150.35" height="32.51" style="fill: #49adc9;"/>
  <rect x="134.1" y="65.02" width="77.21" height="158.48" style="fill: #49adc9;"/>
  <rect x="304.76" y="65.02" width="77.21" height="158.48" style="fill: #49adc9;"/>
</svg>