<?xml version="1.0" encoding="UTF-8"?>
<svg id="_图层_1" data-name="图层_1" xmlns="http://www.w3.org/2000/svg" version="1.1" viewBox="0 0 512 512">
  <!-- Generator: Adobe Illustrator 29.5.1, SVG Export Plug-In . SVG Version: 2.1.0 Build 141)  -->
  <defs>
    <style>
      .st0 {
        fill: #fff;
        fill-rule: evenodd;
      }

      .st1 {
        fill: #49adc9;
      }
    </style>
  </defs>
  <path class="st0" d="M219.43,365.71l8.13,97.52h20.32v-97.52h-28.44Z"/>
  <path class="st0" d="M295.36,365.71l-8.13,97.52h-20.32v-97.52h28.44Z"/>
  <path class="st0" d="M166.6,365.71l-8.13,48.76h-16.25l-1.27-48.76h25.65Z"/>
  <path class="st0" d="M107.22,365.71l8.13,48.76h16.25l1.28-48.76h-25.66Z"/>
  <path class="st0" d="M408.89,365.71l-8.13,48.76h-16.25l-1.27-48.76h25.65Z"/>
  <path class="st0" d="M349.51,365.71l8.13,48.76h16.25l1.27-48.76h-25.65Z"/>
  <path class="st0" d="M105.65,349.46v-109.71h121.9V65.02h60.95v174.73h121.9v109.71h-60.95v-48.76h-182.86v48.76h-60.95Z"/>
  <rect class="st1" x="182.86" y="316.95" width="150.35" height="32.51"/>
  <rect class="st1" x="134.1" y="65.02" width="77.21" height="158.48"/>
  <rect class="st1" x="304.76" y="65.02" width="77.21" height="158.48"/>
</svg>