<?xml version="1.0" encoding="UTF-8"?>
<svg id="_图层_1" data-name="图层_1" xmlns="http://www.w3.org/2000/svg" version="1.1" viewBox="0 0 512 512">
  <!-- Generator: Adobe Illustrator 29.5.1, SVG Export Plug-In . SVG Version: 2.1.0 Build 141)  -->
  <defs>
    <style>
      .st0 {
        fill: #679552;
      }

      .st1 {
        fill: #fff;
      }
    </style>
  </defs>
  <path class="st0" d="M491.68,491.68H20.32v-81.27l69.08-28.44,81.27,40.63,85.33-40.63,85.33,40.63,81.27-40.63,69.08,29.26v80.46Z"/>
  <path class="st1" d="M117.84,377.9v-44.7h276.32v44.7l-52.83,24.38-85.33-40.63-85.33,40.63-52.83-24.38Z"/>
  <path class="st1" d="M235.68,316.95l-48.76-48.76v-48.76l36.57-32.51,16.25-60.95,40.63,56.89v28.44l16.25-16.25,40.63,48.76-73.14,73.14v-32.51l16.25-16.25-24.38-12.19v-32.51l-28.44,40.63,12.19,16.25v36.57h-4.06ZM211.3,316.95h-56.89v-36.57h20.32l36.57,36.57ZM325.08,280.38h32.51v36.57h-69.08l36.57-36.57Z"/>
</svg>