<?xml version="1.0" encoding="UTF-8"?><svg id="a" xmlns="http://www.w3.org/2000/svg" viewBox="0 0 512 512"><path d="M262.74,327.86l35.93,35.93h71.86v53.89H101.05v-89.82h161.68ZM202.11,300.91v8.98h-74.11v-35.93h56.14v-24.7h17.96v33.68h60.63v17.96h-60.63ZM370.53,435.65c0,14.87-12.07,26.95-26.95,26.95s-26.95-12.07-26.95-26.95h53.89ZM154.95,435.65c0,14.87-12.07,26.95-26.95,26.95s-26.95-12.07-26.95-26.95h53.89ZM384,363.79h17.96l8.98,62.88h-26.95v-62.88Z" style="fill:#55b9d2; fill-rule:evenodd;"/><path d="M231.3,240.28l-49.4-49.4v-49.4l40.42-40.42v-62.88l56.14,56.14v60.63l17.96-44.91,22.46,74.11-56.14,56.14v-33.68l15.72-15.72-24.7-24.7v-31.44l-47.16,47.16,24.7,24.7v33.68Z" style="fill:#fff; fill-rule:evenodd;"/></svg>