<?xml version="1.0" encoding="UTF-8"?>
<svg id="a" data-name=" 图层 1" xmlns="http://www.w3.org/2000/svg" viewBox="0 0 512 512">
  <path d="M125.97,337.27v-97.52l-52.83,97.52h52.83Z" style="fill: #49adc9;"/>
  <path d="M142.22,353.52l8.13,101.59h20.32v-101.59h-28.45ZM182.86,353.52v101.59h20.32l8.13-101.59h-28.45ZM308.83,353.52l8.13,101.59h20.32v-101.59h-28.45ZM349.46,353.52v101.59h20.32l8.13-101.59h-28.45ZM142.22,337.27v-203.17h69.08v203.17h-69.08Z" style="fill: #fff;"/>
  <path d="M308.83,134.1h69.08v203.17h-69.08v-203.17h0Z" style="fill: #fff;"/>
  <path d="M394.16,337.27h52.83l-52.83-97.52v97.52h0ZM227.56,337.27V117.84h-85.33v-52.83h235.68v52.83h-85.33v219.43h-65.02,0Z" style="fill: #49adc9;"/>
</svg>