<?xml version="1.0" encoding="UTF-8"?>
<svg id="_图层_1" data-name="图层_1" xmlns="http://www.w3.org/2000/svg" version="1.1" viewBox="0 0 512 512">
  <!-- Generator: Adobe Illustrator 29.5.1, SVG Export Plug-In . SVG Version: 2.1.0 Build 141)  -->
  <defs>
    <style>
      .st0 {
        fill: #fff;
      }

      .st1 {
        fill: #49adc9;
      }
    </style>
  </defs>
  <path class="st1" d="M479.49,386.03h-69.08v8.13h-16.25v24.38l-20.32,20.32h-20.32l-4.06,24.38v4.06h-24.38l-32.51-12.19-4.06-8.13,16.25-20.32v-12.19h-44.7l-8.13-8.13v-12.19h-12.19l-8.13,12.19v24.38h-4.06v24.38h-28.44v-24.38l-28.44-32.51h-20.32v-16.25h-12.19v8.13h-28.44v-8.13h-52.83l-8.13,12.19h-16.25v-12.19h-12.19v-60.95h12.19v-12.19h16.25l8.13,12.19h52.83v-12.19h28.44v12.19h20.32v-44.7h12.19v16.25h89.4v16.25h8.13v-28.44h12.19v36.57h24.38l16.25,12.19h93.46v-4.06h16.25v-12.19h8.13v12.19h8.13v-12.19h8.13v12.19h8.13v-12.19h8.13v12.19h12.19v-8.13h8.13v60.95l-12.19,8.13ZM219.43,406.35h-4.06v20.32h4.06v-20.32ZM219.43,430.73h-4.06v20.32h4.06v-20.32ZM316.95,438.86v16.25h24.38v-28.44h-12.19l-12.19,12.19ZM361.65,410.41h-20.32v12.19h20.32v-12.19Z"/>
  <path class="st0" d="M381.97,154.41v-16.25h40.63v16.25h-40.63ZM361.65,102.4l28.85-28.85,11.38,11.38-28.44,28.85-11.78-11.38ZM329.14,186.92c-17.69-.07-33.3-11.57-38.6-28.44H93.46v-24.38h197.08c6.73-21.41,29.55-33.31,50.95-26.57,21.41,6.73,33.31,29.55,26.57,50.95-5.34,16.98-21.12,28.51-38.92,28.44ZM321.02,52.83h16.25v40.63h-16.25v-40.63ZM256,84.93l11.78-12.19,28.85,29.26-11.78,12.19-28.85-29.26ZM296.63,190.58l-28.44,28.85-12.19-11.78,29.26-28.85,11.38,11.78ZM337.27,239.75h-16.25v-40.63h16.25v40.63ZM402.29,207.24l-11.38,12.19-28.85-28.44,11.38-11.78,28.85,28.04Z"/>
</svg>