<?xml version="1.0" encoding="UTF-8"?>
<svg id="a" data-name=" 图层 1" xmlns="http://www.w3.org/2000/svg" viewBox="0 0 512 512">
  <path d="M365.71,134.1s-24.41-33.73-73.14-60.95h174.73v60.95h-101.59ZM373.84,231.62v56.89H125.97v-77.21h28.44l-24.38,24.38,32.51,28.44,28.44-28.44v40.63h40.63v-40.63h4.06l32.51,28.44,28.44-28.44-32.51-28.44h36.57v-40.63h-36.57l32.51-28.44-28.44-28.44-32.51,28.44h-4.06v-40.63h-40.63v40.63l-28.44-28.44-32.51,28.44,24.38,24.38h-28.44v-89.4h89.4s158.48-.13,158.48,158.48h0ZM345.4,308.83v65.02h-178.79v-65.02h178.79ZM377.9,390.1l52.83,65.02H73.14l52.83-65.02h251.94-.01Z" style="fill: #679552; fill-rule: evenodd;"/>
  <path d="M210.33,153.38c18.24,0,33.03,14.78,33.03,33.02s-14.78,33.03-33.02,33.03-33.03-14.78-33.03-33.02h0c0-18.24,14.78-33.03,33.02-33.03Z" style="fill: #fff; fill-rule: evenodd;"/>
  <path d="M20.32,178.79h186.92v16.25H20.32v-16.25ZM203.17,109.71h16.25v32.51h-16.25v-32.51Z" style="fill: #fff;"/>
  <path d="M203.17,231.62h16.25v32.51h-16.25v-32.51h0Z" style="fill: #fff;"/>
  <path d="M260.96,195.05v-16.25h32.51v16.25h-32.51Z" style="fill: #fff; fill-rule: evenodd;"/>
  <path d="M256,159.46l-11.49-11.49,22.99-22.99,11.5,11.49-22.99,22.99h-.01Z" style="fill: #fff; fill-rule: evenodd;"/>
  <path d="M146.83,136.39l11.49-11.49,22.99,22.99-11.49,11.49-22.99-22.99Z" style="fill: #fff; fill-rule: evenodd;"/>
  <path d="M257.07,215.4l-11.66,10.82,23.32,21.63,11.65-10.82-23.31-21.63Z" style="fill: #fff; fill-rule: evenodd;"/>
  <path d="M146.32,237.11l11.66,10.82,23.32-21.63-11.66-10.82-23.32,21.63h0Z" style="fill: #fff; fill-rule: evenodd;"/>
</svg>