<?xml version="1.0" encoding="UTF-8"?>
<svg id="a" xmlns="http://www.w3.org/2000/svg" viewBox="0 0 720 666.1">
  <g id="b">
    <path id="c" d="M500.41,146.6s69.15,67.74,69.19,171.57c.04,103.82-67.15,153.26-85.83,166.5-18.68,13.24-45.67,25.43-67.47,30.39-21.8,4.96-32.15,6.34-47.39,13.84-15.24,7.5-12.66,3.51-20.98,14.47-8.32,10.96-31.11,40.88-31.11,40.88l7.78,3.71s7.94-9.41,15.1-16.28c0,0,3.59-4.13,5.61-4.7,3.11-1.71,48.7-24.92,68.83-30.3,20.12-5.37,42.04-12,58.61-21.43,16.56-9.43,63.8-40.21,84.47-79.23,18.99-35.84,29.07-51.86,31.84-117.86-1.82-33.57-5.76-82.74-44.32-143.34,0,0-1.66-4.57-7.96-8.05-6.3-3.48-36.36-20.17-36.36-20.17h0Z" style="fill: #fff; fill-rule: evenodd;"/>
    <path id="d" d="M583.64,244.04s35.28,93.38-13.32,184.19c-15.49,28.93-42.25,60.54-75.7,82.3-27.26,19.11-68.01,30.21-68.01,30.21l-27.86,8.05s-10.2,3.84-28.49,10.94c-10.16,3.95-17.18,10.4-17.18,10.4l32.83-2.89,29.66-2.98,9.41-2.08s110.07-20.72,164.69-126.62c6.29-15.74,16.46-34.69,20.62-59.15,4.09-24.07,7.05-52.62,2.35-87.91,0,0,.27-5.32-3.98-11.12-4.25-5.81-25.02-33.34-25.02-33.34h0Z" style="fill: #fff; fill-rule: evenodd;"/>
    <path id="e" d="M326.73,561.62c-1.06,2.26-13.8-.52-13.8-.52l-10.58-2.53s-108.38-21.08-163.01-126.99c-6.29-15.75-16.47-34.7-20.62-59.15-4.09-24.08-6.38-51.87-1.68-87.16,0,0,.73-13,4.97-18.81,4.25-5.81,26.59-32.65,26.59-32.65,0,0-38.52,99.63,10.1,190.45,15.49,28.94,42.25,60.55,75.71,82.31,27.26,19.12,68.02,30.21,68.02,30.21l27.86,8.05s2.47.93,7.16,2.72c-3.17,4.17-7.24,6.67-10.71,14.08h0Z" style="fill: #fff; fill-rule: evenodd;"/>
    <g id="f">
      <path id="g" d="M345.61,537.71l-.94.59s-20.99-1.26-29.48-3.53c-20.12-5.37-41.84-14.98-59.06-23.15-23.13-10.98-56.5-38.53-80.58-75.43-23.34-35.75-31.24-53.93-34.01-119.92,1.82-33.57,4.49-82.75,43.05-143.35,0,0,1.66-4.57,7.96-8.05s36.36-20.17,36.36-20.17c0,0-69.15,67.74-69.19,171.57-.04,103.82,67.15,153.26,85.83,166.5,18.68,13.24,52.01,26.19,68.74,30.12,28.85,3.96,47.4,11.28,49.11,12.3,19.66-9.47-12.68,5.9-17.78,12.52Z" style="fill: #fff; fill-rule: evenodd;"/>
      <path d="M380.21,572.49l13.66.09,10.22,13.84-8.32,2.71-15.1-13.29-.45-3.35Z" style="fill: #fff; fill-rule: evenodd;"/>
    </g>
  </g>
  <g id="h">
    <path id="i" d="M364.48,125.71c106.39,0,192.64,86.25,192.64,192.64s-86.25,192.64-192.64,192.64-192.64-86.25-192.64-192.64,86.25-192.64,192.64-192.64ZM364.52,139.82c98.62,0,178.58,79.95,178.58,178.58s-79.95,178.58-178.58,178.58-178.58-79.95-178.58-178.58,79.95-178.58,178.58-178.58Z" style="fill: #fff; fill-rule: evenodd;"/>
    <path id="j" d="M364.52,181.79c75.45,0,136.61,61.16,136.61,136.61s-61.16,136.61-136.61,136.61-136.61-61.16-136.61-136.61,61.16-136.61,136.61-136.61ZM364.48,190.56c70.58,0,127.79,57.21,127.79,127.79s-57.21,127.79-127.79,127.79-127.79-57.21-127.79-127.79,57.21-127.79,127.79-127.79Z" style="fill: #fff; fill-rule: evenodd;"/>
    <path id="k" d="M364.52,263.45c30.34,0,54.94,24.6,54.94,54.94s-24.6,54.94-54.94,54.94-54.94-24.6-54.94-54.94,24.6-54.94,54.94-54.94ZM364.57,271.5c25.92,0,46.94,21.01,46.94,46.94s-21.01,46.94-46.94,46.94-46.94-21.01-46.94-46.94,21.01-46.94,46.94-46.94Z" style="fill: #fff; fill-rule: evenodd;"/>
  </g>
  <g id="l">
    <path d="M215.16,437.01l-6.24,5.52,8.14,9.41,8.59-6.69-10.49-8.23Z" style="fill: #fff; fill-rule: evenodd;"/>
    <path d="M229.81,463.87l5.34-8.77,20.44,16.37-7.69,6.15-18.09-13.75Z" style="fill: #fff; fill-rule: evenodd;"/>
    <path d="M479.61,465.23l7.14,9.22-14.65,11.31-6.78-6.87,14.29-13.66Z" style="fill: #fff; fill-rule: evenodd;"/>
    <path d="M486.3,464.32l7.24,4.88,19.63-18.27-6.06-10.04-20.8,23.42Z" style="fill: #fff; fill-rule: evenodd;"/>
    <path d="M327.31,129.33v-36.9l-5.34.36-.18-8.14-16.19-.09-8.59,16.01s-8.99,11.53-7.05,22.7l.27,11.94s-.71,7.45-23.42,18.09c-22.71,10.64,57.7-18.99,57.7-18.99l2.8-4.97Z" style="fill: #fff; fill-rule: evenodd;"/>
    <path d="M338.34,130.05V62.68s-1.05-7.11,5.25-19.99,14.29-33.28,14.29-33.28h21.62v13.57h7.24v10.58h6.15v99.03l-54.54-2.53Z" style="fill: #fff; fill-rule: evenodd;"/>
    <path d="M400.02,129.96s-1.01-4,3.35-5.7v-45.13l5.25-1.63v-11.21h14.47l16.01,27.95s1.81,2.56,1.81,13.48v23.88s.4,8.51,5.16,13.02c0,0-44.64-10.45-44.5-10.76s-1.54-3.89-1.54-3.89Z" style="fill: #fff; fill-rule: evenodd;"/>
    <path d="M211.36,416.3l19.08,23.33s10.63-8.49,17.73.36l2.98,3.71s1.75,3.6,5.61,3.35l4.88-.36s4.17-4.73,4.7-10.85c.53-6.12,4.52-21.16,4.52-21.16,0,0-21.9-29.67-22.79-30.48s-3.98-2.17-3.98-2.17l-5.25-4.43s2.21,11.65,1.63,18l-7.33-1.54s-5.29.67-4.34-6.42l.45-3.89-5.43,1.36s-5.59,5.9-2.62,11.94l-5.88-1.81s-.97,5.61-.27,9.86-3.71,11.21-3.71,11.21Z" style="fill: #fff; fill-rule: evenodd;"/>
    <path d="M235.33,356.52s-5.77.86-10.67-.99l-3.89,7.14s4.38-.74,8.68,4.97c4.3,5.72,8.05,3.26,8.05,3.26l.9-3.89-3.07-10.49Z" style="fill: #fff; fill-rule: evenodd;"/>
    <path d="M375.42,354.8s.24,14.24-2.26,26.23l-.9,3.62,3.35,2.17-2.26,9.13s5.14-.78,8.95,7.42c3.82,8.2,14.2,13.48,14.2,13.48l9.22.18s6.6-.08,8.77,7.96c2.17,8.04,9.41,28.76,9.41,28.76,0,0,1.49,6.99,10.58,8.77l.54,4.16s9.95,3.78,16.37-1.99c3.27-2.93.54-9.32.54-9.32l-1.45-5.43,8.68-12.21-.72-4.16,6.78-5.25s5.27-7.55,6.33-18c.56-5.49,10.58-8.77,10.58-8.77,0,0,4.85-3.86,8.32-13.84l-3.26-5.97,6.87-10.22s6.27-13.56-12.12-11.03c0,0-8.53-.56-16.01,3.98l-1.27-5.25s-7.14,1.98-10.22,4.88-9.22,1.45-9.22,1.45l5.06-8.32-4.16-6.6s-9.09-4.19-14.38-.36c0,0-18.24-13.2-28.04-7.96l-3.07,1.27-5.06-4.16s-3.36,4.94-7.14,1.09c0,0-12.48,9.93-13.02,14.29Z" style="fill: #fff; fill-rule: evenodd;"/>
    <path d="M531.43,382.84s-.74-4.79-5.52-6.6-12.12.36-12.12.36c0,0-3.58-16.66,3.35-28.76s7.51-9.5,7.51-9.5c0,0,2.51-5.94,3.26-9.59,0,0,10.91-1.18,16.37-4.52l1.27,21.16-10.31,39.7-3.8-2.26Z" style="fill: #fff; fill-rule: evenodd;"/>
    <path d="M503.57,316.27l3.26-7.51,13.2,4.25,21.25.18,2.98,5.16-40.34-.54-.36-1.54Z" style="fill: #fff; fill-rule: evenodd;"/>
    <path d="M542.92,294.57s-14.7,3.55-20.35-9.5l-3.8,13.02-5.52-2.08s-3.08-22.69-1.45-29.85c0,0-3.93-2.47-23.33,3.44,0,0-1.17-2.12,1.36-4.52s5.79-13.2,5.79-13.2c0,0-1.13-7.39,0-10.67,0,0-7.18-4.67-6.96-11.12,0,0-3.95-3.73-3.8-9.41l-2.44,8.77,3.89,2.26s-1.12,4.24.72,6.6c0,0-15.61-1.88-19.44-4.43l-8.41-9.13,3.71-.36,8.05-8.5s.63-1.02.99-4.7c.37-3.68.36-3.8.36-3.8l6.24-2.26s-5.28-6.52-5.43-9.32c0,0,4.89.29,9.5,5.16l2.8,2.08v-5.7s-2.52-1.45-3.8-2.98-4.52-.63-4.52-.63l-6.33,1.18s-1.55-2.52-1.27-8.32c.24-4.83-1.36-6.69-1.36-6.69l-2.62,4.61s-2.24-3.6-2.44-7.33c0,0-14.26-1.32-18.09-7.78l-.72-1.63,5.52-2.17,11.03,2.08s38.25,21.75,38.35,22.43,17.46,23.7,17.46,23.7l13.48,24.24,12.48,27.58,3.62,20.98-3.26,7.96ZM491.09,216.88l.72-9.59,6.78,1.45-3.44,2.08-1.27,7.69-2.8-1.63Z" style="fill: #fff; fill-rule: evenodd;"/>
    <path d="M424.8,148.41s8.69,6.69,9.68,12.39c0,0,5.37-7.21,3.53-15.47l-13.2,3.07Z" style="fill: #fff; fill-rule: evenodd;"/>
    <path d="M438.73,206.39l5.52-6.15s5.42,3.25,6.15,6.69l-5.61.72-2.08,2.17-3.98-3.44Z" style="fill: #fff; fill-rule: evenodd;"/>
    <path d="M392.15,309.67s6.03-2.32,10.4-.18c0,0-3.33,3.69-7.69,3.89l-2.71-3.71Z" style="fill: #fff; fill-rule: evenodd;"/>
    <path d="M369.18,302.07s3.92-2.14,10.31,1.9,7.87,2.89,7.87,2.89c0,0-.99,1.93-5.61,1.36,0,0-.7-.66-1.9-.36,0,0-3.59-4.41-10.67-5.79Z" style="fill: #fff; fill-rule: evenodd;"/>
    <path d="M399.48,188.03l.9-6.87,10.04-5.7-1.63-10.85,5.06-1.09s1.1-7.25,4.88-8.86c0,0,12.53,4.74,8.41,12.21l2.8,5.06s5.89-2.65,8.05-6.42c0,0-1.48,11.72,8.59,22.43l1.9,5.43s-6.84,4.52-19.17,5.16l-13.57-.27-17-8.14.72-2.08Z" style="fill: #fff; fill-rule: evenodd;"/>
    <path d="M393.42,185.77l2.17-6.15s-13.68-7.74-15.92-7.96c0,0-1.79-2.41,2.08-7.87,3.87-5.45,5.97-9.22,5.97-9.22,0,0,5.84-3.15,11.76-8.32,5.92-5.17,8.95-3.62,8.95-3.62,0,0-39.51-11.51-41.24-11.76s-36.34,1.91-37.8,2.53-25.14,7.51-25.14,7.51l-16.1,7.6-41.24,22.79-1.63,8.23s.19,5.91,4.88,7.42l-1.9,4.43s.69.11,4.43-1.9,19.78-11.85,24.24-11.67,10.73,2.9,15.01,7.42,4.94,4.5,2.26,12.84c0,0-1.32,4.86-1.45,7.78,0,0,19.48-14.28,51.28-18.63s48.57.81,48.57.81l.81-2.26Z" style="fill: #fff; fill-rule: evenodd;"/>
    <path d="M295.65,207.11s.07.29.18.77c.57,2.39,2.26,9.54,2.26,9.54,0,0-24.95,17.83-24.42,53.9,0,0,3.7,5.81,6.15,6.69,0,0-.16,8.65,2.26,11.03,0,0,5.59-3.25,7.96,3.26,0,0,1.46,9.94,7.14,13.2s4.97,8.59,4.97,8.59c0,0-.82,8.99,2.26,14.11,0,0,38.33,8.19,42.6,10.94,4.26,2.75,5.95,1.25,10.94,12.39,0,0,10.79,3.4,13.39,1.18l-9.77-12.57-.36-11.31s-4.26-.55-8.23,2.26c-2.4,1.7-5.97.81-5.97.81,0,0,4.65-15.66,4.97-21.98,0,0-5.71-.43-7.42,6.24s-9.04,8.86-9.04,8.86c0,0-4.84,4.91-10.85-8.68-6.02-13.6,1.32-16.8,6.15-23.7l3.07,1.99,2.98-4.43-2.44-3.44s7.33-9.37,14.74-5.97l5.88-6.06s6.31,2.57,13.02,1.9c0,0-.66,9.63,2.08,13.75,0,0,4.21-2.63,2.53-8.95,0,0-3.47-6.74-1.45-10.67s12.3-13.84,12.3-13.84c0,0,6.76-4.46,5.7-15.28,0,0,8.45-7.64,15.28-12.75,6.83-5.11,8.68-10.22,8.68-10.22,0,0,1.37-3.12,7.05-.72,0,0,3.51.73,6.06-1.36l3.71-1.9s-5.27-5.69-7.51-12.21-29.39-13.93-29.39-13.93l-22.16-1.9s-46.83,4.99-48.2,5.52-25.78,13.57-25.78,13.57l-1.36,1.36ZM369.45,204.58s-4.87,3.72-3.71,9.41l4.79,2.98s-5.48,6.5-5.16,11.12-.16,7.49,6.69,2.71c6.85-4.78,4.79-3.44,4.79-3.44l2.53,4.79,8.14-4.07-3.44-7.78,7.33,3.98,6.51-6.33-16.46-8.41s.46-8.24-7.05-5.16c0,0-3.26.18-4.97.18Z" style="fill: #fff; fill-rule: evenodd;"/>
  </g>
  <g id="m">
    <rect x="362.22" y="367.82" width="4.97" height="135.75" style="fill: #fff;"/>
    <path id="n" d="M325.67,351.63l3.52,3.52-95.99,95.99-3.52-3.52,95.99-95.99h0Z" style="fill: #fff; fill-rule: evenodd;"/>
    <path id="o" d="M403.72,351.63l-3.52,3.52,95.96,95.99,3.52-3.52-95.96-95.99h0Z" style="fill: #fff; fill-rule: evenodd;"/>
    <rect id="p" x="362.24" y="133.31" width="4.97" height="135.75" style="fill: #fff;"/>
    <path id="q" d="M325.7,285.25l3.52-3.52-95.98-95.99-3.52,3.52,95.98,95.99h0Z" style="fill: #fff; fill-rule: evenodd;"/>
    <path id="r" d="M403.74,285.25l-3.52-3.52,95.95-95.99,3.52,3.52-95.95,95.99h0Z" style="fill: #fff; fill-rule: evenodd;"/>
    <rect x="185.31" y="314.1" width="128.61" height="8.23" style="fill: #fff;"/>
    <rect id="s" x="415.12" y="314.1" width="128.61" height="8.23" style="fill: #fff;"/>
  </g>
  <g id="t">
    <path id="u" d="M24.06,343.86l24.33-16.19,24.33,16.19-8.14-27.58,22.79-17.91h-29.21l-9.77-27.67-9.68,27.67H9.41l22.79,17.91-8.14,27.58Z" style="fill: #fff; fill-rule: evenodd;"/>
    <path id="v" d="M64.48,497.42l24.33-16.19,24.33,16.19-8.14-27.58,22.79-17.91h-29.21l-9.77-27.67-9.68,27.67h-29.3l22.79,17.91-8.14,27.58Z" style="fill: #fff; fill-rule: evenodd;"/>
    <path id="w" d="M177.81,612.28l24.33-16.19,24.33,16.19-8.14-27.58,22.79-17.91h-29.21l-9.77-27.67-9.68,27.67h-29.3l22.79,17.91-8.14,27.58Z" style="fill: #fff; fill-rule: evenodd;"/>
    <path id="x" d="M335.99,666.1l24.33-16.19,24.33,16.19-8.14-27.58,22.79-17.91h-29.21l-9.77-27.67-9.68,27.67h-29.3l22.79,17.91-8.14,27.58Z" style="fill: #fff; fill-rule: evenodd;"/>
    <path id="y" d="M494.08,612.28l24.33-16.19,24.33,16.19-8.14-27.58,22.79-17.91h-29.21l-9.77-27.67-9.68,27.67h-29.3l22.79,17.91-8.14,27.58Z" style="fill: #fff; fill-rule: evenodd;"/>
    <path id="z" d="M617.44,497.42l24.33-16.19,24.33,16.19-8.14-27.58,22.79-17.91h-29.21l-9.77-27.67-9.68,27.67h-29.3l22.79,17.91-8.14,27.58Z" style="fill: #fff; fill-rule: evenodd;"/>
    <path id="aa" d="M656.69,343.86l24.33-16.19,24.33,16.19-8.14-27.58,22.79-17.91h-29.21l-9.77-27.67-9.68,27.67h-29.3l22.79,17.91-8.14,27.58Z" style="fill: #fff; fill-rule: evenodd;"/>
  </g>
</svg>