<?xml version="1.0" encoding="UTF-8"?><svg id="a" xmlns="http://www.w3.org/2000/svg" viewBox="0 0 512 512"><path d="M390.16,178.79l-36.64-34.77v-34.77l29.98-28.44v-44.24l41.63,39.51v42.67l13.32-31.61,16.65,52.15-41.63,39.51v-23.71l11.66-11.06-18.32-17.38v-22.12l-34.97,33.19,18.32,17.38v23.71Z" style="fill:#fff;"/><path d="M329.14,418.54v16.25l24.38,24.38,4.06,4.06h-93.46l4.06-4.06,24.38-24.38v-32.51l24.38-28.44v-56.89h36.57v73.14l-24.38,28.44ZM300.7,353.52l-24.38,28.44h-40.63l-24.38-28.44v-52.83h-52.83v-65.02l16.25-16.25h32.51l20.32-16.25h56.89l20.32,16.25h32.51l16.25,16.25v65.02h-52.83v52.83ZM284.44,235.68h-56.89v48.76h56.89v-48.76ZM195.05,373.84l24.38,28.44v32.51l24.38,24.38,4.06,4.06h-93.46l4.06-4.06,24.38-24.38v-16.25l-24.38-28.44v-73.14h36.57v56.89Z" style="fill:#49adc9;"/><path d="M172.98,125.6h-52.27l-13.07,16.62H32.51v-73.14h75.13l13.07,16.62h52.27l26.13,19.95-26.13,19.95Z" style="fill:#fff; fill-rule:evenodd;"/></svg>