<?xml version="1.0" encoding="UTF-8"?>
<svg id="a" data-name=" 图层 1" xmlns="http://www.w3.org/2000/svg" viewBox="0 0 512 512">
  <path d="M365.71,134.1s-24.38-33.73-73.14-60.95h174.73v60.95h-101.59ZM373.84,231.62v56.89H125.97v-12.19h28.44l4.06-4.06,28.44-4.06,4.06-4.06h12.19l12.19-16.25v-4.06l-12.6-16.25h-11.78l-4.06-4.06-28.44-4.06h-20.32v-4.06h20.32l28.44-4.06,4.06-4.06h12.19l12.19-16.25v-4.06l-12.19-16.25h-12.19l-4.06-4.06-24.38-4.06h-24.38l48.76-4.06,4.06-4.06h12.19l12.19-16.25v-4.06l-12.19-16.25h-12.19l-4.06-4.06-40.63-4.06h-20.32v-36.57h89.4s158.48,0,158.48,158.48v-.09ZM345.4,308.83v65.02h-178.79v-65.02h178.79ZM377.9,390.1l52.83,65.02H73.14l52.83-65.02h251.94-.01Z" style="fill: #679552;"/>
  <path d="M36.57,231.62v28.44h105.65l4.06-4.06h32.51l4.06-4.06h12.19l4.06-6.1-4.06-6.1h-12.19l-4.06-4.06h-32.51l-4.06-4.06H36.57Z" style="fill: #fff;"/>
  <path d="M36.57,174.73v28.44h105.65l4.06-4.06h32.51l4.06-4.06h12.19l4.06-6.1-4.06-6.1h-12.19l-4.06-4.06h-32.51l-4.06-4.06H36.57Z" style="fill: #fff;"/>
  <path d="M36.57,121.9v28.44h105.65l4.06-4.06h32.51l4.06-4.06h12.19l4.06-6.1-4.06-6.1h-12.19l-4.06-4.06h-32.51l-4.06-4.06s-105.65,0-105.65,0Z" style="fill: #fff;"/>
</svg>