<?xml version="1.0" encoding="UTF-8"?>
<svg id="a" data-name=" 图层 1" xmlns="http://www.w3.org/2000/svg" viewBox="0 0 512 512">
  <path d="M491.68,345.4v12.19h-219.43v24.38h-12.19v65.02h-44.7v-69.08h-32.51c-2.44,12.04-3.8,24.28-4.06,36.57,0,0-8.28,9.96-28.44-4.06,0,0-3.71-11.8,12.19-32.51v-12.19l-8.13-8.13h-89.4v8.13h4.06v8.13l-4.06,4.06h-12.19l-12.19-12.19h-8.13l-4.06,12.19h-12.19v-60.95h32.51l8.13,12.19h20.32l4.06-4.06h28.44l16.25-8.13h65.02v-4.06h73.14v4.06h16.25v8.13h211.3v8.13h-8.13v12.19h8.14ZM211.3,361.65h-24.38v12.19h24.38v-12.19Z" style="fill: #49adc9; fill-rule: evenodd;"/>
  <path d="M373.84,117.84l-12.19,5.08-8.13,3.73h-32.51l-12.19,7.45h-138.16v-44.7h138.16l12.19,7.45h32.51l8.13,3.73,12.19,5.08,8.13,6.1-8.13,6.1v-.02ZM134.1,130.37v-40.97h20.32v44.7h-20.32v-3.73ZM373.84,178.79l-12.19,5.08-8.13,3.73h-32.51l-12.19,7.45h-138.16v-44.7h138.16l12.19,7.45h32.51l8.13,3.73,12.19,5.08,8.13,6.1-8.13,6.1v-.02ZM134.1,191.32v-40.97h20.32v44.7h-20.32v-3.73ZM373.84,239.75l-12.19,5.08-8.13,3.73h-32.51l-12.19,7.45h-138.16v-44.7h138.16l12.19,7.45h32.51l8.13,3.73,12.19,5.08,8.13,6.1-8.13,6.1v-.02ZM134.1,252.27v-40.97h20.32v44.7h-20.32v-3.73Z" style="fill: #fff; fill-rule: evenodd;"/>
</svg>