<?xml version="1.0" encoding="UTF-8"?>
<svg id="_图层_1" data-name="图层_1" xmlns="http://www.w3.org/2000/svg" version="1.1" viewBox="0 0 512 512">
  <!-- Generator: Adobe Illustrator 29.5.1, SVG Export Plug-In . SVG Version: 2.1.0 Build 141)  -->
  <defs>
    <style>
      .st0 {
        fill: #fff;
      }

      .st0, .st1 {
        fill-rule: evenodd;
      }

      .st1 {
        fill: #49adc9;
      }
    </style>
  </defs>
  <path class="st0" d="M337.49,123.7h-29.12l-7.26,7.28h-123.77v-40.04h123.77l7.28,7.28h29.12l23.66,12.74-23.67,12.74ZM146.39,90.94h16.38v40.04h-16.38v-40.04Z"/>
  <path class="st0" d="M337.49,176.48h-29.12l-7.26,7.28h-123.77v-40.04h123.77l7.28,7.28h29.12l23.66,12.74-23.67,12.74ZM146.39,143.72h16.38v40.04h-16.38v-40.04Z"/>
  <path class="st0" d="M337.49,229.25h-29.12l-7.26,7.28h-123.77v-40.04h123.77l7.28,7.28h29.12l23.66,12.74-23.67,12.74ZM146.39,196.49h16.38v40.04h-16.38v-40.04Z"/>
  <path class="st1" d="M486.72,340.27v9.1h-1.82l-1.82,3.66-3.66,5.46-1.82,3.66h-20.02l-1.82-3.66h-1.82v3.66h-14.56l-1.82-3.66h-23.66l-1.82,3.66h-9.08l-5.46-5.46h-89.17v1.82h-18.2l-1.82,3.66-3.66,3.66v7.21l-3.66,3.66h-10.89l-1.82,7.28h-10.92v1.82h-9.1v-1.84h-40.04v1.82h-7.28v-1.82h-27.3v1.82h-7.28v-1.82l-1.84-1.82h-3.66v-18.2h-16.34l-7.28-3.66v-1.8h-16.38l-7.28-1.82H40.83v1.82h-5.46l-5.46-5.46v-5.46l-1.82-5.46-1.82-3.66v-10.91l109.19-29.12h45.51v-1.81h7.28l1.82,1.82h70.97l9.1,7.28h3.66l7.28-7.28s-1.51-12.62,10.91-12.75c0,0,14.63,4.35,3.66,18.2l-1.85,9.11h12.74v1.82h94.65l1.82-3.66h3.66v1.84h3.64v-1.82h3.66v3.66l1.82,1.82h23.66l1.82-3.66,1.82-1.82h1.82l1.82,1.82h1.82l1.82-1.82h1.82l1.82,3.66h1.82l1.82-3.66h7.23v3.66h5.46v-3.66h7.28l1.82,3.66,1.82,3.66,1.82,5.46h3.66v9.1h-1.82v7.28h1.82v-.03ZM99.06,349.37h21.84v1.82h3.66v-10.92h-9.1l-20.02,5.46,3.63,3.64ZM95.4,327.53l-9.1,1.82-5.46,3.66h-5.43s-8.66,1.97-9.1,1.82-14.56,3.66-14.56,3.66l-10.92,1.82c-1.4,2.52-.6,5.69,1.83,7.25h25.48l32.76-9.1s11.24-3.25,12.74-3.66,12.74-3.66,12.74-3.66v-1.79l-16.39-1.83h-14.59ZM135.44,309.33l-9.07,10.92,21.84-12.74-12.77,1.82ZM160.92,307.51h-3.66v1.82h3.66v-1.82h0ZM293.79,334.81v3.66h16.38l1.82,1.82h85.54v-9.11h-85.52l-1.82,1.82h-14.56v1.82h-1.84ZM399.36,322.07h-101.91v1.82h101.91v-1.82ZM399.36,347.55h-101.91v1.82h101.91v-1.82ZM435.76,331.17h-16.38v1.82h-1.82v7.28h18.2v-9.09h0ZM466.7,338.45h-1.84v-3.66h1.82v-1.8l-3.66-1.82h-3.66v1.82h-1.82v1.82h1.82v3.66h-1.82v1.82h9.1v-1.84h.05Z"/>
</svg>