<?xml version="1.0" encoding="UTF-8"?>
<svg id="_图层_1" data-name="图层_1" xmlns="http://www.w3.org/2000/svg" version="1.1" viewBox="0 0 512 512">
  <!-- Generator: Adobe Illustrator 29.5.1, SVG Export Plug-In . SVG Version: 2.1.0 Build 141)  -->
  <defs>
    <style>
      .st0 {
        fill: #fff;
      }

      .st0, .st1 {
        fill-rule: evenodd;
      }

      .st1, .st2 {
        fill: #49adc9;
      }
    </style>
  </defs>
  <path class="st1" d="M433.06,309.33c0-5.68-6.4-8.54-6.4-8.54H61.87c-28.27,0-27.75-6.4-27.75-6.4,0,0-.52-6.4,27.75-6.4h364.79s6.4-2.86,6.4-8.54c0,0,28.32,14.94,44.81,14.94-16.49,0-44.81,14.94-44.81,14.94h0Z"/>
  <path class="st1" d="M343.46,294.4c-3.35,4.93-12.79,12.81-12.79,12.81-4.61-3.91-8.88-8.2-12.79-12.81-3.62-4.94,12.79-10.67,12.79-10.67,0,0,16.16,5.73,12.79,10.67h0ZM426.67,294.4c-3.35,4.93-12.79,12.81-12.79,12.81-4.62-3.91-8.9-8.2-12.81-12.81-3.62-4.94,12.81-10.67,12.81-10.67,0,0,16.14,5.73,12.79,10.67h0Z"/>
  <path class="st2" d="M322.13,305.06h100.27v166.4h-100.27v-166.4Z"/>
  <path class="st0" d="M174.93,204.79l-29.87,29.87v4.27l17.06,17.07h4.27l29.87-29.87,12.79,12.81h4.27l17.07-17.07-51.2-51.2-17.08,17.07v4.27l12.81,12.79ZM228.27,194.13l59.73-61.85s29.74-33.4,34.13-74.67l-115.19,115.19v4.27l17.06,17.07h4.27ZM332.79,204.79l29.87,29.87v4.27l-17.07,17.07h-4.27l-29.87-29.87-12.79,12.81h-4.27l-17.07-17.07,51.21-51.2,17.06,17.07v4.27l-12.81,12.79ZM283.73,194.13h-4.27l-15.72-16.27,21.05-21.07,16,16v4.27l-17.06,17.06ZM223.92,136.6l-4.19-4.33s-29.75-33.4-34.13-74.67l58.67,58.66-20.35,20.33Z"/>
</svg>