<?xml version="1.0" encoding="UTF-8"?>
<svg id="a" data-name=" 图层 1" xmlns="http://www.w3.org/2000/svg" viewBox="0 0 512 512">
  <path d="M402.29,487.62c-.53-37.28-6.69-74.27-18.29-109.71h62.17c19.26,33.35,29.36,71.2,29.26,109.71h-73.14,0ZM321.02,285.66v-7.31c47.99,14.82,89.44,45.66,117.43,87.37h-58.92c-16.25-39.82-38.2-64.61-58.51-80.05h0ZM231.62,365.71h-82.49c10.02-24.84,25.75-46.98,45.92-64.61v40.23h36.57v24.38ZM136.53,365.71h-62.98c28.8-42.92,71.83-74.29,121.5-88.58v8.13c-26.57,20.9-46.82,48.75-58.51,80.46h-.01ZM114.18,487.62H36.57c-.1-38.51,9.99-76.37,29.26-109.71h66.23c-9.75,28.85-16.66,65.02-17.88,109.71ZM256,707.05c-47.86.03-94.41-15.67-132.47-44.7h264.94c-38.06,29.02-84.61,44.73-132.47,44.7ZM390.1,487.62h-125.97v-109.71h107.68c12.09,35.33,18.4,72.38,18.69,109.71h-.41.01ZM144.66,377.9h107.28v109.71h-125.97c.16-37.32,6.34-74.36,18.29-109.71h.41-.01ZM367.34,365.71h-82.9v-24.38h36.57v-40.63c20.22,17.75,35.95,40.03,45.92,65.02h.41Z" style="fill: #de7b6c;"/>
  <path d="M215.37,97.52h12.19v60.95h-12.19v-60.95Z" style="fill: #fff;"/>
  <path d="M215.37,178.79h12.19v60.95h-12.19v-60.95Z" style="fill: #fff;"/>
  <path d="M215.37,260.06h12.19v60.95h-12.19v-60.95Z" style="fill: #fff;"/>
  <path d="M251.94,60.95h12.19v52.83h-12.19s0-52.83,0-52.83Z" style="fill: #fff;"/>
  <path d="M251.94,125.97h12.19v60.95h-12.19v-60.95Z" style="fill: #fff;"/>
  <path d="M251.94,207.24h12.19v65.02h-12.19v-65.02h0Z" style="fill: #fff;"/>
  <path d="M251.94,288.51h12.19v65.02h-12.19v-65.02Z" style="fill: #fff;"/>
  <path d="M288.51,97.52h12.19v60.95h-12.19v-60.95Z" style="fill: #fff;"/>
  <path d="M288.51,178.79h12.19v60.95h-12.19v-60.95Z" style="fill: #fff;"/>
  <path d="M288.51,260.06h12.19v60.95h-12.19v-60.95Z" style="fill: #fff;"/>
</svg>