<?xml version="1.0" encoding="UTF-8"?>
<svg id="a" data-name=" 图层 1" xmlns="http://www.w3.org/2000/svg" viewBox="0 0 512 512">
  <path d="M384,377.9h62.17c19.26,33.35,29.36,71.2,29.26,109.71h-73.14c-1.63-44.7-8.13-80.86-18.29-109.71h0ZM301.51,273.07c55.98,11.85,105.12,45.09,136.94,92.65h-58.92c-21.54-52.83-52.83-79.24-78.02-92.65h0ZM366.93,365.71h-102.81v-93.46c47.47,12.5,85.85,47.39,102.81,93.46ZM144.25,377.9h107.68v109.71h-125.97c.16-37.32,6.34-74.36,18.29-109.71ZM251.94,272.25v93.46h-102.81c16.96-46.07,55.33-80.96,102.81-93.46ZM136.53,365.71h-62.98c33.11-49.44,84.88-83.32,143.44-93.87-37.51,20.26-66.17,53.7-80.46,93.87ZM114.18,487.62H36.57c-.1-38.51,9.99-76.37,29.26-109.71h66.23c-9.75,28.85-16.66,65.02-17.88,109.71ZM388.47,662.35c-78.35,59.33-186.59,59.33-264.94,0h264.94ZM372.22,377.9c11.95,35.35,18.12,72.4,18.29,109.71h-126.37v-109.71h108.09-.01Z" style="fill: #de7b6c;"/>
  <path d="M430.73,337.27s-59.73-79.24-174.73-77.21c-115.4-2.03-178.79,81.27-178.79,81.27,0,0-20.32-60.95,4.06-89.4,29.66-34.95,78.02-20.72,85.33-20.32,12.19.81,8.13-4.06,8.13-4.06,0,0-11.38-14.63-28.44-12.19-38.6,5.69-20.32-24.38-20.32-24.38,23.97-39.82,79.64-24.38,94.27-21.54,5.28,1.22,3.25-2.84,3.25-2.84,0,0-23.97-9.35-24.38-20.32-1.63-39.42,56.89-32.51,56.89-32.51h2.03c10.57-.41,56.08-2.03,54.45,32.91,0,10.97-24.38,20.32-24.38,20.32,0,0-1.63,4.06,3.66,2.84,14.22-3.25,69.89-18.29,93.46,21.54,0,0,18.29,30.07-20.32,24.38-16.66-2.84-28.04,12.19-28.04,12.19,0,0-4.06,4.88,8.13,4.06,6.91-.81,55.26-14.63,84.93,20.32,23.97,28.04.81,84.93.81,84.93h0Z" style="fill: #fff;"/>
</svg>