<?xml version="1.0" encoding="UTF-8"?>
<svg id="a" data-name=" 图层 1" xmlns="http://www.w3.org/2000/svg" viewBox="0 0 512 512">
  <path d="M402.29,487.62c-.53-37.28-6.69-74.27-18.29-109.71h62.17c19.26,33.35,29.36,71.2,29.26,109.71h-73.14,0ZM368.56,342.55l25.6-25.6c17.13,13.93,32.07,30.37,44.29,48.76h-58.92c-3.22-7.92-6.88-15.65-10.97-23.16h0ZM117.84,316.95l28.44,27.23c-3.76,7-7.15,14.19-10.16,21.54h-62.58c12.35-18.42,27.42-34.86,44.7-48.76h-.41.01ZM113.78,487.62H36.57c-.1-38.51,9.99-76.37,29.26-109.71h66.23c-9.75,28.85-16.66,65.02-17.88,109.71h-.41.01ZM256,707.05c-47.86.03-94.41-15.67-132.47-44.7h264.94c-38.06,29.02-84.61,44.73-132.47,44.7ZM390.1,487.62h-125.97v-109.71h.41l36.17,32.51,32.51-32.51h38.6c12.09,35.33,18.4,72.38,18.69,109.71h-.41ZM144.66,377.9h37.38l33.73,32.51,36.17-32.51h.41v109.71h-126.37c.16-37.32,6.34-74.36,18.29-109.71h.41-.02ZM149.54,365.71l6.1-13.41,13.82,13.41h-20.32.41,0ZM360.84,351.09l6.5,14.63h-21.94l15.44-14.63Z" style="fill: #de7b6c;"/>
  <path d="M307.61,321.02l12.19,12.19,29.26-28.44,20.32,20.32-69.89,69.08-20.32-20.32,28.44-28.44-12.19-12.19-20.72,16.25h-34.95l-20.32-16.25-12.19,12.19,28.44,28.44-20.32,20.32-69.08-69.08,20.32-20.32,28.44,28.44,12.19-12.19-73.14-69.08v-85.33h28.44c-2.03-93.46,89.4-97.52,89.4-97.52h10.16s93.46,4.06,91.43,97.52h28.44v85.33l-74.36,69.08h.01ZM290.54,312.89c5.61,0,10.16-4.55,10.16-10.16s-4.55-10.16-10.16-10.16-10.16,4.55-10.16,10.16,4.55,10.16,10.16,10.16ZM290.54,276.32c5.61,0,10.16-4.55,10.16-10.16s-4.55-10.16-10.16-10.16-10.16,4.55-10.16,10.16,4.55,10.16,10.16,10.16ZM258.03,333.21c5.61,0,10.16-4.55,10.16-10.16s-4.55-10.16-10.16-10.16-10.16,4.55-10.16,10.16,4.55,10.16,10.16,10.16ZM258.03,296.63c5.61,0,10.16-4.55,10.16-10.16s-4.55-10.16-10.16-10.16-10.16,4.55-10.16,10.16,4.55,10.16,10.16,10.16ZM258.03,256c5.61,0,10.16-4.55,10.16-10.16s-4.55-10.16-10.16-10.16-10.16,4.55-10.16,10.16,4.55,10.16,10.16,10.16ZM225.52,312.89c5.61,0,10.16-4.55,10.16-10.16s-4.55-10.16-10.16-10.16-10.16,4.55-10.16,10.16,4.55,10.16,10.16,10.16ZM225.52,276.32c5.61,0,10.16-4.55,10.16-10.16s-4.55-10.16-10.16-10.16-10.16,4.55-10.16,10.16,4.55,10.16,10.16,10.16ZM333.21,166.6h-150.35v56.89l32.51,24.38,36.57-28.44h10.57l37.38,28.44,33.32-24.38v-56.89Z" style="fill: #fff;"/>
</svg>