<?xml version="1.0" encoding="UTF-8"?>
<svg id="a" data-name=" 图层 1" xmlns="http://www.w3.org/2000/svg" viewBox="0 0 512 512">
  <path d="M16.25,495.75v-81.27l81.27,81.27H16.25ZM495.75,495.75v-81.27l-81.27,81.27h81.27ZM495.75,16.25v81.27l-81.27-81.27h81.27ZM16.25,16.25v81.27L97.52,16.25H16.25Z" style="fill: #c9b269;"/>
  <circle cx="256" cy="256" r="48.76" style="fill: #fff;"/>
  <path d="M177.98,344.18l-2.84-2.84-5.69-5.69-2.84-2.84,37.38-37.38,2.84,2.84,5.69,5.69,2.84,2.84-37.38,37.38Z" style="fill: #fff;"/>
  <path d="M345.4,334.02l-2.84,2.84-5.69,5.69-2.84,2.84-37.38-37.38,2.84-2.84,5.69-5.69,2.84-2.84,37.38,37.38Z" style="fill: #fff;"/>
  <path d="M177.98,167.82l-2.84,2.84-5.69,5.69-2.84,2.84,37.38,37.38,2.84-2.84,5.69-5.69,2.84-2.84-37.38-37.38Z" style="fill: #fff;"/>
  <path d="M345.4,177.98l-2.84-2.84-5.69-5.69-2.84-2.84-37.38,37.38,2.84,2.84,5.69,5.69,2.84,2.84,37.38-37.38Z" style="fill: #fff;"/>
  <path d="M60.95,264.13v-16.25h130.03v16.25H60.95Z" style="fill: #fff;"/>
  <path d="M321.02,247.87h130.03v12.19h-130.03v-12.19Z" style="fill: #fff;"/>
  <path d="M321.02,251.94h130.03v12.19h-130.03v-12.19Z" style="fill: #fff;"/>
  <path d="M247.87,321.02h12.19v85.33h-12.19v-85.33h0Z" style="fill: #fff;"/>
  <path d="M251.94,321.02h12.19v85.33h-12.19v-85.33h0Z" style="fill: #fff;"/>
  <path d="M247.87,105.65h12.19v85.33h-12.19v-85.33Z" style="fill: #fff;"/>
  <path d="M251.94,105.65h12.19v85.33h-12.19v-85.33Z" style="fill: #fff;"/>
</svg>