<?xml version="1.0" encoding="UTF-8"?>
<svg id="_图层_1" data-name="图层_1" xmlns="http://www.w3.org/2000/svg" version="1.1" viewBox="0 0 512 512">
  <!-- Generator: Adobe Illustrator 29.5.1, SVG Export Plug-In . SVG Version: 2.1.0 Build 141)  -->
  <defs>
    <style>
      .st0 {
        fill: #fff;
      }

      .st0, .st1 {
        fill-rule: evenodd;
      }

      .st1 {
        fill: #de7b6c;
      }
    </style>
  </defs>
  <path class="st1" d="M114.1,487.62H36.57c-.05-38.53,10.1-76.38,29.42-109.71h66.15c-9.91,28.93-16.74,64.93-18.04,109.71ZM264.13,377.9h107.68c12.07,35.33,18.37,72.38,18.65,109.71h-126.33v-109.71ZM438.45,365.71h-59.08c-1.67-4.11-3.46-8.18-5.36-12.19h48.6l1.38-6.91c5.17,6.1,10,12.47,14.47,19.1ZM312.89,325.08l28.44,28.44h20.03c2.03,4.02,3.94,8.09,5.69,12.19h-102.93v-52.83h32.51l15.16-18.94,1.1.81v30.31ZM144.25,377.9h107.68v109.71h-126.33c.28-37.34,6.58-74.38,18.65-109.71ZM149.05,365.71c1.75-4.1,3.66-8.17,5.69-12.19h15.93l28.93-36.17-.49-16.66,12.19,12.19h40.63v52.83h-102.89ZM142.02,353.52c-1.83,3.9-3.66,7.92-5.32,12.19h-63.15c4.27-6.34,8.87-12.46,13.78-18.33l6.14,6.14h48.56ZM445.97,377.9c19.33,33.33,29.49,71.18,29.46,109.71h-73.47c-1.3-44.78-8.13-80.78-18.08-109.71h62.13-.04Z"/>
  <path class="st0" d="M215.37,296.63l-24.38-40.63-4.06-44.7,40.63-36.57v-65.02l57.3,59.73-.41,58.11,18.9-46.16,25.8,70.54-40.63,44.7h-20.32v-16.25l16.25-16.25-24.38-24.38v-28.44l-40.63,44.7,16.25,24.38,4.06,16.25h-24.38Z"/>
  <path class="st0" d="M104.88,343.77l-19.99-22.88v-37.14l28.57-25.72v-45.71l40.31,42.02-.33,40.84,13.29-32.47,20.2,46.12-30.64,34.95h-14.26v-11.46l11.42-11.42-17.15-17.15v-19.99l-28.57,31.41,11.46,17.15,2.84,11.42h-17.19l.04.04Z"/>
  <path class="st0" d="M348.69,339.71l-19.99-22.88v-37.14l28.57-25.72v-45.71l40.31,42.02-.33,40.84,13.29-32.47,18.16,52.46-28.57,28.57h-14.3v-11.42l11.42-11.42-17.15-17.15v-19.99l-28.57,31.41,11.46,17.15,2.84,11.42h-17.19l.04.04Z"/>
</svg>