<?xml version="1.0" encoding="UTF-8"?>
<svg id="_图层_1" data-name="图层_1" xmlns="http://www.w3.org/2000/svg" version="1.1" viewBox="0 0 512 512">
  <!-- Generator: Adobe Illustrator 29.5.1, SVG Export Plug-In . SVG Version: 2.1.0 Build 141)  -->
  <defs>
    <style>
      .st0 {
        fill: #fff;
      }

      .st1 {
        fill: #de7b6c;
      }
    </style>
  </defs>
  <path class="st1" d="M402.29,487.62c-.53-37.28-6.69-74.27-18.29-109.71h62.17c19.26,33.35,29.36,71.2,29.26,109.71h-73.14ZM349.87,314.51l-12.19-30.48c41.06,16.45,76.18,44.92,100.77,81.68h-58.92c-7.24-18.38-17.1-35.63-29.26-51.2h-.41ZM366.93,365.71h-86.55v-88.18l4.06,1.22,24.38,62.58,35.35-15.03c8.99,12.21,16.49,25.44,22.35,39.42h.41ZM171.48,326.3l35.35,15.03,24.79-62.58,3.66-1.22v88.18h-86.15c5.86-13.98,13.36-27.21,22.35-39.42ZM136.53,365.71h-62.98c25.63-38.15,62.58-67.28,105.65-83.3l-13.41,32.1c-12.17,15.57-22.02,32.81-29.26,51.2ZM114.18,487.62H36.57c-.1-38.51,9.99-76.37,29.26-109.71h66.23c-9.75,28.85-16.66,65.02-17.88,109.71ZM256,707.05c-47.86.03-94.41-15.67-132.47-44.7h264.94c-38.06,29.02-84.61,44.73-132.47,44.7ZM371.81,377.9c12.09,35.33,18.4,72.38,18.69,109.71h-126.37v-109.71h107.68ZM144.25,377.9h107.68v109.71h-125.97c.16-37.32,6.34-74.36,18.29-109.71Z"/>
  <path class="st0" d="M251.94,199.11h12.19v16.25h-12.19v-16.25Z"/>
  <path class="st0" d="M251.94,235.68h12.19v16.25h-12.19v-16.25Z"/>
  <path class="st0" d="M251.94,272.25h12.19v16.25h-12.19v-16.25Z"/>
  <path class="st0" d="M251.94,308.83h12.19v16.25h-12.19v-16.25Z"/>
  <path class="st0" d="M251.94,345.4h12.19v16.25h-12.19v-16.25Z"/>
  <path class="st0" d="M227.56,194.23l11.38,4.06-4.88,15.44-11.78-4.06,5.28-15.44Z"/>
  <path class="st0" d="M216.18,229.18l11.38,4.06-4.88,15.03-11.38-3.66,4.88-15.44Z"/>
  <path class="st0" d="M204.8,264.13l11.78,3.66-4.88,15.44-11.78-4.06,4.88-15.03Z"/>
  <path class="st0" d="M192.61,296.63l11.78,3.66-4.88,15.44-11.78-4.06,4.88-15.03Z"/>
  <path class="st0" d="M277.94,197.08l11.78-4.06,5.28,15.85-11.78,4.06-5.28-15.85Z"/>
  <path class="st0" d="M290.13,231.62l11.38-4.06,5.28,15.85-11.38,4.06-5.28-15.85Z"/>
  <path class="st0" d="M301.92,266.57l11.38-4.06,5.28,15.44-11.38,4.06-5.28-15.44Z"/>
  <path class="st0" d="M311.67,299.89l11.38-4.06,5.28,15.44-11.38,4.06-5.28-15.44Z"/>
  <path class="st0" d="M287.7,132.47l21.13,17.88-25.6-1.22,5.28,25.6-20.32-16.25-10.16,24.38-10.16-24.38-20.32,16.25,5.28-25.6-25.6,1.22,21.13-17.88-21.13-14.63h24.38l-4.06-24.38,24.38,16.25v-60.95h12.19v60.95l24.38-16.25-4.06,24.38h24.38l-21.13,14.63Z"/>
</svg>