<?xml version="1.0" encoding="UTF-8"?>
<svg id="_图层_1" data-name="图层_1" xmlns="http://www.w3.org/2000/svg" version="1.1" viewBox="0 0 512 512">
  <!-- Generator: Adobe Illustrator 29.5.1, SVG Export Plug-In . SVG Version: 2.1.0 Build 141)  -->
  <defs>
    <style>
      .st0 {
        fill: #fff;
      }

      .st1 {
        fill: #de7b6c;
      }
    </style>
  </defs>
  <path class="st1" d="M384,377.9h62.17c19.26,33.35,29.36,71.2,29.26,109.71h-73.14c-1.63-44.7-8.13-80.86-18.29-109.71ZM301.51,273.07c55.98,11.85,105.12,45.09,136.94,92.65h-58.92c-21.54-52.83-52.83-79.24-78.02-92.65ZM366.93,365.71h-102.81v-93.46c47.47,12.5,85.85,47.39,102.81,93.46ZM144.25,377.9h107.68v109.71h-125.97c.16-37.32,6.34-74.36,18.29-109.71ZM251.94,272.25v93.46h-102.81c16.96-46.07,55.33-80.96,102.81-93.46ZM136.53,365.71h-62.98c33.11-49.44,84.88-83.32,143.44-93.87-37.51,20.26-66.17,53.7-80.46,93.87ZM114.18,487.62H36.57c-.1-38.51,9.99-76.37,29.26-109.71h66.23c-9.75,28.85-16.66,65.02-17.88,109.71ZM388.47,662.35c-78.35,59.33-186.59,59.33-264.94,0h264.94ZM372.22,377.9c11.95,35.35,18.12,72.4,18.29,109.71h-126.37v-109.71h108.09Z"/>
  <path class="st0" d="M251.94,56.89h12.19v203.17h-12.19V56.89ZM288.51,56.89h12.19v12.19h-12.19v-12.19ZM288.51,97.52h12.19v12.19h-12.19v-12.19ZM288.51,134.1h12.19v12.19h-12.19v-12.19ZM288.51,170.67h12.19v12.19h-12.19v-12.19ZM288.51,207.24h12.19v12.19h-12.19v-12.19ZM288.51,243.81h12.19v12.19h-12.19v-12.19Z"/>
  <path class="st0" d="M201.55,236.9l16.25-2.03,3.25,24.38-16.25,1.63-3.25-23.97Z"/>
  <path class="st0" d="M158.88,247.06l15.44-5.28,8.13,23.16-15.44,5.28-8.13-23.16Z"/>
  <path class="st0" d="M116.62,270.63l13.41-8.94,13.41,20.32-13.41,8.94-13.41-20.32Z"/>
  <path class="st0" d="M83.3,297.04l12.19-10.97,16.25,18.29-12.19,10.97-16.25-18.29Z"/>
</svg>