<?xml version="1.0" encoding="UTF-8"?>
<svg id="a" data-name=" 图层 1" xmlns="http://www.w3.org/2000/svg" viewBox="0 0 512 512">
  <path d="M402.29,487.62c-.53-37.28-6.69-74.27-18.29-109.71h62.17c19.26,33.35,29.36,71.2,29.26,109.71h-73.14,0ZM308.83,277.13v-2.44c53.03,13.14,99.26,45.6,129.63,91.02h-58.92c-13.23-36.47-38.07-67.59-70.7-88.58h0ZM207.24,277.13c-32.65,20.97-57.5,52.1-70.7,88.58h-62.98c31.2-46.56,79.03-79.42,133.69-91.83v3.25h-.01ZM113.78,487.62H36.57c-.1-38.51,9.99-76.37,29.26-109.71h66.23c-9.75,28.85-16.66,65.02-17.88,109.71h-.41.01ZM256,707.05c-47.86.03-94.41-15.67-132.47-44.7h264.94c-38.06,29.02-84.61,44.73-132.47,44.7ZM390.1,487.62h-125.97v-53.23l24.38-28.04v-28.44h83.3c12.09,35.33,18.4,72.38,18.69,109.71h-.41.01ZM366.93,365.71h-78.43v-20.32l20.32-16.25v-37.38c26.18,18.44,46.39,44.15,58.11,73.96h0ZM207.24,291.76v37.38l20.32,16.25v20.32h-78.43c12.19-28.44,30.48-55.26,58.11-73.96h0ZM144.25,377.9h83.3v28.44l24.38,28.04v53.23h-125.97c.16-37.32,6.34-74.36,18.29-109.71h0Z" style="fill: #de7b6c;"/>
  <path d="M219.43,239.75h77.21v81.27l-20.32,16.25v65.02l-18.29,20.32-18.29-20.32v-65.02l-20.32-16.25v-81.27h.01Z" style="fill: #fff;"/>
  <path d="M296.63,134.1h-16.25c0-15.85-10.16-28.44-22.35-28.44s-22.35,12.6-22.35,28.44h-16.25c0-39.01,16.25-40.63,16.25-40.63,0,0-16.25-16.25-16.25-48.76h16.25s3.25,32.51,20.32,32.51h2.44c17.88,0,21.13-32.51,21.13-32.51h17.07c0,32.51-17.07,48.76-17.07,48.76,0,0,17.07,1.63,17.07,40.63h-.01ZM296.63,134.1h-16.25c0,15.85-10.16,28.44-22.35,28.44s-22.35-12.6-22.35-28.44h-16.25c0,39.01,16.25,40.63,16.25,40.63,0,0-16.25,16.25-16.25,48.76h16.25s3.25-32.51,20.32-32.51h2.44c17.88,0,21.13,32.51,21.13,32.51h17.07c0-32.51-17.07-48.76-17.07-48.76,0,0,17.07-1.63,17.07-40.63h-.01Z" style="fill: #fff;"/>
</svg>