<?xml version="1.0" encoding="UTF-8"?>
<svg id="a" data-name=" 图层 1" xmlns="http://www.w3.org/2000/svg" viewBox="0 0 512 512">
  <path d="M402.29,487.62c-.53-37.28-6.69-74.27-18.29-109.71h62.17c19.26,33.35,29.36,71.2,29.26,109.71h-73.14,0ZM316.95,282.82l1.63-5.28c49.01,14.53,91.41,45.72,119.87,88.18h-58.92c-12.33-33.15-34.08-61.96-62.58-82.9ZM195.86,284.85c-26.93,20.9-47.47,48.91-59.33,80.86h-62.98c28.47-42.46,70.86-73.65,119.87-88.18.67,2.48,1.48,4.93,2.44,7.31h0ZM114.18,487.62H36.57c-.1-38.51,9.99-76.37,29.26-109.71h66.23c-9.75,28.85-16.66,65.02-17.88,109.71ZM256,707.05c-47.86.03-94.41-15.67-132.47-44.7h264.94c-38.06,29.02-84.61,44.73-132.47,44.7ZM390.1,487.62h-125.97v-109.71h107.68c12.09,35.33,18.4,72.38,18.69,109.71h-.41.01ZM366.93,365.71h-102.81v-41.04c19.74-2.48,37.25-13.86,47.54-30.88,26.01,18.29,43.48,44.7,55.26,71.92h0ZM251.94,487.62h-125.97c.16-37.32,6.34-74.36,18.29-109.71h107.68v109.71ZM149.13,365.71c11.06-27.59,29.3-51.72,52.83-69.89,11.16,17.04,29.66,27.87,49.98,29.26v40.63h-102.81Z" style="fill: #de7b6c;"/>
  <circle cx="256" cy="260.06" r="48.76" style="fill: #fff;"/>
  <path d="M142.22,251.94h48.76v12.19h-48.76v-12.19ZM321.02,251.94h48.76v12.19h-48.76v-12.19Z" style="fill: #fff;"/>
  <path d="M297.04,209.27l34.54-34.54,8.53,8.53-34.13,34.54-8.94-8.53h0Z" style="fill: #fff;"/>
  <path d="M215.37,210.49l-35.76-35.76-8.94,8.94,35.76,35.76,8.94-8.94Z" style="fill: #fff;"/>
  <path d="M251.94,52.83h8.13v182.86h-8.13V52.83Z" style="fill: #fff;"/>
</svg>