<?xml version="1.0" encoding="UTF-8"?>
<svg id="_图层_1" data-name="图层_1" xmlns="http://www.w3.org/2000/svg" version="1.1" viewBox="0 0 512 512">
  <!-- Generator: Adobe Illustrator 29.5.1, SVG Export Plug-In . SVG Version: 2.1.0 Build 141)  -->
  <defs>
    <style>
      .st0 {
        fill: #fff;
      }

      .st1 {
        fill: #de7b6c;
      }
    </style>
  </defs>
  <path class="st1" d="M384,377.9h62.17c19.26,33.35,29.36,71.2,29.26,109.71h-73.14c-1.63-44.7-8.13-80.86-18.29-109.71ZM301.51,273.07c55.98,11.85,105.12,45.09,136.94,92.65h-58.92c-21.54-52.83-52.83-79.24-78.02-92.65ZM366.93,365.71h-102.81v-93.46c47.47,12.5,85.85,47.39,102.81,93.46ZM144.25,377.9h107.68v109.71h-125.97c.16-37.32,6.34-74.36,18.29-109.71ZM251.94,272.25v93.46h-102.81c16.96-46.07,55.33-80.96,102.81-93.46ZM136.53,365.71h-62.98c33.11-49.44,84.88-83.32,143.44-93.87-37.51,20.26-66.17,53.7-80.46,93.87ZM114.18,487.62H36.57c-.1-38.51,9.99-76.37,29.26-109.71h66.23c-9.75,28.85-16.66,65.02-17.88,109.71ZM388.47,662.35c-78.35,59.33-186.59,59.33-264.94,0h264.94ZM372.22,377.9c11.95,35.35,18.12,72.4,18.29,109.71h-126.37v-109.71h108.09Z"/>
  <path class="st0" d="M219.43,158.48V44.7h-101.59l73.14,113.78h28.44ZM296.63,44.7h101.59l-73.14,113.78h-28.44V44.7Z"/>
  <path class="st0" d="M239.75,44.7h36.57v134.1h36.57l-52.83,81.27-56.89-81.27h36.57"/>
</svg>