<?xml version="1.0" encoding="UTF-8"?>
<svg id="a" data-name=" 图层 1" xmlns="http://www.w3.org/2000/svg" viewBox="0 0 512 512">
  <path d="M402.29,487.62c-.53-37.28-6.69-74.27-18.29-109.71h62.17c19.26,33.35,29.36,71.2,29.26,109.71h-73.14,0ZM301.1,273.07c56.13,11.75,105.43,45,137.35,92.65h-58.92c-21.54-52.83-52.83-79.24-78.02-92.65h-.41ZM136.53,365.71h-62.98c33.11-49.44,84.88-83.32,143.44-93.87-37.51,20.26-66.17,53.7-80.46,93.87ZM114.18,487.62H36.57c-.1-38.51,9.99-76.37,29.26-109.71h66.23c-9.75,28.85-16.66,65.02-17.88,109.71ZM256,707.05c-47.86.03-94.41-15.67-132.47-44.7h264.94c-38.06,29.02-84.61,44.73-132.47,44.7ZM390.1,487.62h-125.97v-109.71h107.68c12.09,35.33,18.4,72.38,18.69,109.71h-.41.01ZM366.93,365.71h-102.81v-12.19l30.88-69.49c35.35,17.88,58.11,48.76,71.92,81.68h.01ZM251.94,487.62h-125.97c.16-37.32,6.34-74.36,18.29-109.71h107.68v109.71ZM251.94,272.25v93.46h-102.81c16.96-46.07,55.33-80.96,102.81-93.46Z" style="fill: #de7b6c;"/>
  <path d="M264.13,321.02l65.02-170.67-65.02,20.32V48.76l-65.02,174.73,65.02-20.32v117.84h0Z" style="fill: #fff;"/>
  <path d="M134.1,266.97l13,20.32c-13.34,7.17-25.88,15.75-37.38,25.6l-15.03-15.03c11.66-12.22,25.08-22.63,39.82-30.88h-.41ZM190.98,245.43l8.13,21.54c-14.28,3.63-28.16,8.66-41.45,15.03l-12.19-20.72c14.5-7.03,29.78-12.35,45.51-15.85ZM247.87,239.34v21.13c-12.27.2-24.5,1.42-36.57,3.66l-6.5-21.54c14.25-2.14,28.66-3.09,43.07-2.84v-.41ZM322.23,248.28c15.2,3.45,30.03,8.35,44.29,14.63l-10.57,17.47c-13.16-6.02-26.92-10.65-41.04-13.82l4.88-14.63,2.44-3.66h0ZM417.32,297.85l-15.03,15.03c-10.24-11.09-22.34-20.31-35.76-27.23l12.19-17.07c14.43,7.5,27.48,17.39,38.6,29.26h0Z" style="fill: #fff;"/>
</svg>