<?xml version="1.0" encoding="UTF-8"?>
<svg id="a" data-name=" 图层 1" xmlns="http://www.w3.org/2000/svg" viewBox="0 0 512 512">
  <path d="M402.29,487.62c-.53-37.28-6.69-74.27-18.29-109.71h62.17c19.26,33.35,29.36,71.2,29.26,109.71h-73.14,0ZM390.1,361.65v-47.54c18.8,14.47,35.13,31.9,48.36,51.61h-52.42l4.06-4.06h0ZM312.89,295.01v66.64l4.06,4.06h-52.83v-18.69l32.51-34.13v-28.44c5.66,3.13,11.09,6.66,16.25,10.57h.01ZM144.25,377.9h107.68v109.71h-125.97c.16-37.32,6.34-74.36,18.29-109.71ZM219.43,284.44v28.44l32.51,34.13v18.69h-102.81c13.25-34.45,38.12-63.19,70.3-81.27h0ZM73.55,365.71c18.48-27.46,42.93-50.38,71.52-67.05l19.1,18.29c-11.38,14.93-20.67,31.33-27.63,48.76h-62.99ZM114.18,487.62H36.57c-.1-38.51,9.99-76.37,29.26-109.71h66.23c-9.75,28.85-16.66,65.02-17.88,109.71ZM264.13,487.62v-109.71h64.2l23.16,24.38,21.13-22.35c11.43,34.76,17.32,71.09,17.47,107.68h-125.97,0Z" style="fill: #de7b6c;"/>
  <path d="M142.22,276.32l26.41,28.44,26.41-28.44v-89.4s12.19-3.25,12.19-12.19v-69.08h-77.21v69.49c.22,6.57,5.61,11.79,12.19,11.78v89.4h0ZM134.1,69.08c-2.24,0-4.06,1.82-4.06,4.06v4.06c0,2.24,1.82,4.06,4.06,4.06h69.08c2.24,0,4.06-1.82,4.06-4.06v-4.06c0-2.24-1.82-4.06-4.06-4.06h-69.08Z" style="fill: #fff;"/>
  <path d="M231.62,308.83l26.41,28.44,26.41-28.44v-89.4s12.19-3.25,12.19-12.19v-69.08h-77.21v69.49c.22,6.57,5.61,11.79,12.19,11.78v89.4h0Z" style="fill: #fff;"/>
  <path d="M223.49,101.59c-2.24,0-4.06,1.82-4.06,4.06v4.06c0,2.24,1.82,4.06,4.06,4.06h69.08c2.24,0,4.06-1.82,4.06-4.06v-4.06c0-2.24-1.82-4.06-4.06-4.06h-69.08Z" style="fill: #fff;"/>
  <path d="M325.08,357.59l26.41,28.44,26.41-28.44v-89.4s12.19-3.25,12.19-12.19v-69.08h-77.21v69.49c.22,6.57,5.61,11.79,12.19,11.78v89.4h0Z" style="fill: #fff;"/>
  <path d="M316.95,150.35c-2.24,0-4.06,1.82-4.06,4.06v4.06c0,2.24,1.82,4.06,4.06,4.06h69.08c2.24,0,4.06-1.82,4.06-4.06v-4.06c0-2.24-1.82-4.06-4.06-4.06h-69.08Z" style="fill: #fff;"/>
</svg>