<?xml version="1.0" encoding="UTF-8"?>
<svg id="_图层_1" data-name="图层_1" xmlns="http://www.w3.org/2000/svg" version="1.1" viewBox="0 0 3 3">
  <!-- Generator: Adobe Illustrator 29.5.1, SVG Export Plug-In . SVG Version: 2.1.0 Build 141)  -->
  <defs>
    <style>
      .st0 {
        fill: #fff;
      }

      .st1 {
        fill: #de7b6c;
      }
    </style>
  </defs>
  <path class="st1" d="M906.29,593.62c-.53-37.28-6.69-74.27-18.29-109.71h62.17c19.26,33.35,29.36,71.2,29.26,109.71h-73.14ZM873.78,451.4c10.16-.81,19.1-13.41,25.19-27.63,16.78,13.75,31.44,29.9,43.48,47.95h-58.92l-9.75-20.32ZM841.68,406.7c-10.72-11.02-23.05-20.33-36.57-27.63,12.2,2.49,24.16,6.03,35.76,10.57,0,5.69,0,11.38.81,16.66v.41ZM849.4,433.11c1.87,5.24,4.93,9.97,8.94,13.82,4.76,7.97,8.97,16.25,12.6,24.79h-102.81v-21.13l4.06-3.25c9.75-7.72,19.1-25.6,19.1-25.6,0,0,1.22-16.25,2.03-34.54,22.34,10.21,41.66,26.03,56.08,45.92ZM648.25,483.9h107.68v109.71h-125.97c.16-37.32,6.34-74.36,18.29-109.71ZM731.56,386.38v32.51s13.82,21.13,20.32,28.44c1.24,1.46,2.6,2.82,4.06,4.06v20.32h-102.81c14.18-37.48,42.27-68.05,78.43-85.33ZM686.45,387.19c11.24-4.05,22.79-7.18,34.54-9.35-14.31,7.36-27.34,16.96-38.6,28.44,1.85-6.25,3.21-12.64,4.06-19.1ZM577.14,471.71c12.92-19.32,28.83-36.47,47.14-50.79,5.69,14.63,13.82,30.07,26.01,30.48l-9.35,20.32h-63.8ZM617.78,593.62h-77.21c-.1-38.51,9.99-76.37,29.26-109.71h66.23c-9.75,28.85-16.66,65.02-17.88,109.71h-.41ZM768.13,483.9h107.68c12.09,35.33,18.4,72.38,18.69,109.71h-126.37v-109.71ZM760,813.05c-47.86.03-94.41-15.67-132.47-44.7h264.94c-38.06,29.02-84.61,44.73-132.47,44.7Z"/>
  <path class="st0" d="M634.03,410.76l12.19,24.38s5.28,9.35,12.19,0c5-7.62,9.09-15.81,12.19-24.38v-65.02s8.13-2.03,8.13-8.13v-81.27h-52.83v81.27c-.23,4.26,3.03,7.9,7.29,8.13.28.02.56.02.84,0v65.02ZM629.97,219.78c-2.24,0-4.06,1.82-4.06,4.06v4.06c0,2.24,1.82,4.06,4.06,4.06h44.7c2.24,0,4.06-1.82,4.06-4.06v-4.06c0-2.24-1.82-4.06-4.06-4.06h-44.7Z"/>
  <path class="st0" d="M743.75,410.76l12.19,24.38s5.28,9.35,12.19,0c5-7.62,9.09-15.81,12.19-24.38v-65.02s8.13-2.03,8.13-8.13v-81.27h-52.83v81.27c-.23,4.26,3.03,7.9,7.29,8.13.28.02.56.02.84,0v65.02ZM739.68,219.78c-2.24,0-4.06,1.82-4.06,4.06v4.06c0,2.24,1.82,4.06,4.06,4.06h44.7c2.24,0,4.06-1.82,4.06-4.06v-4.06c0-2.24-1.82-4.06-4.06-4.06h-44.7Z"/>
  <path class="st0" d="M853.46,410.76l12.19,24.38s5.28,9.35,12.19,0c5-7.62,9.09-15.81,12.19-24.38v-65.02s8.13-2.03,8.13-8.13v-81.27h-52.83v81.27c-.23,4.26,3.03,7.9,7.29,8.13.28.02.56.02.84,0v65.02ZM849.4,219.78c-2.24,0-4.06,1.82-4.06,4.06v4.06c0,2.24,1.82,4.06,4.06,4.06h44.7c2.24,0,4.06-1.82,4.06-4.06v-4.06c0-2.24-1.82-4.06-4.06-4.06h-44.7Z"/>
</svg>