<?xml version="1.0" encoding="UTF-8"?>
<svg id="a" data-name=" 图层 1" xmlns="http://www.w3.org/2000/svg" viewBox="0 0 512 512">
  <path d="M316.95,130.03h32.51l-32.51,28.44v-28.44" style="fill: #fff;"/>
  <path d="M316.95,77.21h32.51l-32.51-28.44v28.44" style="fill: #fff;"/>
  <path d="M463.24,121.9h-146.29v-36.57h146.29s20.32,2.03,20.32,16.25v4.06c0,14.22-20.32,16.25-20.32,16.25h0Z" style="fill: #fff;"/>
  <path d="M329.14,418.54v16.25l24.38,24.38,4.06,4.06h-93.46l4.06-4.06,24.38-24.38v-32.51l24.38-28.44v-56.89h36.57v73.14l-24.38,28.44h0ZM300.7,353.52l-24.38,28.44h-40.63l-24.38-28.44v-52.83h-52.83v-65.02l16.25-16.25h32.51l20.32-16.25h56.89l20.32,16.25h32.51l16.25,16.25v65.02h-52.83v52.83h0ZM284.44,235.68h-56.89v48.76h56.89v-48.76h0ZM195.05,373.84l24.38,28.44v32.51l24.38,24.38,4.06,4.06h-93.46l4.06-4.06,24.38-24.38v-16.25l-24.38-28.44v-73.14h36.57v56.89h0Z" style="fill: #49adc9;"/>
  <path d="M32.51,150.35h105.65l8.13-8.13h28.44l24.38-12.19-24.38-12.19h-28.44l-8.13-8.13H32.51v40.63h0Z" style="fill: #fff;"/>
  <path d="M32.51,93.46h105.65l8.13-8.13h28.44l24.38-12.19-24.38-12.19h-28.44l-8.13-8.13H32.51v40.63h0Z" style="fill: #fff;"/>
</svg>