<?xml version="1.0" encoding="UTF-8"?>
<svg id="_图层_1" data-name="图层_1" xmlns="http://www.w3.org/2000/svg" version="1.1" viewBox="0 0 512 512">
  <!-- Generator: Adobe Illustrator 29.5.1, SVG Export Plug-In . SVG Version: 2.1.0 Build 141)  -->
  <defs>
    <style>
      .st0 {
        fill: #fff;
      }

      .st0, .st1 {
        fill-rule: evenodd;
      }

      .st1 {
        fill: #49adc9;
      }
    </style>
  </defs>
  <path class="st1" d="M117.84,280.38l32.51.05c-.02,2.2,1.75,4,3.95,4.02.04,0,.08,0,.11,0h4.06c2.17.08,3.99-1.62,4.06-3.79,0-.09,0-.18,0-.27h12.19c-.05,2.19,1.68,4.01,3.87,4.06.06,0,.13,0,.19,0h4.06c2.13.11,3.95-1.52,4.06-3.65,0-.14,0-.27,0-.41,0,0-1.05-4.06,12.19-4.06,0,0,4.06-.59,4.06,8.13v32.51h24.38l8.13,8.13s12.19.07,12.19,4.06c4.05-.54,8.15-.54,12.19,0,6.2.93,12.34-12.19,32.51-12.19s28.44,12.19,28.44,12.19h8.13c1.6-2.92,4.84-4.54,8.13-4.06,8.5.04,52.83,4.06,52.83,4.06l32.51-4.06v4.06h16.25c8.01-1.97,16.16-3.32,24.38-4.06,7.44-.1,8.13,8.13,8.13,8.13,5.69,11.31,7.13,24.29,4.06,36.57,0,0-9.35,8.94-24.38,0h-20.32l-4.06,4.06h-40.63s-3.53,3.8,4.06,4.06c0,0,3.9,4.06-20.32,4.06l-4.06,4.06h-28.44v4.06h-4.06l-4.06,32.51s-13.86,5.39-12.19-4.06,4.06-28.44,4.06-28.44l-4.06-8.13h-4.06v12.19h-36.57v12.19s3.63,2.12,0,4.06-2.82,4.68-12.19,4.06v8.13l-8.13,8.13,4.06,8.13-28.44-12.19,24.38-24.38c.85-3.64-1.41-7.28-5.05-8.13-1.01-.24-2.06-.24-3.08,0l-4.06-4.06v-8.13h-8.13v4.06h-16.25l-8.13,12.19h-20.32s-3.97,1.06-4.06,8.13,1.83,26.6-12.19,28.44c-1.94,2.24-5.33,2.49-7.58.55-.2-.17-.38-.35-.55-.55-3.66-4.47-3.03-47.98-48.76-48.76l-4.06-4.06h-48.76l-8.13-4.06v4.06s-5.76,5.77-20.32,0c-7.66-3.04-5.49-55.19,0-60.95,8.88-9.35,28.44,0,28.44,0v-40.63l4.06-4.06h12.19l4.06,4.06h32.51Z"/>
  <path class="st0" d="M381.97,154.41v-16.25h40.63v16.25h-40.63ZM361.85,102.29l28.73-28.74,11.49,11.49-28.73,28.74-11.5-11.49ZM329.14,186.92c-17.75,0-33.45-11.51-38.77-28.44H93.46v-24.38h196.91c6.73-21.41,29.55-33.31,50.95-26.57,21.41,6.73,33.31,29.55,26.57,50.95-5.32,16.93-21.01,28.44-38.76,28.44ZM321.02,52.83h16.25v40.63h-16.25v-40.63ZM256.03,84.73l11.6-11.64,29.01,29.09-11.6,11.64-29.01-29.09ZM296.71,190.38l-29.05,29.1-11.62-11.64,29.05-29.1,11.62,11.64ZM337.27,239.75h-16.25v-40.63h16.25v40.63ZM402.33,207.53l-11.51,11.5-28.77-28.74,11.5-11.49,28.78,28.73Z"/>
</svg>