<?xml version="1.0" encoding="UTF-8"?>
<svg id="_图层_1" data-name="图层_1" xmlns="http://www.w3.org/2000/svg" version="1.1" viewBox="0 0 512 512">
  <!-- Generator: Adobe Illustrator 29.5.1, SVG Export Plug-In . SVG Version: 2.1.0 Build 141)  -->
  <defs>
    <style>
      .st0 {
        fill: #fff;
      }

      .st1 {
        fill: #49adc9;
      }
    </style>
  </defs>
  <path class="st1" d="M491.68,337.27v36.57h-162.54v-8.13h-44.7v8.13h-85.33l-8.13,16.25h-32.51l-28.44,36.57h-12.19l-36.57-32.51h-32.51v-4.06h-28.44v-73.14h150.35v-4.06h16.25v4.06h20.32v-4.06h12.19v4.06h8.13v-4.06h8.13v4.06h8.13v-4.06h16.25v4.06h44.7v-4.06h186.92v16.25h-12.19v8.13h12.19ZM138.16,369.78h-24.38v28.44h8.13l16.25-20.32v-8.13ZM182.86,373.84h-12.19v8.13h12.19v-8.13Z"/>
  <path class="st0" d="M251.94,203.17v-77.21h97.52l16.25,12.19h60.95l32.51,28.44-32.51,24.38h-60.95l-16.25,12.19h-97.52Z"/>
  <path class="st0" d="M142.22,125.97v16.25c-15.85,0-28.44,10.16-28.44,22.35s12.6,22.35,28.44,22.35v16.25c-39.01,0-40.63-16.25-40.63-16.25,0,0-16.25,16.25-48.76,16.25v-16.25s32.51-3.25,32.51-20.32v-2.44c0-17.88-32.51-21.13-32.51-21.13v-17.07c32.51,0,48.76,17.07,48.76,17.07,0,0,1.63-17.07,40.63-17.07ZM142.22,125.97v16.25c15.85,0,28.44,10.16,28.44,22.35s-12.6,22.35-28.44,22.35v16.25c39.01,0,40.63-16.25,40.63-16.25,0,0,16.25,16.25,48.76,16.25v-16.25s-32.51-3.25-32.51-20.32v-2.44c0-17.88,32.51-21.13,32.51-21.13v-17.07c-32.51,0-48.76,17.07-48.76,17.07,0,0-1.63-17.07-40.63-17.07Z"/>
</svg>