<?xml version="1.0" encoding="UTF-8"?>
<svg id="a" data-name=" 图层 1" xmlns="http://www.w3.org/2000/svg" viewBox="0 0 512 512">
  <path d="M158.48,304.76v-8.13h203.17v8.13h130.03v60.95h-16.25v4.06h-40.63v-4.06h-44.7v4.06h24.38v8.13h-32.51l-12.19,32.51h-40.63v-20.32h-8.13l-28.44,40.63-16.25-16.25,28.44-40.63h-101.59v69.08h-20.32v-40.63l-16.25-20.32h-24.38l-4.06-8.13h-40.63l-4.06-8.13h-12.19l-36.57,20.32h-20.32l-8.13-8.13v-77.21l8.13-8.13h20.32l36.57,12.19h77.21-.02ZM333.21,377.9l8.13-8.13,16.25,16.25-8.13,8.13-16.25-16.25Z" style="fill: #49adc9; fill-rule: evenodd;"/>
  <path d="M321.02,203.17c-21.54,0-121.9-28.44-121.9-28.44h-56.89l-16.25,36.57h-56.89l20.32-48.76v-4.06l-20.32-48.76h56.89l16.25,36.57h56.89s100.37-28.44,121.9-28.44,113.78,28.44,113.78,28.44v28.44s-92.24,28.44-113.78,28.44h0Z" style="fill: #fff;"/>
</svg>