<?xml version="1.0" encoding="UTF-8"?>
<svg id="_图层_1" data-name="图层_1" xmlns="http://www.w3.org/2000/svg" version="1.1" viewBox="0 0 512 512">
  <!-- Generator: Adobe Illustrator 29.5.1, SVG Export Plug-In . SVG Version: 2.1.0 Build 141)  -->
  <defs>
    <style>
      .st0 {
        fill: #fff;
      }

      .st0, .st1 {
        fill-rule: evenodd;
      }

      .st1 {
        fill: #c9b269;
      }
    </style>
  </defs>
  <path class="st0" d="M345.4,438.86H93.46l-32.51-36.57v-40.63h69.08l40.63,36.57h97.52l40.63-36.57h69.08v40.63l-32.51,36.57ZM219.43,381.97l-93.46-69.08v-81.27h16.25c0-75.99,77.21-77.21,77.21-77.21,0,0,77.21,1.22,77.21,77.21h16.25v81.27l-93.46,69.08ZM276.32,231.62h-113.78v56.89h28.44l12.19-16.25h32.51l12.19,16.25h28.44v-56.89ZM471.37,170.67h-65.02v65.02h-28.44v-65.02h-65.02v-28.44h65.02v-65.02h28.44v65.02h65.02v28.44Z"/>
  <path class="st1" d="M16.25,495.75v-81.27l81.27,81.27H16.25ZM495.75,495.75v-81.27l-81.27,81.27h81.27ZM495.75,16.25v81.27l-81.27-81.27h81.27ZM16.25,16.25v81.27L97.52,16.25H16.25Z"/>
</svg>