<?xml version="1.0" encoding="UTF-8"?>
<svg id="a" data-name="图层 1" xmlns="http://www.w3.org/2000/svg" viewBox="0 0 512 512">
  <path d="M256,5c33.89,0,66.76,6.64,97.7,19.72,29.89,12.64,56.73,30.74,79.78,53.79,23.05,23.05,41.15,49.9,53.79,79.78,13.09,30.94,19.72,63.81,19.72,97.7s-6.64,66.76-19.72,97.7c-12.64,29.89-30.74,56.73-53.79,79.78-23.05,23.05-49.9,41.15-79.78,53.79-30.94,13.09-63.81,19.72-97.7,19.72s-66.76-6.64-97.7-19.72c-29.89-12.64-56.73-30.74-79.78-53.79-23.05-23.05-41.15-49.9-53.79-79.78-13.09-30.94-19.72-63.81-19.72-97.7s6.64-66.76,19.72-97.7c12.64-29.89,30.74-56.73,53.79-79.78,23.05-23.05,49.9-41.15,79.78-53.79,30.94-13.09,63.81-19.72,97.7-19.72M256,0C114.62,0,0,114.62,0,256s114.62,256,256,256,256-114.62,256-256S397.38,0,256,0h0Z" style="fill: #fff;"/>
</svg>