<?xml version="1.0" encoding="UTF-8"?>
<svg id="a" data-name=" 图层 1" xmlns="http://www.w3.org/2000/svg" viewBox="0 0 512 512">
  <path d="M365.71,134.1s-24.38-33.73-73.14-60.95h174.73v60.95h-101.59ZM373.84,231.62v56.89h-168.23l-2.44-24.38,69.08-69.08v-81.27h-81.27l-65.02,61.36v-101.99h89.4s158.48,0,158.48,158.48h0ZM345.4,373.84h-178.79v-28.44l36.57-36.57h142.22v65.02h0ZM377.9,390.1l52.83,65.02H73.14l52.83-65.02h251.94-.01Z" style="fill: #679552;"/>
  <path d="M256,130.03v56.89l-69.08,69.08v40.63l-48.76,48.76v-97.52H40.63l48.76-48.76h40.63l69.08-69.08h56.9Z" style="fill: #fff;"/>
  <path d="M81.27,349.46v-36.57l24.38-24.38v40.63l-24.38,20.32ZM97.52,280.38l-24.38,20.32h-36.57l20.32-20.32s40.63,0,40.63,0Z" style="fill: #fff;"/>
</svg>