<?xml version="1.0" encoding="UTF-8"?>
<svg id="a" data-name=" 图层 1" xmlns="http://www.w3.org/2000/svg" viewBox="0 0 512 512">
  <path d="M383.88,373.84h62.12c19.32,33.33,29.47,71.19,29.43,109.71h-73.45c-1.34-44.78-8.14-80.78-18.1-109.71h0ZM301.47,269c56,11.83,105.15,45.08,136.98,92.65h-59.1c-21.18-52.72-53.01-79.35-77.88-92.65ZM367.04,361.65h-102.92v-93.46c54.07,13.57,85.11,51.73,102.92,93.46h0ZM144.25,373.84h107.68v109.71h-126.33c.28-37.34,6.58-74.38,18.64-109.71h.01ZM251.94,268.19v93.46h-102.88c17.81-41.73,48.84-79.88,102.88-93.46ZM136.68,361.65h-63.13c33.08-49.43,84.82-83.31,143.36-93.87-25.19,12.84-58.38,39.42-80.23,93.87ZM114.09,483.56H36.57c-.04-38.53,10.11-76.38,29.43-109.71h66.16c-9.94,28.93-16.75,64.93-18.07,109.71ZM388.65,658.29c-78.39,59.6-186.91,59.6-265.3,0h265.3ZM371.85,373.84c12.06,35.33,18.34,72.38,18.61,109.71h-126.33v-109.71h107.72Z" style="fill: #c9b269; fill-rule: evenodd;"/>
  <path d="M219.43,154.41V40.63h-101.59l73.14,113.78h28.45ZM296.63,40.63h101.59l-73.14,113.78h-28.44V40.63h-.01ZM239.75,40.63h36.57v134.1h36.57l-52.83,81.27-56.89-81.27h36.57" style="fill: #fff; fill-rule: evenodd;"/>
</svg>