<?xml version="1.0" encoding="UTF-8"?>
<svg id="_图层_1" data-name="图层_1" xmlns="http://www.w3.org/2000/svg" version="1.1" viewBox="0 0 512 512">
  <!-- Generator: Adobe Illustrator 29.5.1, SVG Export Plug-In . SVG Version: 2.1.0 Build 141)  -->
  <defs>
    <style>
      .st0 {
        fill: #fff;
      }

      .st1 {
        fill: #c9b269;
      }
    </style>
  </defs>
  <path class="st1" d="M16.25,495.75v-81.27l81.27,81.27H16.25ZM495.75,495.75v-81.27l-81.27,81.27h81.27ZM495.75,16.25v81.27l-81.27-81.27h81.27ZM16.25,16.25v81.27L97.52,16.25H16.25Z"/>
  <path class="st0" d="M300.29,329.96l-36.57-36.57h-6.1l-120.28,120.28s-9.35,8.13-23.16-5.28v-.41c0-.41,0,0-.41,0-13.41-14.22-5.69-23.16-5.69-23.16l120.69-120.69v-5.69l-36.98-37.38-.41-11.78,71.92-71.11h11.38l40.23,40.23,8.53-8.94c7.31-6.91,20.72,9.35,20.72,9.35,2.84,2.44,14.63,13.82,8.13,20.32l-8.13,8.13,39.82,40.23v11.38l-72.33,71.52-11.38-.41Z"/>
  <path class="st0" d="M223.09,156.44l-8.94,8.53-35.35,34.13s-5.69,5.69-16.25-5.28c0,0-8.13-10.16-4.06-15.03,8.13-8.94,25.6-29.66,32.51-36.57l8.94-8.53c7.31-7.31,26.41-24.38,35.76-32.1,6.5-5.28,16.25,3.25,16.25,3.25,10.57,11.38,4.06,17.07,4.06,17.07l-32.91,34.54Z"/>
  <path class="st0" d="M385.63,323.05l-8.94,8.53-35.35,34.13s-5.69,5.69-16.25-5.28c0,0-8.13-10.16-4.06-15.03,8.13-8.94,25.6-29.66,32.51-36.57l8.94-8.53c7.31-7.31,26.41-24.38,35.76-32.1,6.5-5.28,16.25,3.25,16.25,3.25,10.57,11.38,4.06,17.07,4.06,17.07l-32.91,34.54Z"/>
</svg>