<?xml version="1.0" encoding="UTF-8"?>
<svg id="_图层_1" data-name="图层_1" xmlns="http://www.w3.org/2000/svg" version="1.1" viewBox="0 0 512 512">
  <!-- Generator: Adobe Illustrator 29.5.1, SVG Export Plug-In . SVG Version: 2.1.0 Build 141)  -->
  <defs>
    <style>
      .st0 {
        fill: #fff;
      }

      .st1 {
        fill: #49adc9;
      }
    </style>
  </defs>
  <g>
    <path class="st1" d="M321.02,166.6h36.57v40.63h-36.57v-40.63Z"/>
    <path class="st1" d="M304.76,166.6h-44.7l-40.63-36.57v56.89l44.7,16.25v195.05h158.48l36.57-36.57v-231.62l-40.63,36.57h-44.7v56.89h-69.08v-56.89Z"/>
    <path class="st1" d="M219.43,109.71l44.7,40.63h150.35l44.7-40.63v-44.7h-239.75v44.7Z"/>
  </g>
  <path class="st0" d="M32.51,402.29s97.52,65.02,105.65,65.02,105.65-65.02,105.65-65.02v-186.92s-89.4-24.38-105.65-24.38-105.65,24.38-105.65,24.38v186.92ZM93.46,329.14l60.95-85.33-20.32,69.08h48.76l-60.95,81.27,20.32-65.02h-48.76Z"/>
</svg>