<?xml version="1.0" encoding="UTF-8"?>
<svg id="a" data-name=" 图层 1" xmlns="http://www.w3.org/2000/svg" viewBox="0 0 512 512">
  <path d="M16.25,495.75v-81.27l81.27,81.27H16.25ZM495.75,495.75v-81.27l-81.27,81.27h81.27ZM495.75,16.25v81.27l-81.27-81.27h81.27ZM16.25,16.25v81.27L97.52,16.25H16.25Z" style="fill: #c9b269; fill-rule: evenodd;"/>
  <path d="M256,195.05s-37.41,2.12-56.89,24.38c0,0-10.27,5.99-16.25,0s0-16.25,0-16.25c20.21-17.91,46.15-27.99,73.14-28.44v20.32h0ZM256,195.05s38.1,2.78,57.94,25.7c0,0,10.46,6.16,16.55,0s0-16.73,0-16.73c-20.51-18.39-46.95-28.79-74.49-29.28v20.32h0ZM256,158.48s53.3,1.46,73.14,24.38c0,0,19.63,15.61,25.73,9.44,2.44-2.47,7.18-7.31,2.71-13.51-6.68-9.29-24.38-20.32-24.38-20.32-23.58-13.25-50.16-20.24-77.21-20.32v20.32h0ZM256,158.48s-52.39,2.01-71.88,25.51c0,0-19.3,16-25.29,9.68-2.4-2.53-7.06-7.48-2.67-13.85,6.56-9.52,23.97-20.83,23.97-20.83,23.01-13.51,49.18-20.7,75.87-20.83v20.32h0ZM256,121.9s-73.96,9.01-93.46,32.51c0,0-17.91,18.16-28.44,12.19-3.04-1.72-4.39-9.89,0-16.25,6.56-9.52,36.57-28.44,36.57-28.44,0,0,41.33-20.32,85.33-20.32v20.32h0ZM256,121.9s74.72,8.45,94.41,31.5c0,0,18.09,17.81,28.73,11.96,3.07-1.69,4.44-9.7,0-15.94-6.63-9.35-36.95-27.9-36.95-27.9,0,0-41.75-19.93-86.2-19.93v20.32h0ZM182.86,288.51s-1.37,4.06-12.19,4.06c-5.7.29-11.36-1.13-16.25-4.06.96-5.38.96-10.88,0-16.25-.65-1.91-2.15-3.41-4.06-4.06h-24.38c-8.23,0-1.89,18.29,4.06,24.38,7.64,7.77,18.09,6.21,40.63,24.38,9.37,8.03,13.97,20.3,12.19,32.51,0,0,4.8,36.57-48.76,36.57s-40.63-48.76-40.63-48.76c0,0,1.38-4.06,12.19-4.06,5.7-.3,11.36,1.12,16.25,4.06-.97,5.37-.97,10.88,0,16.25.65,1.91,2.15,3.41,4.06,4.06h20.32c4.34.15,7.98-3.26,8.13-7.6v-.53s6-15.6-16.25-24.38c-26.28-10.37-36.25-22.35-40.63-28.44-.33-.46-.49-1.02-.43-1.58-1.81-6.11-2.99-12.39-3.51-18.74.16-5.95-4.79-36.57,48.7-36.57s40.57,48.76,40.57,48.76h0ZM410.41,288.51s-1.37,4.06-12.19,4.06c-5.7.29-11.36-1.13-16.25-4.06.96-5.38.96-10.88,0-16.25-.65-1.91-2.15-3.41-4.06-4.06h-24.38c-8.23,0-1.89,18.29,4.06,24.38,7.64,7.77,18.09,6.21,40.63,24.38,9.37,8.03,13.97,20.3,12.19,32.51,0,0,4.8,36.57-48.76,36.57s-40.63-48.76-40.63-48.76c0,0,1.38-4.06,12.19-4.06,5.7-.3,11.36,1.12,16.25,4.06-.97,5.37-.97,10.88,0,16.25.65,1.91,2.15,3.41,4.06,4.06h20.32c4.34.15,7.98-3.26,8.13-7.6v-.53s6-15.6-16.25-24.38c-26.28-10.37-36.25-22.35-40.63-28.44-.33-.46-.49-1.02-.43-1.58-1.81-6.11-2.99-12.39-3.51-18.74.16-5.95-4.79-36.57,48.7-36.57s40.57,48.76,40.57,48.76h-.01ZM284.44,381.97h-60.95c-12.82,0-16.25-20.32-16.25-20.32l.58-48.76-.58-48.76s3.44-20.32,16.25-20.32h60.95c13.23,0,16.25,20.32,16.25,20.32v97.52s-3.03,20.32-16.25,20.32h0ZM253.97,361.65c-5.58.11-18.29,2.94-18.29-8.13v-45.07l-.18-36.17c-.07-11.05,12.88-8.27,18.46-8.16,5.58-.11,18.29-2.94,18.29,8.13v81.27c0,11.07-12.7,8.23-18.29,8.13h.01Z" style="fill: #fff; fill-rule: evenodd;"/>
</svg>