<?xml version="1.0" encoding="UTF-8"?>
<svg id="a" data-name=" 图层 1" xmlns="http://www.w3.org/2000/svg" viewBox="0 0 512 512">
  <path d="M361.08,340.6h-56.22l-4.16,4.17-8.33,2.08h-4.17l-6.25,6.25-12.49,2.08h-10.41l-35.4,2.08h-6.26l-2.08-4.17-2.08,2.08h-10.4l-2.1-2.08h-22.89l-2.08,2.08h-2.08s-3.46-.95-4.17-10.41c-.6,4.01-4.31,6.8-8.33,6.25h-10.41v-2.08h-2.08v-6.25h-10.41l-2.08,2.08-6.25,2.08h-2.08l-6.25,2.08-2.08,2.08,2.08,2.08v2.08l-2.08,2.08,2.08,2.08v4.17l-2.08,2.08h-8.33l-2.08-2.08h-2.08v2.08h-8.31l-2.08-2.08h-2.1l-2.08,2.08h-8.33v-2.07h-2.07l-2.08,2.08h-8.33l-2.08-2.08v-4.16h2.08v-2.08h-6.25v-2.08h-4.17v2.08l-4.17,6.25-2.08,2.08-4.17-2.08v-6.25h-2.08v4.17l-2.08,2.08h-4.17c-2.69-.99-4.07-3.97-3.08-6.66.23-.61.56-1.18,1-1.67l2.08-8.33h2.08v-4.17h-2.08v-2.08h2.08v-4.14h-2.08v-2.1h2.08v-4.17h-2.08l-2.08-4.17h2.08l-2.08-4.17s-4.34-8.53,6.25-8.33v2.08h2.09l2.08,4.19v-6.26l4.17-2.08,6.25,8.33v2.08h4.17l2.08-4.17h39.56l18.74,10.41v6.25l4.17-2.08h4.17l6.25-2.08h2.08l18.73-10.4,4.17-10.41h27.07v-2.1h6.25v2.08h12.49l2.08,2.08h4.15l2.08-2.08h2.08l6.25-4.17v-2.07h2.08v2.08h18.74v-2.08h2.1v2.08h14.58v-2.08h4.17l2.08,6.25h18.74l4.17-2.08h8.33l4.17,6.25h6.25l6.25-10.41h4.17l2.08,10.41h4.17v-2.1l6.25-8.31h4.17v10.41h6.25l6.25-10.41,4.17,2.08v8.33h4.17l8.33-10.41,4.17,2.08v8.33h4.17l6.26-10.41h4.14l2.08,10.41h4.17v-2.1l6.25-8.33h4.17v10.41h6.25v-4.16l6.25-6.25,4.16,2.08v8.33h4.17v-4.17l2.08-2.08h2.08l2.08,2.08,2.08,4.17,2.08,2.08h8.33v-8.33l4.17-2.08,29.15,14.58-29.15,16.66-4.17-2.08v-10.41h-8.33l-2.08,2.08v20.82l-6.25,2.08v-2.08l-8.33-2.08v4.17h-4.17v-2.08l-2.08-2.08v4.17h-4.17v-2.08l-2.08-2.08v4.17h-2.08v-2.08l-4.17-2.08v4.17h-2.08v-2.08l-2.08-2.08v4.17h-4.17l-2.08-2.08v-6.25h-29.15M448.53,315.62l2.08,2.08h8.33l-4.17-2.08-2.08-2.08-4.16-2.08v4.17h0ZM448.53,325.7l2.08-2.08h8.33l-4.17,2.08-2.08,2.08-4.16,2.08v-4.16h0ZM419.38,332.27v-2.08l2.08-2.08h4.17v4.16h-6.25ZM404.8,330.19v-2.08h4.17v2.08l2.08,2.08h-8.33l2.08-2.08ZM388.14,328.11h4.17v4.16h-4.16v-4.16h-.01ZM371.48,330.19l2.08-2.08h4.17v4.16h-6.24v-2.08h-.01ZM354.82,330.19l2.08-2.08h4.17v4.16h-6.23v-2.08h-.02ZM338.16,330.19l2.08-2.08h4.18v4.16h-6.25v-2.08h-.02.01ZM323.58,328.11h6.25v4.16h-6.23v-4.16h-.02ZM306.92,328.11h6.25v4.16h-6.23v-4.16h-.02ZM227.82,315.62l-4.17-4.17h39.56l-2.08,4.17h-33.32,0ZM159.11,348.94c-4.98,0-8.33.81-8.33-4.17v-4.17h2.08c-.38,2.83,1.41,5.51,4.17,6.25v-8.33h10.41v4.17s-3.35,6.25-8.33,6.25h0ZM107.06,355.18h2.08v4.17h-2.08v-4.17h0ZM107.06,344.77h2.08v6.25h-2.08v-6.25h0ZM94.57,355.18h2.08v4.17h-2.08v-4.17h0ZM94.57,344.77h2.08v6.25h-2.08v-6.25h0ZM82.08,355.18h2.07v4.17h-2.07v-4.17ZM82.08,344.77h2.07v6.25h-2.07v-6.25ZM57.1,355.18h-4.17l4.17-4.17v-6.25h4.17v6.25l-2.08,2.08-2.08,2.08h0ZM57.1,330.19l-2.08-2.08v-4.17h-2.09v-2.08c2.76-.65,5.53,1.07,6.18,3.83.03.11.05.22.07.33l-2.08,2.08,4.17,4.17v2.08h-4.17v-4.16h0ZM52.93,330.19h-2.09l-2.08,2.08v-6.25h2.08l2.08,2.08v2.08h0ZM52.93,346.85l-2.08,4.17v2.08h-2.09v-6.25h4.17Z" style="fill: #49adc9; fill-rule: evenodd;"/>
  <path d="M163.4,203.78l5.91,5.81,13.78-13.57,9.85,9.7-33.48,32.96-9.85-9.7,13.79-13.57-5.91-5.81-9.85,7.75h-16.68l-9.7-7.76-5.82,5.81,13.58,13.58-9.7,9.7-32.97-32.97,9.7-9.7,13.58,13.58,5.82-5.82-34.91-32.97v-40.73s8.07.06,13.58,0c-.89-44.76,42.67-46.55,42.67-46.55l2.97-.05v.08l1.98.04s44.23,1.79,43.32,46.53c5.59.06,13.78,0,13.78,0v40.72l-35.44,32.95h0ZM155.21,199.88c2.68,0,4.84-2.18,4.84-4.86s-2.18-4.84-4.86-4.84-4.84,2.18-4.84,4.86h0c0,2.68,2.18,4.84,4.86,4.84ZM155.21,182.41c2.68,0,4.84-2.18,4.84-4.86s-2.18-4.84-4.86-4.84-4.84,2.18-4.84,4.86h0c0,2.68,2.17,4.85,4.84,4.85h0v-.02h.01ZM139.69,209.56c2.68,0,4.85-2.17,4.85-4.85s-2.17-4.85-4.85-4.85-4.85,2.17-4.85,4.85c0,2.68,2.15,4.86,4.83,4.87h.02v-.02h0ZM139.69,192.09c2.68,0,4.85-2.17,4.85-4.85s-2.17-4.85-4.85-4.85-4.85,2.17-4.85,4.85c-.02,2.68,2.13,4.86,4.81,4.88h.03v-.04h.01ZM139.69,172.69c2.68,0,4.85-2.17,4.85-4.85s-2.17-4.85-4.85-4.85-4.85,2.17-4.85,4.85c-.02,2.68,2.13,4.86,4.81,4.88h.03v-.04h.01ZM124.17,199.88c2.68,0,4.85-2.17,4.85-4.85s-2.17-4.85-4.85-4.85-4.85,2.17-4.85,4.85h0c0,2.68,2.18,4.85,4.85,4.85h0ZM124.17,182.41c2.68,0,4.85-2.17,4.85-4.85s-2.17-4.85-4.85-4.85-4.85,2.17-4.85,4.85h0c0,2.69,2.17,4.86,4.84,4.86h0v-.02h0ZM175.57,130.06h-71.76v27.15l15.52,11.64,17.47-13.58h4.99l17.88,13.58,15.91-11.64v-27.15h-.01Z" style="fill: #fff; fill-rule: evenodd;"/>
  <path d="M387.04,208.12l10.54-21.08,35.84-23.19v-2.13l-35.84-23.16-10.54-21.08,73.76,44.24v2.11l-73.76,44.28h0Z" style="fill: #fff; fill-rule: evenodd;"/>
  <path d="M412.83,162.8l-1.63,1.06-70.55,46.37,21.08-40.05h-92.75l-14.22-6.32-2.36-1.05,2.38-1.08,14.22-6.32h92.74l-21.08-40.05,70.56,46.37,1.6,1.07h.01Z" style="fill: #fff; fill-rule: evenodd;"/>
</svg>