<?xml version="1.0" encoding="UTF-8"?>
<svg id="a" data-name=" 图层 1" xmlns="http://www.w3.org/2000/svg" viewBox="0 0 512 512">
  <path d="M97.52,105.65h60.95l-60.95-52.83s0,52.83,0,52.83ZM97.52,215.37h60.95l-60.95,52.83v-52.83h0ZM97.52,121.9h296.63s36.57,4.06,36.57,40.63-36.57,36.57-36.57,36.57H97.52v-77.21h0ZM388.06,138.16c12.34,0,22.35,10.01,22.35,22.35s-10.01,22.35-22.35,22.35-22.35-10.01-22.35-22.35,10.01-22.35,22.35-22.35Z" style="fill: #fff; fill-rule: evenodd;"/>
  <path d="M446.98,386.03l-12.19,12.19h-36.57l-16.25,44.7h-12.19l-12.19-12.19h-12.19v12.19h-24.38l-24.38-12.19h-4.06l-36.57,36.57h-16.25l-44.7-69.08h-56.89l-12.19-12.19H56.89v-44.7h77.21v-12.19h28.44v-12.19h170.67v-8.13h97.52v8.13h4.06v16.25h20.32v52.83h-8.13ZM247.87,406.35v32.51l32.51-32.51h-32.51ZM329.14,418.54h-20.32v12.19l20.32,4.06v-16.25Z" style="fill: #49adc9;"/>
</svg>