<?xml version="1.0" encoding="UTF-8"?>
<svg id="_图层_1" data-name="图层_1" xmlns="http://www.w3.org/2000/svg" version="1.1" viewBox="0 0 512 512">
  <!-- Generator: Adobe Illustrator 29.5.1, SVG Export Plug-In . SVG Version: 2.1.0 Build 141)  -->
  <defs>
    <style>
      .st0 {
        fill: #fff;
      }

      .st0, .st1 {
        fill-rule: evenodd;
      }

      .st1 {
        fill: #49adc9;
      }
    </style>
  </defs>
  <path class="st0" d="M386.03,208.48h-101.59v-98.07h101.59s20.32,2.75,20.32,16.25v65.88c0,13.25-20.32,15.94-20.32,15.94ZM364.3,137.7c-12.79,0-23.16,10.37-23.16,23.16s10.37,23.16,23.16,23.16c12.79,0,23.16-10.37,23.16-23.16h0c0-12.79-10.37-23.16-23.16-23.16ZM113.78,184.58v-49.79c0-12.71,20.32-20.32,20.32-20.32h138.16v90.03h-138.16s-20.32-7.46-20.32-19.92ZM158.48,181.78c0,3.37,2.73,6.1,6.1,6.1h89.4c3.37,0,6.1-2.73,6.1-6.1v-.51c0-3.37-2.73-6.1-6.1-6.1h-89.4c-3.37,0-6.1,2.73-6.1,6.1v.51h0ZM158.48,141.14c0,3.37,2.73,6.1,6.1,6.1h89.4c3.37,0,6.1-2.73,6.1-6.1v-.51c0-3.37-2.73-6.1-6.1-6.1h-89.4c-3.37,0-6.1,2.73-6.1,6.1v.51h0ZM186.92,81.96h60.95c13.72,0,16.25,20.32,16.25,20.32h-97.52c3.45-9.44,10.88-16.87,20.32-20.32ZM247.87,236.38h-60.95c-9.37-3.33-16.8-10.61-20.32-19.91h97.52s-2.53,19.91-16.25,19.91Z"/>
  <path class="st1" d="M138.16,296.63h48.76l4.06,4.06h32.51l8.13,20.32h4.06v24.38h-4.06v8.13h12.19v-12.19h12.19l4.06,8.13h4.06v-12.19l-4.06-8.13v-4.06l4.06-4.06,8.13,4.06v4.06h77.21l4.06,4.06v12.19l-4.06,4.06h-69.08v12.19h65.02v-4.06h16.25v4.06h16.25l4.06-8.13,20.32,4.06,28.44-4.06,8.13,4.06s7.63-4.12,11.68.02l4.57-4.09,12.19,4.06s24.54,22.76,4.06,56.89h-4.06l-8.13,4.06h-12.19c-2.42-1.78-5.71-1.78-8.13,0-2.56-1.26-5.57-1.26-8.13,0h-8.13s-7.39.26-8.13,0c-3.96-1.3-8.23-1.3-12.19,0h-85.33l-8.13-4.06h-101.59l-4.06-4.06h-16.25l-4.06,4.06h-12.19l-4.06,8.13h16.25l12.19,4.06v4.06h-32.51l-8.13-4.06-4.06,8.13h-56.89l-4.06,4.06h-8.13l-12.19-20.32h-24.38l-8.13-4.06v-8.13l8.13-32.51s27.6-2.72,36.57-12.19c8.97-9.47,16.25-28.44,16.25-28.44,0,0,12.7-26.79,28.44,0v20.32h4.06l8.13-8.13v-4.06l-4.06-4.06v-12.19c1.67-1,3.06-2.4,4.06-4.06-.08-3.27,0-4.06,0-4.06h-4.06v-16.25l4.06-4.06Z"/>
</svg>