<?xml version="1.0" encoding="UTF-8"?>
<svg id="_图层_1" data-name="图层_1" xmlns="http://www.w3.org/2000/svg" version="1.1" viewBox="0 0 512 512">
  <!-- Generator: Adobe Illustrator 29.5.1, SVG Export Plug-In . SVG Version: 2.1.0 Build 141)  -->
  <defs>
    <style>
      .st0 {
        fill: #fff;
      }

      .st0, .st1 {
        fill-rule: evenodd;
      }

      .st1 {
        fill: #49adc9;
      }
    </style>
  </defs>
  <path class="st1" d="M325.08,329.14l12.19,12.19h121.9l8.13,8.13h12.19v4.06h12.19v4.06h-12.19l-4.06,4.06v4.06h8.13v4.06h-16.25l-12.19,20.32h-12.19v-4.06h-8.13v4.06h-52.83v-4.06h-8.13v4.06h-8.13v-4.06l-8.13-4.06-12.19,12.19h-32.51v32.51h-48.76v-32.51h-32.51l-12.19,12.19h-28.44s-15.66,22.76-12.19,32.51c4,11.22-8.13,12.19-8.13,12.19l-20.32-12.19s-3.15-11.57,0-16.25c3.04-4.52,24.38-24.38,24.38-24.38v-16.25h-28.44l-4.06-4.06h-32.51l-16.25,16.25h-52.83l-8.13,8.13h-8.13l-4.06-4.06v-60.95l4.06-4.06h121.9l28.44-4.06v-4.06h16.25v4.06h8.13v-4.06h8.13v4.06h4.06v-4.06h24.38v4.06h12.19v-4.06h4.06v4.06h8.13v-4.06h4.06v4.06h60.95ZM199.11,381.97h24.38v8.13l-8.13,8.13h-16.25v-16.25Z"/>
  <path class="st0" d="M182.86,247.87h105.65l8.13-8.13h32.51l20.32-10.03-20.32-10.28h-32.51l-8.13-8.13h-105.65v36.57Z"/>
  <path class="st0" d="M182.86,195.05h105.65l8.13-8.13h32.51l20.32-10.03-20.32-10.28h-32.51l-8.13-8.13h-105.65v36.57Z"/>
  <path class="st0" d="M182.86,142.22h105.65l8.13-8.13h32.51l20.32-10.03-20.32-10.28h-32.51l-8.13-8.13h-105.65v36.57Z"/>
</svg>