<?xml version="1.0" encoding="UTF-8"?>
<svg id="a" data-name=" 图层 1" xmlns="http://www.w3.org/2000/svg" viewBox="0 0 512 512">
  <path d="M96.55,324.35h51.77v-4.71l2.36-2.36,4.71,2.36v4.71h4.71l4.71-7.07h30.6v4.71h11.78l4.67-4.71h103.54v-2.36h7.07v11.78c2.51-2.6,6.65-2.68,9.25-.18l.18.18v9.43l7.03-2.36h47.1l4.71-7.07h7.03v11.78h75.34l2.36-4.71h9.39l4.71,4.71v7.03l-4.71,2.36h-87.04l-2.32,4.71h-4.71l-2.36-2.36h-9.43l-2.36,7.07h-30.6s5,5.57,0,7.03c-1.9.38-3.83-.55-4.71-2.28,0,0-1.91-2.23-7.03,0-3.55,1.74-6.75,4.12-9.43,7.03-.56,3.34,1.69,6.51,5.03,7.07.68.11,1.36.11,2.04,0,0,0,4.19-3.86,7.03,0l-4.67,9.43v7.07l-9.43,7.03v2.36l-4.71,4.71h-4.71v-2.36l-18.81,14.1-77.65,44.7-9.43,2.32-11.78,2.36h-4.75l-4.71-7.03v-9.43l4.71-4.71-2.36-4.71v-4.71h2.36v-11.78l4.71-2.36v-4.67l2.36-2.36v-11.78l-25.88-42.34h-21.17l-4.71-4.67h-40.03l-14.1,21.13h-58.84l-9.43-11.78h-4.71l-2.32-2.32v-32.91l2.32-2.36h9.43l2.36,2.36h14.14l7.07-2.36h14.1l4.71,2.36h9.43l9.39-7.07h4.71-.02ZM87.12,347.88h-28.2l-9.43,4.71v4.67h4.71l2.36-4.67h32.91v9.39l-11.78,11.78h-37.59l-4.75-4.71v-18.77l4.71-4.71h47.06v2.36-.04h0ZM195.37,357.3h18.85v4.67h11.78l2.36-4.67h16.46l16.46,21.13v4.75l-37.67,21.17h-7.03v-7.07l-16.5-25.88v-4.71l-7.07-4.71v-4.67h2.36ZM308.34,326.7v-4.71h7.07v2.36h-4.71v2.36h-2.36ZM207.16,434.96v-4.71h4.71v2.36l-2.36,2.36h-2.36,0ZM221.3,420.82l58.84-35.27,4.71-2.36h11.78l-2.4,7.03h-14.14l-56.48,35.35h-4.67v-4.75h2.36Z" style="fill: #49adc9; fill-rule: evenodd;"/>
  <path d="M287.09,218.7l7.68,7.6,17.92-17.68,12.84,12.6-43.6,42.91-12.8-12.6,17.96-17.68-7.72-7.56-12.8,10.08h-21.7l-12.64-10.12-7.56,7.6,17.64,17.68-12.6,12.6-42.91-42.91,12.6-12.6,17.68,17.64,7.6-7.56-45.47-42.91v-53.07s10.48.08,17.68,0c-1.14-58.23,55.55-60.55,55.55-60.55l3.86-.08v.12h2.6s57.54,2.36,56.36,60.55c7.31.12,17.96,0,17.96,0v53.07l-46.12,42.87h-.01ZM276.4,213.66c3.48,0,6.3-2.82,6.3-6.3s-2.82-6.3-6.3-6.3-6.28,2.8-6.3,6.26c-.02,3.48,2.78,6.32,6.26,6.34h.04,0ZM276.4,190.9c3.48,0,6.3-2.82,6.3-6.3s-2.82-6.3-6.3-6.3-6.3,2.82-6.3,6.3,2.82,6.3,6.3,6.3h0ZM256.2,226.26c3.48,0,6.3-2.82,6.3-6.3s-2.82-6.3-6.3-6.3-6.3,2.82-6.3,6.3h0c0,3.48,2.82,6.3,6.3,6.3ZM256.2,203.54c3.48,0,6.3-2.82,6.3-6.3s-2.82-6.3-6.3-6.3-6.3,2.82-6.3,6.3h0c0,3.48,2.82,6.3,6.3,6.3ZM256.2,178.35c3.48,0,6.3-2.82,6.3-6.3s-2.82-6.3-6.3-6.3-6.28,2.8-6.3,6.26c0,3.48,2.82,6.3,6.3,6.3v.04h0ZM236.01,213.7c3.48,0,6.3-2.82,6.3-6.3s-2.82-6.3-6.3-6.3-6.28,2.8-6.3,6.26c0,3.48,2.82,6.3,6.3,6.3v.04h0ZM236.01,190.94c3.48,0,6.3-2.82,6.3-6.3s-2.82-6.3-6.3-6.3-6.3,2.82-6.3,6.3h0c0,3.48,2.82,6.3,6.3,6.3ZM302.93,122.76h-93.46v35.35l20.24,15.16,22.71-17.68h6.5l23.28,17.68,20.72-15.16v-35.35h0Z" style="fill: #fff; fill-rule: evenodd;"/>
</svg>