<?xml version="1.0" encoding="UTF-8"?>
<svg id="_图层_1" data-name="图层_1" xmlns="http://www.w3.org/2000/svg" version="1.1" viewBox="0 0 512 512">
  <!-- Generator: Adobe Illustrator 29.5.1, SVG Export Plug-In . SVG Version: 2.1.0 Build 141)  -->
  <defs>
    <style>
      .st0 {
        fill: #fff;
      }

      .st1 {
        fill: #c9b269;
      }
    </style>
  </defs>
  <path class="st1" d="M16.25,495.75v-81.27l81.27,81.27H16.25ZM495.75,495.75v-81.27l-81.27,81.27h81.27ZM495.75,16.25v81.27l-81.27-81.27h81.27ZM16.25,16.25v81.27L97.52,16.25H16.25Z"/>
  <path class="st0" d="M105.65,414.48l109.71-138.16,40.63,44.7,36.57-4.06,89.4,97.52H105.65ZM170.67,308.83l32.51-36.57s-26.41-110.93-24.38-158.48h-32.51s-3.25,136.53,24.38,195.05ZM190.98,113.78s11.38-2.03,16.25-8.13,41.85-21.13,60.95,0c19.1,21.13,52.83-8.13,52.83-8.13l24.38-12.19s13.82-3.66,8.13,28.44c-5.69,32.1,4.06,52.83,4.06,52.83,0,0,15.03,28.85,4.06,32.51-12.19,4.06-15.44,10.16-20.32,12.19-14.3,5.17-29.7,6.57-44.7,4.06,0,0-17.07-8.13-24.38-12.19-10.57-6.1-34.95,2.44-40.63,8.13-5.69,5.69-19.1,20.32-24.38,8.13-5.28-12.19-9.75-31.29-16.25-105.65Z"/>
</svg>