<?xml version="1.0" encoding="UTF-8"?><svg id="a" xmlns="http://www.w3.org/2000/svg" viewBox="0 0 512 512"><path d="M282.95,327.86l35.93,35.93h71.86v53.89H121.26v-89.82h161.68ZM220.07,300.91l-8.98,8.98h-33.68v-35.93h33.68l8.98,8.98h62.88v17.96h-62.88ZM390.74,435.65c0,14.87-12.07,26.95-26.95,26.95s-26.95-12.07-26.95-26.95h53.89ZM175.16,435.65c0,14.87-12.07,26.95-26.95,26.95s-26.95-12.07-26.95-26.95h53.89Z" style="fill:#55b9d2; fill-rule:evenodd;"/><path d="M271.72,35.93h31.44v94.32h-94.32V35.93h31.44v31.44h31.44v-31.44ZM217.82,139.23h31.44v94.32h-94.32v-94.32h31.44v31.44h31.44v-31.44ZM325.61,139.23h31.44v94.32h-94.32v-94.32h31.44v31.44h31.44v-31.44Z" style="fill:#fff; fill-rule:evenodd;"/></svg>