<?xml version="1.0" encoding="UTF-8"?>
<svg id="_图层_1" data-name="图层_1" xmlns="http://www.w3.org/2000/svg" version="1.1" viewBox="0 0 512 512">
  <!-- Generator: Adobe Illustrator 29.5.1, SVG Export Plug-In . SVG Version: 2.1.0 Build 141)  -->
  <defs>
    <style>
      .st0 {
        fill: #fff;
      }

      .st0, .st1 {
        fill-rule: evenodd;
      }

      .st1 {
        fill: #c9b269;
      }
    </style>
  </defs>
  <path class="st1" d="M16.25,495.75v-81.27l81.27,81.27H16.25ZM495.75,495.75v-81.27l-81.27,81.27h81.27ZM495.75,16.25v81.27l-81.27-81.27h81.27ZM16.25,16.25v81.27L97.52,16.25H16.25Z"/>
  <path class="st0" d="M330.36,400.73l-16.08-110.35h-20.69v55.17h-73.55v-55.17h-20.71l-16.09,110.35h-18.4l18.4-137.94h18.39v9.2h18.39v-36.78h73.55v36.78h18.39v-9.2h18.4l18.39,137.94h-18.39ZM275.2,124.85v91.96h-36.78v-91.96h36.78ZM229.22,106.46v-18.4h55.17v18.4h-55.17ZM311.98,363.94v36.78h-110.35v-36.78h110.35Z"/>
</svg>