<?xml version="1.0" encoding="UTF-8"?>
<svg id="_图层_1" data-name="图层_1" xmlns="http://www.w3.org/2000/svg" version="1.1" viewBox="0 0 512 512">
  <!-- Generator: Adobe Illustrator 29.5.1, SVG Export Plug-In . SVG Version: 2.1.0 Build 141)  -->
  <defs>
    <style>
      .st0 {
        fill: #679552;
      }

      .st1 {
        fill: #fff;
      }
    </style>
  </defs>
  <path class="st0" d="M-36.57,568.89v-158.48L0,418.54v93.46h512v-92.24l16.25,6.91,12.19,142.22H-36.57ZM491.68,491.68H20.32v-81.27l69.08-28.44,81.27,40.63,85.33-40.63,85.33,40.63,81.27-40.63,69.08,29.26v80.46Z"/>
  <path class="st1" d="M134.1,381.97l36.57,20.32,85.33-40.63,85.33,40.63,36.57-20.32-32.51-44.7v-162.54h-28.44v125.97h-40.63v-40.63l-12.19-12.19v-40.63h-16.25v40.63l-12.19,12.19v40.63h-40.63v-125.97h-28.44v162.54l-32.51,44.7Z"/>
  <path class="st1" d="M292.57,109.71l-60.95,81.27,20.32-65.02h-48.76l60.95-85.33-20.32,69.08h48.76Z"/>
</svg>