<?xml version="1.0" encoding="UTF-8"?>
<svg id="a" data-name="图层 1" xmlns="http://www.w3.org/2000/svg" viewBox="0 0 512 512">
  <path d="M246.5,443.5c-13.99,0-26.03-5-35.8-14.86-9.75-9.84-14.7-21.83-14.7-35.64s4.95-26.02,14.71-35.79c9.76-9.76,21.8-14.71,35.79-14.71s26.02,4.95,35.79,14.71c9.76,9.77,14.71,21.81,14.71,35.79s-4.95,25.8-14.7,35.64c-9.77,9.86-21.82,14.86-35.8,14.86ZM212.75,316.25c-2.76,0-5-2.24-5-5v-21c0-18.1,4.36-33.79,12.97-46.66,8.42-12.58,21.38-24.7,38.53-36.02,8.37-5.42,14.84-11.76,19.26-18.85,4.31-6.91,6.49-14.3,6.49-21.98,0-8.1-2.71-14.12-8.3-18.41-5.91-4.54-14.81-6.84-26.45-6.84-14.79,0-29.58,3.77-43.96,11.19-14.49,7.49-27,17.57-37.18,29.98-.95,1.16-2.37,1.83-3.87,1.83-.02,0-.04,0-.07,0-1.52-.02-2.95-.73-3.88-1.93l-36.5-47c-1.34-1.72-1.4-4.12-.16-5.91,12.78-18.48,31.11-33.47,54.47-44.55,23.23-11.02,48.77-16.61,75.89-16.61,34.83,0,62.37,7.81,81.85,23.2,19.84,15.68,29.9,37.99,29.9,66.3,0,20.99-5.24,40.4-15.58,57.69-10.27,17.18-25.9,32.57-46.47,45.77-7.39,4.83-12.89,10.49-16.3,16.8-3.42,6.31-5.15,14.3-5.15,23.75v9.25c0,2.76-2.24,5-5,5h-65.5Z" style="fill: #fff;"/>
  <path d="M255,73.5l-4.75,63c-15.67,0-31.09,3.92-46.25,11.75-15.17,7.84-28.09,18.25-38.75,31.25l-36.5-47c12.33-17.83,29.83-32.12,52.5-42.88,22.66-10.75,47.25-16.12,73.75-16.12M255,73.5c33.83,0,60.08,7.38,78.75,22.12,18.66,14.75,28,35.54,28,62.38,0,20.17-4.96,38.54-14.88,55.12-9.92,16.59-24.88,31.29-44.88,44.12-8.17,5.34-14.17,11.54-18,18.62-3.84,7.09-5.75,15.79-5.75,26.12v9.25h-65.5v-21c0-17.16,4.04-31.79,12.12-43.88,8.08-12.08,20.46-23.62,37.12-34.62,9-5.83,15.91-12.62,20.75-20.38,4.83-7.75,7.25-15.96,7.25-24.62,0-9.66-3.42-17.12-10.25-22.38-6.84-5.25-16.67-7.88-29.5-7.88l4.75-63M246.5,347.5c12.66,0,23.41,4.42,32.25,13.25,8.83,8.84,13.25,19.59,13.25,32.25s-4.42,23.21-13.25,32.12c-8.84,8.91-19.59,13.38-32.25,13.38s-23.42-4.46-32.25-13.38c-8.84-8.91-13.25-19.62-13.25-32.12s4.41-23.41,13.25-32.25c8.83-8.83,19.58-13.25,32.25-13.25M255,63.5c-27.87,0-54.13,5.75-78.04,17.09-24.16,11.46-43.15,27.01-56.44,46.22-2.48,3.59-2.35,8.37.33,11.82l36.5,47c1.87,2.4,4.72,3.82,7.76,3.87.04,0,.09,0,.13,0,2.99,0,5.83-1.34,7.73-3.66,9.74-11.88,21.72-21.53,35.61-28.71,13.66-7.06,27.68-10.63,41.66-10.63,10.52,0,18.39,1.95,23.41,5.81,4.33,3.32,6.34,7.91,6.34,14.44s-1.88,13.14-5.74,19.33c-4.03,6.46-9.99,12.28-17.7,17.27-.02.02-.05.03-.07.05-17.71,11.68-31.14,24.27-39.93,37.41-9.17,13.7-13.81,30.33-13.81,49.43v21c0,5.52,4.48,10,10,10h65.5c5.52,0,10-4.48,10-10v-9.25c0-8.61,1.53-15.79,4.54-21.36,3.01-5.56,7.94-10.61,14.65-15,21.2-13.61,37.35-29.55,48.01-47.38,10.81-18.08,16.29-38.36,16.29-60.26,0-29.92-10.7-53.55-31.8-70.22-20.39-16.11-48.97-24.28-84.95-24.28h0ZM246.5,337.5c-15.36,0-28.59,5.44-39.32,16.18-10.74,10.74-16.18,23.97-16.18,39.32s5.43,28.36,16.15,39.16c10.74,10.84,23.98,16.34,39.35,16.34s28.61-5.5,39.35-16.34c10.72-10.82,16.15-23.99,16.15-39.16s-5.44-28.58-16.18-39.32c-10.74-10.74-23.97-16.18-39.32-16.18h0Z" style="fill: #fff;"/>
</svg>