<?xml version="1.0" encoding="UTF-8"?>
<svg id="a" data-name=" 图层 1" xmlns="http://www.w3.org/2000/svg" viewBox="0 0 512 512">
  <path d="M280.38,426.67h-48.76l-24.38-60.95h97.52l-24.38,60.95Z" style="fill: #fff; fill-rule: evenodd;"/>
  <path d="M154.41,349.46c-13.62-36.77-23.16-74.92-28.44-113.78h-8.13l-24.38,24.38s6.1,48.39,24.38,89.4h36.57Z" style="fill: #49adc9; fill-rule: evenodd;"/>
  <path d="M142.39,195.17c17.24,44.08,58.27,74.33,105.48,77.75v76.54h-77.21c-18.16-48.75-31.76-99.09-40.63-150.35l12.19-4.06.17.13h0Z" style="fill: #49adc9; fill-rule: evenodd;"/>
  <path d="M357.59,349.46c13.62-36.77,23.16-74.92,28.44-113.78h8.13l24.38,24.38s-6.1,48.39-24.38,89.4h-36.57Z" style="fill: #49adc9; fill-rule: evenodd;"/>
  <path d="M369.61,195.17c-17.24,44.08-58.27,74.33-105.48,77.75v76.54h77.21c18.16-48.75,31.76-99.09,40.63-150.35l-12.19-4.06-.17.13h0Z" style="fill: #49adc9; fill-rule: evenodd;"/>
  <path d="M256,40.63c58.91.57,106.21,48.77,105.65,107.68,0,58.35-47.3,105.65-105.65,105.65s-105.65-47.3-105.65-105.65c-.55-58.91,46.74-107.12,105.65-107.68ZM256,58.94c48.89.47,88.15,40.48,87.69,89.38.93,48.43-37.57,88.45-86,89.38s-88.45-37.57-89.38-86c-.02-1.13-.02-2.25,0-3.38-.46-48.89,38.8-88.91,87.69-89.38h0Z" style="fill: #fff; fill-rule: evenodd;"/>
  <path d="M256,77.25c39.25-.75,71.68,30.47,72.42,69.72.75,39.25-30.47,71.68-69.72,72.42-39.25.75-71.68-30.47-72.42-69.72,0-.45,0-.9,0-1.35-.37-38.88,30.85-70.7,69.73-71.07ZM256,95.09c29.39-.56,53.68,22.81,54.24,52.2s-22.81,53.68-52.2,54.24c-29.39.56-53.68-22.81-54.24-52.2v-1.01c-.28-29.12,23.09-52.95,52.21-53.23h0Z" style="fill: #fff; fill-rule: evenodd;"/>
  <path d="M255.9,204.99s-4.44-56.48-53.46-56.48c49.01,0,53.73-56.48,53.73-56.48,0,0,4.44,56.48,53.46,56.48-49.01,0-53.72,56.48-53.72,56.48h-.01Z" style="fill: #fff; fill-rule: evenodd;"/>
</svg>